<svg xmlns="http://www.w3.org/2000/svg" width="236" height="253" fill="none" viewBox="0 0 236 253"><path fill="#fff" stroke="#e3ecf3" d="M3 .5h229a2.5 2.5 0 0 1 2.5 2.5v239.51a9.5 9.5 0 0 1-9.5 9.5H3a2.5 2.5 0 0 1-2.5-2.5V3A2.5 2.5 0 0 1 3 .5Z"/><path fill="#444" fill-opacity=".5" d="M28.917 64.351v5.818h-.704v-5.08h-.034l-1.42.944v-.716l1.454-.966zm2.341 5.023-.045.307a6 6 0 0 1-.148.693q-.096.369-.202.696-.105.327-.173.52h-.511l.096-.48a18 18 0 0 0 .222-1.418l.034-.318zm1.231.795v-.51l1.92-2.103q.338-.369.557-.642.219-.276.324-.517.108-.245.108-.512a.95.95 0 0 0-.545-.878 1.3 1.3 0 0 0-.569-.122q-.334 0-.585.14a.96.96 0 0 0-.383.383 1.2 1.2 0 0 0-.134.58h-.67q0-.511.236-.898.235-.386.642-.602t.917-.216q.512 0 .906.216.396.216.62.582t.224.815q0 .322-.116.628a2.8 2.8 0 0 1-.398.68 12 12 0 0 1-.781.908L33.455 69.5v.045h2.704v.625zm6.742.08q-.643 0-1.094-.35-.452-.351-.69-1.02-.24-.67-.24-1.619 0-.942.24-1.61.24-.67.693-1.023.454-.355 1.09-.355t1.089.355q.454.352.693 1.023.24.668.241 1.61 0 .95-.238 1.62-.24.667-.69 1.02-.453.349-1.095.349m0-.625q.636 0 .988-.614.352-.613.352-1.75 0-.755-.162-1.287-.159-.531-.46-.81a1 1 0 0 0-.718-.278q-.632 0-.986.622-.355.62-.355 1.753 0 .756.159 1.284.159.529.457.804.3.276.724.276m5 .625q-.643 0-1.094-.35-.452-.351-.69-1.02-.24-.67-.24-1.619 0-.942.24-1.61.24-.67.693-1.023.454-.355 1.09-.355t1.089.355q.454.352.693 1.023.24.668.241 1.61 0 .95-.238 1.62-.24.667-.69 1.02-.453.349-1.095.349m0-.625q.636 0 .988-.614.352-.613.352-1.75 0-.755-.162-1.287-.159-.531-.46-.81a1 1 0 0 0-.718-.278q-.632 0-.986.622-.355.62-.355 1.753 0 .756.159 1.284.159.529.457.804.3.276.724.276m-9.737 86.792q-.5 0-.9-.199a1.7 1.7 0 0 1-.642-.546 1.5 1.5 0 0 1-.264-.789h.682a.93.93 0 0 0 .358.653q.321.255.767.256.357 0 .636-.168.282-.168.44-.46.162-.296.162-.668 0-.38-.167-.679a1.2 1.2 0 0 0-.455-.474 1.27 1.27 0 0 0-.662-.176 1.8 1.8 0 0 0-.548.082 1.5 1.5 0 0 0-.463.213l-.66-.079.353-2.864h3.023v.625h-2.432l-.205 1.716h.035q.178-.143.448-.236a1.7 1.7 0 0 1 .563-.094q.534 0 .952.256.42.253.659.693t.241 1.006q0 .556-.25.994a1.83 1.83 0 0 1-.682.688q-.435.25-.988.25m4.982 0a2.2 2.2 0 0 1-.716-.137 1.7 1.7 0 0 1-.654-.44q-.295-.312-.474-.844-.18-.534-.18-1.341.001-.772.146-1.369.144-.6.42-1.009a1.9 1.9 0 0 1 .665-.625 1.8 1.8 0 0 1 .883-.213q.489 0 .87.196.383.194.625.54.24.347.312.798h-.693a1.3 1.3 0 0 0-.375-.65q-.279-.258-.739-.259-.675 0-1.065.588-.386.589-.389 1.651h.045a1.72 1.72 0 0 1 .867-.679q.267-.094.565-.094.501 0 .915.25.414.247.665.685.25.435.25.997 0 .54-.242.989a1.84 1.84 0 0 1-.679.71q-.434.26-1.022.256m0-.625q.357 0 .642-.179.286-.18.451-.48.168-.302.168-.671 0-.36-.162-.656a1.24 1.24 0 0 0-.44-.475 1.17 1.17 0 0 0-.637-.176q-.27 0-.502.108-.233.105-.41.29a1.4 1.4 0 0 0-.272.423q-.1.236-.1.497a1.35 1.35 0 0 0 .611 1.134q.287.185.65.185m4.958.625q-.642 0-1.094-.35-.452-.352-.69-1.02-.24-.67-.239-1.619 0-.944.239-1.611.24-.67.693-1.023a1.72 1.72 0 0 1 1.09-.355q.638 0 1.089.355.454.352.693 1.023.24.667.241 1.611 0 .949-.238 1.619-.24.667-.69 1.02-.453.35-1.094.35m0-.625q.636 0 .988-.614.353-.613.353-1.75 0-.756-.162-1.287-.16-.531-.46-.81a1.02 1.02 0 0 0-.72-.278q-.63 0-.985.622-.355.62-.355 1.753 0 .756.159 1.284t.457.804q.302.276.725.276"/><path fill="#444" d="m24.831 23.273 2.11 6.63h.08l2.114-6.63h2.046L28.172 32h-2.378l-3.012-8.727zM32.197 32v-6.546h1.815V32zm.912-7.39a1 1 0 0 1-.695-.268.87.87 0 0 1-.285-.652q0-.375.285-.643a.98.98 0 0 1 .695-.273q.405 0 .69.273.29.268.29.643 0 .38-.29.652a.97.97 0 0 1-.69.269m4.77 7.496a2.47 2.47 0 0 1-1.351-.383q-.601-.388-.955-1.138-.35-.755-.35-1.85 0-1.125.363-1.87.361-.75.963-1.12.605-.375 1.325-.376.55 0 .916.188.372.183.597.46.23.272.35.537h.055v-3.281h1.811V32h-1.79v-1.048h-.077a2.3 2.3 0 0 1-.362.54 1.8 1.8 0 0 1-.6.44q-.367.174-.895.174m.575-1.444q.439 0 .741-.239.307-.242.47-.677.165-.435.165-1.019t-.162-1.014a1.46 1.46 0 0 0-.468-.665 1.2 1.2 0 0 0-.746-.234q-.447 0-.754.243t-.465.673-.158.997q0 .572.158 1.01.162.435.465.682.307.243.754.243m7.624 1.466q-1.01 0-1.738-.41a2.8 2.8 0 0 1-1.117-1.167q-.392-.758-.392-1.794 0-1.01.392-1.773.393-.762 1.104-1.189.716-.426 1.679-.426.648 0 1.206.21.563.203.98.617.422.413.656 1.04.235.622.235 1.457v.499h-5.527v-1.125h3.818a1.4 1.4 0 0 0-.17-.695 1.2 1.2 0 0 0-.474-.473 1.35 1.35 0 0 0-.694-.175q-.414 0-.733.192-.315.187-.494.507-.179.316-.184.703v1.07q0 .486.18.84.182.353.515.545.332.192.788.192.303 0 .554-.085t.43-.256.273-.418l1.68.111q-.128.605-.525 1.057a2.6 2.6 0 0 1-1.014.699q-.618.247-1.428.247m7.147 0q-.993 0-1.718-.422a2.9 2.9 0 0 1-1.112-1.185q-.392-.762-.392-1.768 0-1.014.392-1.773a2.85 2.85 0 0 1 1.112-1.184q.725-.427 1.718-.427t1.713.427q.724.421 1.116 1.184.392.759.392 1.773 0 1.006-.392 1.768-.392.758-1.116 1.185-.72.422-1.713.422m.008-1.406q.452 0 .755-.256.302-.26.456-.707.157-.448.157-1.019 0-.57-.157-1.018a1.6 1.6 0 0 0-.456-.708 1.12 1.12 0 0 0-.755-.26q-.456 0-.767.26-.307.261-.464.708a3.1 3.1 0 0 0-.154 1.018q0 .57.154 1.019.158.447.464.707.312.255.767.256m8.782-7.45 2.11 6.631h.08l2.114-6.63h2.045L65.356 32h-2.378l-3.013-8.727zM69.38 32v-6.546h1.815V32zm.912-7.39a1 1 0 0 1-.695-.268.87.87 0 0 1-.285-.652q0-.375.285-.643a.98.98 0 0 1 .695-.273q.405 0 .69.273.29.268.29.643 0 .38-.29.652a.97.97 0 0 1-.69.269m5.34 7.518q-1.01 0-1.739-.41a2.8 2.8 0 0 1-1.116-1.167q-.392-.758-.392-1.794 0-1.01.392-1.773t1.104-1.189q.716-.426 1.679-.426.647 0 1.206.21.562.203.98.617.422.413.656 1.04.234.622.234 1.457v.499H73.11v-1.125h3.819a1.4 1.4 0 0 0-.17-.695 1.2 1.2 0 0 0-.474-.473 1.35 1.35 0 0 0-.694-.175q-.414 0-.733.192-.315.187-.495.507-.178.316-.183.703v1.07q0 .486.179.84.183.353.516.545.332.192.788.192.302 0 .554-.085t.43-.256q.18-.17.273-.418l1.68.111q-.128.605-.525 1.057a2.6 2.6 0 0 1-1.014.699q-.618.247-1.428.247M81.066 32l-1.78-6.546h1.836l1.014 4.398h.06l1.056-4.398h1.803l1.074 4.373h.055l.998-4.373h1.832L87.237 32h-1.922l-1.125-4.116h-.081L82.984 32zm11.728 0v-8.727h3.443q.993 0 1.692.379.697.375 1.065 1.044.37.665.37 1.534 0 .87-.374 1.534-.375.665-1.087 1.036-.708.37-1.713.37h-2.195v-1.478h1.897q.532 0 .877-.183.35-.187.52-.516.175-.333.175-.763 0-.435-.175-.758a1.17 1.17 0 0 0-.52-.508q-.349-.183-.886-.183H94.64V32zm10.613.128q-1.01 0-1.739-.41a2.8 2.8 0 0 1-1.117-1.167q-.392-.758-.392-1.794 0-1.01.392-1.773.393-.762 1.104-1.189.716-.426 1.679-.426.648 0 1.206.21.563.203.98.617.422.413.656 1.04.235.622.235 1.457v.499h-5.527v-1.125h3.818q0-.392-.17-.695a1.23 1.23 0 0 0-.473-.473 1.35 1.35 0 0 0-.695-.175q-.414 0-.733.192-.315.187-.494.507-.18.316-.184.703v1.07q0 .486.179.84.184.353.516.545t.788.192q.303 0 .554-.085t.431-.256q.178-.17.273-.418l1.679.111q-.128.605-.525 1.057a2.6 2.6 0 0 1-1.014.699q-.618.247-1.427.247m4.189-.128v-6.546h1.759v1.143h.069q.178-.61.601-.92.422-.316.971-.316a3 3 0 0 1 .571.064v1.61a2.4 2.4 0 0 0-.354-.068q-.225-.03-.413-.03-.4 0-.716.175a1.3 1.3 0 0 0-.494.478 1.4 1.4 0 0 0-.179.707V32zm7.721-8.727h2.276l2.403 5.863h.102l2.404-5.863h2.275V32h-1.789v-5.68h-.073l-2.258 5.637h-1.219l-2.259-5.659h-.072V32h-1.79zM126.263 32v-6.546h1.816V32zm.912-7.39a1 1 0 0 1-.694-.268.87.87 0 0 1-.286-.652.85.85 0 0 1 .286-.643.98.98 0 0 1 .694-.273q.405 0 .691.273.29.268.29.643 0 .38-.29.652a.97.97 0 0 1-.691.269m4.173 3.606V32h-1.815v-6.546h1.73v1.155h.077q.218-.57.729-.903.51-.337 1.24-.337.68 0 1.189.299.506.298.788.852.28.55.281 1.312V32h-1.815v-3.844q.004-.6-.307-.937-.31-.342-.857-.341-.366 0-.647.157-.278.159-.435.46a1.6 1.6 0 0 0-.158.72m9.847.997v-3.759h1.816V32h-1.743v-1.189h-.068a1.94 1.94 0 0 1-.738.925q-.512.35-1.248.35-.657 0-1.155-.3a2.06 2.06 0 0 1-.78-.847q-.277-.55-.281-1.317v-4.167h1.815v3.843q.005.58.311.917.307.336.823.336.327 0 .613-.149.286-.153.461-.452.179-.298.174-.737m6.749-3.759v1.364h-3.942v-1.364zm-3.047-1.568h1.816v6.103a.8.8 0 0 0 .076.392.43.43 0 0 0 .213.191.9.9 0 0 0 .324.056q.129 0 .256-.021l.196-.039.286 1.351a5 5 0 0 1-.384.098q-.247.06-.601.072-.656.026-1.15-.174a1.6 1.6 0 0 1-.763-.622q-.272-.423-.269-1.066zm7.142 8.242q-1.01 0-1.738-.41a2.8 2.8 0 0 1-1.117-1.167q-.392-.758-.392-1.794 0-1.01.392-1.773.393-.762 1.104-1.189.716-.426 1.679-.426.648 0 1.206.21.563.203.98.617.422.413.656 1.04.235.622.235 1.457v.499h-5.527v-1.125h3.818q0-.392-.171-.695a1.2 1.2 0 0 0-.473-.473 1.35 1.35 0 0 0-.694-.175q-.414 0-.733.192-.315.187-.494.507-.18.316-.184.703v1.07q0 .486.179.84.183.353.516.545.332.192.788.192.303 0 .554-.085t.431-.256q.179-.17.272-.418l1.679.111q-.128.605-.524 1.057a2.6 2.6 0 0 1-1.014.699q-.618.247-1.428.247"/><path stroke="#d9d9d9" stroke-opacity=".5" d="M50.686 66.277H235M50.686 153.826H235M69.157 66.777v186.157M92.196 66.777v186.157m23.039-186.157v186.157m23.039-186.157v186.157m23.039-186.157v186.157m23.04-186.157v186.157m23.039-186.157v186.157"/><path stroke="#509fe2" stroke-miterlimit="10" d="m68.657 242.336 23.762-13.155 23.77-25.56 23.754 10.145 23.77-37.236 23.763 19.082 23.762 19.926L235 152.022"/><path fill="#509fe2" d="M91.696 231.492a2.663 2.663 0 0 0 2.667-2.659 2.664 2.664 0 0 0-2.667-2.66 2.664 2.664 0 0 0-2.667 2.66 2.663 2.663 0 0 0 2.667 2.659m25.245-24.867a2.663 2.663 0 0 0 2.667-2.659 2.664 2.664 0 0 0-2.667-2.66 2.664 2.664 0 0 0-2.667 2.66 2.663 2.663 0 0 0 2.667 2.659m23.235 10.089a2.664 2.664 0 0 0 2.667-2.66 2.663 2.663 0 0 0-2.667-2.659 2.663 2.663 0 0 0-2.667 2.659 2.664 2.664 0 0 0 2.667 2.66m24.572-37.843a2.663 2.663 0 0 0 2.667-2.659 2.664 2.664 0 0 0-2.667-2.66 2.664 2.664 0 0 0-2.667 2.66 2.663 2.663 0 0 0 2.667 2.659m19.105 16.538a2.664 2.664 0 0 0 2.667-2.66 2.663 2.663 0 0 0-2.667-2.659 2.663 2.663 0 0 0-2.667 2.659 2.664 2.664 0 0 0 2.667 2.66m27.488 22.457a2.664 2.664 0 0 0 2.667-2.66 2.663 2.663 0 0 0-2.667-2.659 2.663 2.663 0 0 0-2.667 2.659 2.664 2.664 0 0 0 2.667 2.66"/></svg>