<svg xmlns="http://www.w3.org/2000/svg" width="227" height="143" fill="none" viewBox="0 0 227 143"><path fill="#6f4bbb" d="M120.508 120.04h25.74v22.527h-25.27c-3.996-1.763-7.287-4.27-9.676-7.208.94-4.859 4.427-11.205 9.206-15.319"/><path fill="#7d5dc2" d="M121.997 121.921c-3.408 3.526-6.777 7.796-7.914 12.654 2.038 2.429 4.702 4.31 7.562 5.681h21.626v-18.335z"/><path fill="#9478cf" d="M116.043 129.601c-.666.94-1.919 4.74-1.998 4.975 2.037 2.429 4.701 4.31 7.561 5.681h11.519v-9.834a209 209 0 0 1-17.082-.822"/><path fill="#5f3ea7" d="M120.391 137.788c2.664.901 3.918 2.586 4.31 4.78h-9.286c.627-1.881 2.39-4.192 4.976-4.78"/><path fill="#6f4bbb" d="M120.353 138.807c-1.449.391-2.664 1.528-3.448 2.82h3.487v-2.82z"/><path fill="#5f3ea7" d="M129.559 137.239c3.565.98 5.289 3.37 5.72 5.328h-12.38c.823-2.076 3.33-4.858 6.66-5.328"/><path fill="#6f4bbb" d="M129.48 138.219c-1.959.352-3.879 1.724-5.015 3.408h5.093v-3.408zm47.64-18.179h-25.739v22.527h25.269c3.996-1.763 7.287-4.27 9.677-7.208-.901-4.859-4.388-11.205-9.207-15.319"/><path fill="#7d5dc2" d="M175.671 121.921c3.409 3.526 6.778 7.796 7.914 12.654-2.037 2.429-4.701 4.31-7.561 5.681h-21.626v-18.335z"/><path fill="#9478cf" d="M181.587 129.601c.666.94 1.92 4.74 1.998 4.975-2.037 2.429-4.701 4.31-7.561 5.681h-11.519v-9.834a208 208 0 0 0 17.082-.822"/><path fill="#5f3ea7" d="M177.277 137.788c-2.664.901-3.917 2.586-4.309 4.78h9.285c-.627-1.881-2.39-4.192-4.976-4.78"/><path fill="#6f4bbb" d="M177.316 138.807c1.45.391 2.664 1.528 3.448 2.82h-3.487v-2.82z"/><path fill="#5f3ea7" d="M168.111 137.239c-3.566.98-5.289 3.37-5.72 5.328h12.38c-.823-2.076-3.33-4.858-6.66-5.328"/><path fill="#6f4bbb" d="M168.149 138.219c1.959.352 3.879 1.724 5.015 3.408h-5.093v-3.408z"/><path fill="#5f3ea7" d="M80 126.975c.157 4.113 1.097 7.326 2.899 9.324 2.82-.235 5.21-3.369 6.308-6.073-1.646-2.86-4.858-4.152-9.207-3.251"/><path fill="#6f4bbb" d="M81.449 128.111c.078 2.39.705 4.858 1.998 6.661l1.096-6.504c-.979-.235-2.037-.235-3.095-.157"/><path fill="#5f3ea7" d="M87.129 129.169c.274 3.682.744 6.934 3.056 10.225 4.153-.901 7.404-3.213 8.776-6.895-2.037-4.662-6.896-5.289-11.832-3.33"/><path fill="#6f4bbb" d="m90.774 137.827 2.781-8.189c-1.567-.313-3.33-.078-5.014.471.274 2.781.744 5.249 2.233 7.718"/><path fill="#5f3ea7" d="M100.764 132.185c.705 4.192 4.662 6.268 6.66 6.151.901-1.528 1.802-3.526 1.802-5.916l-1.724-1.449c-2.625-.51-5.406-.314-6.738 1.214"/><path fill="#6f4bbb" d="M106.718 136.926c.783-1.175 1.293-2.977 1.371-4.701l-2.821-.47z"/><path fill="#6f4bbb" d="M109.266 76.005v56.377c-9.756 1.214-21.117.822-29.266-5.446.157-5.25.666-10.382 1.606-15.279 1.763-8.855 5.093-16.925 10.852-23.546 5.094-5.838 10.187-8.62 16.808-12.106"/><path fill="#9478cf" d="M82.742 125.643c5.093 3.918 17.316 5.133 23.741 4.31V80.55c-16.572 8.815-23.154 25.074-23.742 45.093"/><path fill="#a58dd4" d="M82.742 125.643c2.585 1.998 6.973 3.251 11.557 3.957.666-12.576.588-31.5-2.233-36.514-6.151 8.737-8.933 19.902-9.324 32.557"/><path fill="#9478cf" d="M94.299 117.259a3.86 3.86 0 0 1 3.878 3.878 3.863 3.863 0 0 1-3.879 3.879 3.863 3.863 0 0 1-3.878-3.879 3.86 3.86 0 0 1 3.879-3.878"/><path fill="#6f4bbb" d="M103.544 32.047c-1.136-7.326.118-11.126 1.607-17.825 4.662 3.878 7.639 6.66 13.32 9.52 1.136-7.091 3.644-13.79 7.287-20.06L127.913 0c8.306 6.268 15.397 11.283 20.882 19.589 5.484-8.306 12.576-13.32 20.881-19.589l2.155 3.683c3.644 6.268 6.151 12.968 7.287 20.059 5.681-2.86 8.658-5.642 13.321-9.52 1.527 6.66 2.742 10.46 1.606 17.825l10.264 2.821c-2.037 26.798-4.113 49.638-6.738 76.436-.353 3.683-.745 7.404-1.136 11.087-.118 1.058-1.411 2.978-6.896 3.017-26.797 1.802-54.848 1.802-81.607 0-5.485-.079-6.777-1.959-6.895-3.017-.392-3.761-.784-7.522-1.136-11.283-.157-1.528-.314-3.056-.47-4.623-2.233-23.898-4.427-47.718-6.269-71.656l10.265-2.82h.117z"/><path fill="#9478cf" d="M129.049 5.603c-4.427 7.522-6.895 15.475-7.365 23.702-4.545-1.724-9.716-4.545-14.183-8.188-.901 3.996-.705 9.207.51 13.751a186 186 0 0 0-10.735 2.782c1.88 24.604 3.643 49.207 6.072 73.732.235 2.429.745 7.679 1.019 10.108.979.549 3.017.549 3.839.588a610 610 0 0 0 81.177 0c.862-.079 2.86-.079 3.839-.588.274-2.39.784-7.757 1.019-10.108 2.39-24.564 4.192-49.168 6.072-73.732a186 186 0 0 0-10.734-2.782c1.214-4.544 1.41-9.755.509-13.751-4.427 3.683-9.638 6.464-14.182 8.188-.471-8.188-2.939-16.18-7.366-23.702-9.011 6.817-14.927 11.753-19.745 21.626-4.858-9.873-10.735-14.81-19.785-21.626z"/><path fill="#a58dd4" d="M129.049 5.603c.666 10.93 3.408 23.075 8.58 28.168-6.895-.744-10.578-1.567-15.906-4.466-4.584-1.724-9.755-4.545-14.222-8.188 2.39 7.209 4.702 12.34 9.442 17.356-4.035-.079-6.347-1.41-8.932-3.605a186 186 0 0 0-10.735 2.782c1.88 24.604 3.643 49.207 6.072 73.732.235 2.429.745 7.679 1.019 10.108.979.549 3.017.549 3.839.588a609 609 0 0 0 40.589 1.332v-14.653c-20.921 1.646-40.04-31.342-18.061-53.007l-4.388 2.429c-.549-3.487.548-7.836 1.998-11.361 2.86-6.857 10.46-11.95 20.451-13.164v-6.465c-4.858-9.872-10.696-14.809-19.746-21.586"/><path fill="#7d5dc2" d="M180.646 38.473c4.702-5.015 7.052-10.186 9.442-17.395.901 3.996.705 9.207-.509 13.751-2.586 2.233-4.897 3.565-8.933 3.644m-7.953-2.038a4.24 4.24 0 0 1 4.231 4.232 4.24 4.24 0 0 1-4.231 4.23 4.24 4.24 0 0 1-4.231-4.23c0-2.312 1.92-4.232 4.231-4.232m15.475 9.56a2.96 2.96 0 0 1 2.939 2.938 2.96 2.96 0 0 1-2.939 2.938 2.96 2.96 0 0 1-2.938-2.938 2.91 2.91 0 0 1 2.938-2.938M160 33.732c5.171-5.054 7.914-17.199 8.58-28.169 4.427 7.523 6.895 15.476 7.365 23.703-5.367 2.9-9.05 3.722-15.945 4.466"/><path fill="#9478cf" d="M110.401 42.586c3.839 0 6.973 3.134 6.973 6.974 0 3.839-3.134 6.973-6.973 6.973s-6.974-3.134-6.974-6.973 3.134-6.974 6.974-6.974m-4.506 21.391a2.793 2.793 0 0 1 2.782 2.782 2.793 2.793 0 0 1-2.782 2.781 2.79 2.79 0 0 1-2.781-2.781 2.79 2.79 0 0 1 2.781-2.782"/><path fill="#d3e8ef" d="M149.265 46.387c16.572 0 30.01 13.438 30.01 30.01s-13.438 30.01-30.01 30.01-30.01-13.438-30.01-30.01 13.438-30.01 30.01-30.01"/><path fill="#fff" d="M175.436 69.58c-2.625-11.283-11.636-20.137-22.997-22.527-12.38-.94-22.41 7.718-22.41 19.51 0 11.872 10.186 22.41 22.684 23.507 12.537 1.097 22.684-7.6 22.684-19.51.039-.314.039-.666.039-.98"/><path fill="#ea4e64" d="M136.964 64.878c-9.364 0-16.925 7.561-16.925 16.925 0 9.363 7.561 16.925 16.925 16.925 9.363 0 16.924-7.562 16.924-16.925 0-9.325-7.561-16.925-16.924-16.925"/><path fill="#ec6277" d="M136.964 64.878c-2.468 0-4.819.51-6.934 1.489v.196c0 11.557 9.638 21.86 21.783 23.428a17 17 0 0 0 2.115-8.188c0-9.364-7.561-16.925-16.964-16.925"/><path fill="#232323" d="M136.963 70.833a10.993 10.993 0 0 0-11.009 11.009 10.993 10.993 0 0 0 11.009 11.009 10.994 10.994 0 0 0 11.009-11.01 10.994 10.994 0 0 0-11.009-11.008"/><path fill="#323232" d="M136.964 70.833c-2.233 0-4.31.666-6.034 1.802 2.116 7.013 7.679 12.968 14.81 15.789a11.07 11.07 0 0 0 2.194-6.582c.039-6.073-4.858-11.009-10.97-11.009"/><path fill="#fff" d="M148.952 69.15a6.92 6.92 0 0 0-6.934 6.934 6.92 6.92 0 0 0 6.934 6.934 6.92 6.92 0 0 0 6.935-6.934 6.92 6.92 0 0 0-6.935-6.935"/><path fill="#6f4bbb" d="M113.967 90.148c8.541-4.701 21.391 3.526 20.451 16.847-8.149-2.508-16.964-10.187-20.451-16.847"/><path fill="#a58dd4" d="M113.967 90.148c7.757.156 16.337 4.544 20.451 16.846-9.756-1.097-18.845-8.54-20.451-16.847"/><path fill="#7d5dc2" d="M118.002 101.274c1.136-.392 6.464-.274 6.895.314.509.705-.901 4.309-2.39 6.66-1.959-1.567-3.565-3.722-4.505-6.974"/><path fill="#fff" d="M116.434 99.981c1.137-.391 6.465-.274 6.896.314.509.705-.901 4.309-2.39 6.66-1.959-1.567-3.565-3.722-4.506-6.974"/><path fill="#6f4bbb" d="M118.041 98.14c.353 7.561 10.225 14.848 19.589 12.145.509 2.194-.98 3.487-2.508 3.8-8.501.744-16.689-4.623-19.392-11.479-.784-1.881.078-4.231 2.311-4.466m-1.608 14.182c2.351 4.427 6.034 6.504 10.069 7.17-5.759 2.586-10.852-.862-10.069-7.17"/><path fill="#9478cf" d="M120.314 113.38c4.623 2.586 9.011 3.408 14.104 2.938-3.722 2.468-11.009 2.743-14.104-2.938"/><path fill="#5f3ea7" d="M159.648 37.884c-9.285-16.063-33.732-6.7-31.264 11.323 6.112-10.108 17.904-13.4 31.264-11.323"/><path fill="#6f4bbb" d="M159.646 37.886c-5.249-9.05-16.298-9.638-23.702-4.662-.039 2.115.588 3.643 1.724 4.858 5.994-2.9 13.829-4.075 21.978-.196m48.621 61.078c9.755 0 17.747 7.835 17.747 17.63s-7.992 17.63-17.747 17.63c-9.756 0-17.748-7.836-17.748-17.63 0-9.795 7.992-17.63 17.748-17.63"/><path fill="#9478cf" d="M208.266 101.549c8.384 0 15.162 6.738 15.162 15.005 0 8.306-6.778 15.005-15.162 15.005s-15.162-6.739-15.162-15.005 6.817-15.005 15.162-15.005"/><path fill="#a58dd4" d="M208.267 101.549c5.955 0 11.087 3.408 13.595 8.345.548 7.835-9.011 13.594-15.397 10.891-4.701-2.546-7.953-7.522-7.953-13.203 0-.94.078-1.841.274-2.742 2.625-2.037 5.916-3.291 9.481-3.291"/><path fill="#2b3039" d="M202.077 114.242c-.705-2.155 7.366-4.858 8.11-2.703l7.992 23.937c.706 2.155-7.365 4.858-8.109 2.703z"/><path fill="#5f3ea7" d="M213.673 111.813c-3.173 1.959-5.798 3.879-7.678 7.444 2.703 3.291 6.268 5.093 10.186 4.623 3.173-3.996 1.528-8.58-2.508-12.067"/><path fill="#6f4bbb" d="M216.142 117.298c-.47-1.372-1.332-2.664-2.429-3.918-2.429 1.567-4.427 3.252-5.955 5.681 1.685.156 4.309-.275 8.384-1.763"/><path fill="#5f3ea7" d="M216.729 121.411c-3.174 1.959-5.798 3.879-7.679 7.444 2.703 3.291 6.268 5.093 10.186 4.623 3.174-3.996 1.528-8.58-2.507-12.067"/><path fill="#6f4bbb" d="M219.199 126.505c-.471-1.372-1.332-2.664-2.429-3.918-2.429 1.567-4.428 3.252-5.955 5.681 1.684.196 4.309-.275 8.384-1.763"/><path fill="#5f3ea7" d="M200.196 122.352c3.017-.744 5.681-1.214 8.933-.274.392 3.526-.588 6.738-3.134 8.776-4.232-.353-6.034-4.036-5.799-8.502"/><path fill="#6f4bbb" d="M202.038 126.623c-.549-1.097-.823-2.351-.94-3.722 2.35-.549 4.505-.784 6.895-.274-.862 1.136-2.664 2.429-5.955 3.996"/><path fill="#393f4c" d="M194.163 57.513c-16.024.9-28.286 14.652-27.385 30.676.901 16.023 14.652 28.286 30.676 27.385s28.286-14.653 27.385-30.676c-.901-16.024-14.613-28.287-30.676-27.385"/><path fill="#d3e8ef" d="M194.399 61.117c-14.026.784-24.8 12.85-24.016 26.916.783 14.025 12.85 24.799 26.915 23.976 14.025-.783 24.799-12.85 24.016-26.915-.823-14.025-12.851-24.8-26.915-23.977"/><path fill="#fff" d="M215.201 99.16a23.3 23.3 0 0 0 3.722-13.948c-.587-10.147-7.6-18.413-16.885-20.96a3275 3275 0 0 1-2.351 26.249c3.095 1.254 11.087 5.25 15.514 8.658m-21.195-35.221c-12.223.705-21.587 11.165-20.843 23.389.118 1.724.392 3.408.862 4.975a10 10 0 0 1-.078-1.097c-.784-14.182 10.03-26.327 24.212-27.15h.117c-1.371-.117-2.82-.196-4.27-.117"/><path fill="#999" d="M174.026 99.746q.705 1.176 1.528 2.233l7.522-10.421 17.316 7.209 10.03-20.725 10.069 1.92c-.275-.94-.549-1.881-.902-2.782l-10.578-2.037-9.833 20.333-16.925-7.052z"/><path fill="#1ec185" d="M182.332 84.741a5.226 5.226 0 0 1 5.524 4.937 5.225 5.225 0 0 1-4.936 5.524 5.224 5.224 0 0 1-5.524-4.937c-.196-2.86 2.037-5.328 4.936-5.524"/><path fill="#ea4e64" d="M209.403 71.383a5.225 5.225 0 0 1 5.524 4.936 5.225 5.225 0 0 1-4.936 5.524 5.226 5.226 0 0 1-5.524-4.936c-.196-2.9 2.037-5.367 4.936-5.524"/><path fill="#ff893a" d="M199.452 91.911a5.225 5.225 0 0 1 5.524 4.937 5.225 5.225 0 0 1-4.936 5.524 5.227 5.227 0 0 1-5.524-4.937c-.196-2.899 2.037-5.367 4.936-5.524"/><path fill="#f35c7a" d="m8.687 88.904 12.442.09-1.251-7.764L6 81.074zm6.718 19.6 8.88.103-1.229-7.637-10.262-.07zm45.19-7.276-9.632-.065-1.427 7.73 7.806.097zm-6.023-19.594-1.406 7.592 12.436.094 3.152-7.52zm-18.677 7.47.091-7.688-13.59-.155 1.25 7.75zm-.139 11.955-10.183-.068 1.228 7.642 8.865.105zm2.487.014-.092 7.693 8.86.1 1.434-7.72zm12.41-11.863 1.398-7.606-13.588-.16-.084 7.674zm-.478 2.587-11.827-.091-.077 6.892 10.627.074zm14.341.102-11.827-.088-1.273 6.879 10.223.068zm-42.97-.315L9.573 91.5l2.377 6.917 10.706.071zm3.625 6.924 10.62.074.07-6.893-11.795-.088zM.593 77.168c.607-.843 1.578-1.316 2.656-1.308l67.671.782 4.26-10.123c.593-1.413 2.078-2.388 3.607-2.375l8.213.1-.06 5.174-7.329-.088-23.877 56.853c-.593 1.416-2.08 2.392-3.617 2.375l-34.166-.397.05-5.177 33.297.388 3.875-9.233-40.797-.47c-1.565-.017-3.068-1.101-3.567-2.582L.187 80.095c-.351-1.02-.204-2.086.406-2.927m26.015 53.034a5.83 5.83 0 0 1 5.764 5.897c-.037 3.215-2.674 5.79-5.905 5.756-3.221-.042-5.8-2.677-5.764-5.892a5.835 5.835 0 0 1 5.905-5.761m19.635.229a5.83 5.83 0 0 1 5.766 5.891 5.82 5.82 0 0 1-5.9 5.756 5.825 5.825 0 0 1-5.763-5.889 5.83 5.83 0 0 1 5.897-5.758"/><path fill="#bc2967" d="M20.193 41.382c1.434-2.227 3.748-3.568 6.699-3.875.304-.034.604-.05.92-.044 3.264.05 6.685 2.035 8.233 5.347 1.66-3.267 5.146-5.13 8.415-5.076.32.004.624.03.931.07 2.93.412 5.197 1.826 6.56 4.097 1.614 2.68 1.761 6.355.404 10.083-2.932 7.999-15.68 15.893-16.224 16.228-.006.005-.023-.004-.029.005-.005.014-.013.017-.023.022a.84.84 0 0 1-.379.086c-.031.006-.052.016-.062.016a.95.95 0 0 1-.449-.113s-.01-.02-.026-.025c-.005-.009-.019-.009-.021-.009-.53-.351-13.01-8.636-15.68-16.751-1.245-3.77-.975-7.431.73-10.06"/><path fill="#db3d8c" d="M26.986 38.417c3.928-.408 9.068 2.748 9.003 8.392l-.34 20.61c-.037-.02-12.715-8.392-15.308-16.262-2.119-6.423.418-12.081 6.645-12.74"/><path fill="#bc2967" d="M35.986 46.835c.088-5.666 5.347-8.659 9.268-8.112 6.196.854 8.558 6.592 6.239 12.943-2.87 7.788-15.845 15.759-15.845 15.759v-.006l.341-20.61q-.002.008-.003.026"/></svg>