<svg xmlns="http://www.w3.org/2000/svg" width="186" height="144" fill="none" viewBox="0 0 186 144"><path fill="#6f4bbb" d="M105.506 120.04h-25.74v22.527h25.27c3.996-1.763 7.287-4.27 9.677-7.208-.941-4.859-4.427-11.205-9.207-15.319"/><path fill="#7d5dc2" d="M104.017 121.921c3.408 3.526 6.778 7.796 7.914 12.654-2.037 2.429-4.702 4.31-7.562 5.681H82.743v-18.335z"/><path fill="#9478cf" d="M109.971 129.601c.666.94 1.92 4.74 1.998 4.975-2.037 2.429-4.701 4.31-7.561 5.681H92.89v-9.834c5.68-.039 11.361-.313 17.081-.822"/><path fill="#5f3ea7" d="M105.623 137.788c-2.664.901-3.918 2.586-4.309 4.78h9.285c-.627-1.881-2.39-4.192-4.976-4.78"/><path fill="#6f4bbb" d="M105.661 138.807c1.45.391 2.664 1.528 3.448 2.82h-3.487v-2.82z"/><path fill="#5f3ea7" d="M96.455 137.239c-3.565.98-5.289 3.37-5.72 5.328h12.38c-.823-2.076-3.33-4.858-6.66-5.328"/><path fill="#6f4bbb" d="M96.535 138.219c1.959.352 3.878 1.724 5.014 3.408h-5.093v-3.408zM48.894 120.04h25.74v22.527h-25.27c-3.996-1.763-7.287-4.27-9.677-7.208.901-4.859 4.388-11.205 9.207-15.319"/><path fill="#7d5dc2" d="M50.343 121.921c-3.408 3.526-6.778 7.796-7.914 12.654 2.037 2.429 4.701 4.31 7.561 5.681h21.627v-18.335z"/><path fill="#9478cf" d="M44.427 129.601c-.666.94-1.92 4.74-1.998 4.975 2.037 2.429 4.701 4.31 7.561 5.681h11.52v-9.834a208 208 0 0 1-17.082-.822"/><path fill="#5f3ea7" d="M48.737 137.788c2.664.901 3.918 2.586 4.31 4.78H43.76c.627-1.881 2.39-4.192 4.976-4.78"/><path fill="#6f4bbb" d="M48.698 138.807c-1.45.391-2.664 1.528-3.447 2.82h3.486v-2.82z"/><path fill="#5f3ea7" d="M57.904 137.239c3.565.98 5.289 3.37 5.72 5.328h-12.38c.822-2.076 3.33-4.858 6.66-5.328"/><path fill="#6f4bbb" d="M57.865 138.219c-1.959.352-3.879 1.724-5.015 3.408h5.093v-3.408z"/><path fill="#5f3ea7" d="M146.014 126.975c-.156 4.113-1.097 7.326-2.899 9.324-2.821-.235-5.21-3.369-6.307-6.073 1.645-2.86 4.858-4.152 9.206-3.251"/><path fill="#6f4bbb" d="M144.566 128.111c-.079 2.39-.705 4.858-1.998 6.661l-1.097-6.504c.979-.235 2.037-.235 3.095-.157"/><path fill="#5f3ea7" d="M138.885 129.169c-.274 3.682-.744 6.934-3.056 10.225-4.152-.901-7.404-3.213-8.775-6.895 2.037-4.662 6.895-5.289 11.831-3.33"/><path fill="#6f4bbb" d="m135.24 137.827-2.781-8.189c1.567-.313 3.33-.078 5.015.471-.275 2.781-.745 5.249-2.234 7.718"/><path fill="#5f3ea7" d="M125.251 132.185c-.706 4.192-4.662 6.268-6.661 6.151-.901-1.528-1.802-3.526-1.802-5.916l1.724-1.449c2.625-.51 5.407-.314 6.739 1.214"/><path fill="#6f4bbb" d="M119.296 136.926c-.783-1.175-1.293-2.977-1.371-4.701l2.821-.47z"/><path fill="#6f4bbb" d="M116.749 76.005v56.377c9.755 1.214 21.116.822 29.265-5.446-.156-5.25-.666-10.382-1.606-15.279-1.763-8.855-5.093-16.925-10.852-23.546-5.093-5.838-10.186-8.62-16.807-12.106"/><path fill="#9478cf" d="M143.273 125.643c-5.093 3.918-17.317 5.133-23.742 4.31V80.55c16.572 8.815 23.154 25.074 23.742 45.093"/><path fill="#a58dd4" d="M143.273 125.643c-2.586 1.998-6.974 3.251-11.558 3.957-.666-12.576-.587-31.5 2.233-36.514 6.151 8.737 8.933 19.902 9.325 32.557"/><path fill="#9478cf" d="M131.716 117.259a3.863 3.863 0 0 0-3.879 3.878 3.863 3.863 0 0 0 3.879 3.879 3.86 3.86 0 0 0 3.878-3.879 3.86 3.86 0 0 0-3.878-3.878"/><path fill="#6f4bbb" d="M122.47 32.047c1.136-7.326-.118-11.126-1.606-17.825-4.663 3.878-7.64 6.66-13.321 9.52-1.136-7.091-3.643-13.79-7.287-20.06L98.101 0C89.796 6.268 82.704 11.283 77.22 19.589 71.735 11.283 64.644 6.269 56.338 0l-2.155 3.683c-3.643 6.268-6.15 12.968-7.287 20.059-5.68-2.86-8.658-5.642-13.32-9.52-1.528 6.66-2.743 10.46-1.607 17.825l-10.264 2.821c2.037 26.798 4.114 49.638 6.738 76.436.353 3.683.745 7.404 1.137 11.087.117 1.058 1.41 2.978 6.895 3.017 26.797 1.802 54.849 1.802 81.607 0 5.485-.079 6.778-1.959 6.895-3.017.392-3.761.784-7.522 1.136-11.283.157-1.528.314-3.056.471-4.623 2.233-23.898 4.427-47.718 6.268-71.656l-10.265-2.82h-.117z"/><path fill="#9478cf" d="M96.965 5.603c4.427 7.522 6.896 15.475 7.366 23.702 4.544-1.724 9.716-4.545 14.182-8.188.901 3.996.705 9.207-.509 13.751 3.761.862 7.248 1.763 10.734 2.782-1.88 24.604-3.643 49.207-6.072 73.732-.235 2.429-.745 7.679-1.019 10.108-.979.549-3.016.549-3.839.588a610 610 0 0 1-81.176 0c-.862-.079-2.86-.079-3.84-.588-.274-2.39-.783-7.757-1.018-10.108-2.39-24.564-4.192-49.168-6.073-73.732a186 186 0 0 1 10.735-2.782c-1.215-4.544-1.41-9.755-.51-13.751 4.427 3.683 9.638 6.464 14.183 8.188.47-8.188 2.938-16.18 7.365-23.702 9.011 6.817 14.927 11.753 19.746 21.626 4.858-9.873 10.734-14.81 19.784-21.626z"/><path fill="#a58dd4" d="M96.965 5.603c-.666 10.93-3.408 23.075-8.58 28.168 6.896-.744 10.578-1.567 15.906-4.466 4.584-1.724 9.756-4.545 14.222-8.188-2.39 7.209-4.701 12.34-9.442 17.356 4.035-.079 6.347-1.41 8.933-3.605 3.761.862 7.248 1.763 10.734 2.782-1.88 24.604-3.643 49.207-6.072 73.732-.235 2.429-.745 7.679-1.019 10.108-.979.549-3.016.549-3.839.588a609 609 0 0 1-40.588 1.332v-14.653c20.92 1.646 40.039-31.342 18.06-53.007l4.388 2.429c.549-3.487-.548-7.836-1.998-11.361-2.86-6.857-10.46-11.95-20.45-13.164v-6.465c4.858-9.872 10.695-14.809 19.745-21.586"/><path fill="#7d5dc2" d="M45.368 38.473c-4.701-5.015-7.052-10.186-9.442-17.395-.901 3.996-.705 9.207.51 13.751 2.585 2.233 4.897 3.565 8.932 3.644m7.953-2.038a4.24 4.24 0 0 0-4.231 4.232c0 2.35 1.92 4.23 4.231 4.23 2.35 0 4.231-1.919 4.231-4.23s-1.92-4.232-4.231-4.232m-15.475 9.56a2.96 2.96 0 0 0-2.938 2.938 2.96 2.96 0 0 0 2.938 2.938 2.96 2.96 0 0 0 2.938-2.938 2.91 2.91 0 0 0-2.938-2.938m28.169-12.263c-5.172-5.054-7.914-17.199-8.58-28.169-4.427 7.523-6.896 15.476-7.366 23.703 5.368 2.9 9.05 3.722 15.946 4.466"/><path fill="#9478cf" d="M115.614 42.586c-3.84 0-6.974 3.134-6.974 6.974 0 3.839 3.134 6.973 6.974 6.973 3.839 0 6.973-3.134 6.973-6.973s-3.134-6.974-6.973-6.974m4.505 21.391a2.793 2.793 0 0 0-2.782 2.782 2.793 2.793 0 0 0 2.782 2.781 2.793 2.793 0 0 0 2.782-2.781 2.793 2.793 0 0 0-2.782-2.782"/><path fill="#d3e8ef" d="M76.75 46.387c-16.573 0-30.01 13.438-30.01 30.01s13.437 30.01 30.01 30.01c16.571 0 30.009-13.438 30.009-30.01s-13.438-30.01-30.01-30.01"/><path fill="#fff" d="M105.975 69.58C103.35 58.297 94.34 49.443 82.978 47.053c-12.38-.94-22.41 7.718-22.41 19.51 0 11.872 10.187 22.41 22.684 23.507 12.537 1.097 22.684-7.6 22.684-19.51.039-.314.039-.666.039-.98"/><path fill="#ea4e64" d="M67.503 64.878c-9.364 0-16.925 7.561-16.925 16.925 0 9.363 7.561 16.925 16.925 16.925 9.363 0 16.925-7.562 16.925-16.925 0-9.325-7.562-16.925-16.925-16.925"/><path fill="#ec6277" d="M67.504 64.878c-2.469 0-4.82.51-6.935 1.489v.196c0 11.557 9.638 21.86 21.783 23.428a17 17 0 0 0 2.116-8.188c0-9.364-7.562-16.925-16.964-16.925"/><path fill="#232323" d="M67.502 70.833a10.993 10.993 0 0 0-11.009 11.009 10.994 10.994 0 0 0 11.01 11.009A10.994 10.994 0 0 0 78.51 81.84a10.993 10.993 0 0 0-11.009-11.008"/><path fill="#323232" d="M67.503 70.833c-2.233 0-4.31.666-6.033 1.802 2.115 7.013 7.679 12.968 14.809 15.789a11.07 11.07 0 0 0 2.194-6.582c.039-6.073-4.858-11.009-10.97-11.009"/><path fill="#fff" d="M79.492 69.15a6.92 6.92 0 0 0-6.935 6.934 6.92 6.92 0 0 0 6.935 6.934 6.92 6.92 0 0 0 6.934-6.934 6.92 6.92 0 0 0-6.934-6.935"/><path fill="#6f4bbb" d="M112.047 90.148c-8.54-4.701-21.39 3.526-20.45 16.847 8.149-2.508 16.964-10.187 20.45-16.847"/><path fill="#a58dd4" d="M112.047 90.148c-7.757.156-16.337 4.544-20.45 16.846 9.755-1.097 18.844-8.54 20.45-16.847"/><path fill="#7d5dc2" d="M108.012 101.274c-1.136-.392-6.464-.274-6.895.314-.509.705.901 4.309 2.39 6.66 1.959-1.567 3.565-3.722 4.505-6.974"/><path fill="#fff" d="M109.58 99.981c-1.136-.391-6.465-.274-6.895.314-.51.705.901 4.309 2.389 6.66 1.959-1.567 3.566-3.722 4.506-6.974"/><path fill="#6f4bbb" d="M107.973 98.14c-.352 7.561-10.225 14.848-19.589 12.145-.509 2.194.98 3.487 2.508 3.8 8.501.744 16.689-4.623 19.393-11.479.783-1.881-.079-4.231-2.312-4.466m1.608 14.182c-2.351 4.427-6.033 6.504-10.069 7.17 5.76 2.586 10.853-.862 10.069-7.17"/><path fill="#9478cf" d="M105.7 113.38c-4.623 2.586-9.01 3.408-14.103 2.938 3.721 2.468 11.008 2.743 14.103-2.938"/><path fill="#5f3ea7" d="M66.366 37.884c9.285-16.063 33.732-6.7 31.264 11.323-6.112-10.108-17.904-13.4-31.264-11.323"/><path fill="#6f4bbb" d="M66.368 37.886c5.25-9.05 16.298-9.638 23.702-4.662.04 2.115-.587 3.643-1.723 4.858-5.995-2.9-13.83-4.075-21.98-.196M17.748 98.964C7.992 98.964 0 106.799 0 116.594s7.992 17.63 17.748 17.63 17.747-7.836 17.747-17.63c0-9.795-7.992-17.63-17.747-17.63"/><path fill="#9478cf" d="M17.748 101.549c-8.384 0-15.162 6.738-15.162 15.005 0 8.306 6.778 15.005 15.162 15.005s15.162-6.739 15.162-15.005-6.817-15.005-15.162-15.005"/><path fill="#a58dd4" d="M17.747 101.549c-5.955 0-11.087 3.408-13.595 8.345-.548 7.835 9.011 13.594 15.397 10.891 4.701-2.546 7.953-7.522 7.953-13.203 0-.94-.078-1.841-.274-2.742-2.625-2.037-5.916-3.291-9.481-3.291"/><path fill="#2b3039" d="M23.937 114.242c.705-2.155-7.366-4.858-8.11-2.703l-7.992 23.937c-.705 2.155 7.365 4.858 8.11 2.703z"/><path fill="#5f3ea7" d="M12.34 111.813c3.174 1.959 5.8 3.879 7.68 7.444-2.704 3.291-6.269 5.093-10.186 4.623-3.174-3.996-1.528-8.58 2.507-12.067"/><path fill="#6f4bbb" d="M9.872 117.298c.47-1.372 1.332-2.664 2.43-3.918 2.428 1.567 4.426 3.252 5.954 5.681-1.684.156-4.31-.275-8.384-1.763"/><path fill="#5f3ea7" d="M9.285 121.411c3.174 1.959 5.799 3.879 7.68 7.444-2.704 3.291-6.27 5.093-10.187 4.623-3.173-3.996-1.528-8.58 2.507-12.067"/><path fill="#6f4bbb" d="M6.816 126.505c.47-1.372 1.332-2.664 2.429-3.918 2.429 1.567 4.427 3.252 5.955 5.681-1.685.196-4.31-.275-8.384-1.763"/><path fill="#5f3ea7" d="M25.818 122.352c-3.017-.744-5.68-1.214-8.933-.274-.391 3.526.588 6.738 3.135 8.776 4.23-.353 6.033-4.036 5.798-8.502"/><path fill="#6f4bbb" d="M23.976 126.623c.549-1.097.823-2.351.94-3.722-2.35-.549-4.505-.784-6.895-.274.862 1.136 2.665 2.429 5.955 3.996"/><path fill="#393f4c" d="M31.851 57.513c16.024.9 28.287 14.652 27.385 30.676-.9 16.023-14.652 28.286-30.676 27.385-16.023-.901-28.286-14.653-27.385-30.676.901-16.024 14.613-28.287 30.676-27.385"/><path fill="#d3e8ef" d="M31.616 61.117c14.025.784 24.799 12.85 24.016 26.916-.784 14.025-12.85 24.799-26.916 23.976-14.025-.783-24.8-12.85-24.016-26.915.823-14.025 12.85-24.8 26.916-23.977"/><path fill="#fff" d="M10.813 99.16A23.3 23.3 0 0 1 7.09 85.211c.588-10.147 7.6-18.413 16.886-20.96.744 8.776 1.527 17.395 2.35 26.249-3.095 1.254-11.087 5.25-15.514 8.658m21.196-35.22c12.224.705 21.587 11.165 20.843 23.389-.118 1.724-.392 3.408-.862 4.975a10 10 0 0 0 .078-1.097c.784-14.182-10.03-26.327-24.212-27.15h-.117c1.371-.117 2.82-.196 4.27-.117"/><path fill="#999" d="M51.989 99.746q-.706 1.176-1.528 2.233l-7.523-10.421-17.316 7.209-10.03-20.725-10.068 1.92c.274-.94.548-1.881.9-2.782l10.579-2.037 9.833 20.333 16.925-7.052z"/><path fill="#1ec185" d="M43.682 84.741a5.225 5.225 0 0 0-5.524 4.937 5.225 5.225 0 0 0 4.937 5.524 5.225 5.225 0 0 0 5.524-4.937c.196-2.86-2.038-5.328-4.937-5.524"/><path fill="#ea4e64" d="M16.611 71.383a5.225 5.225 0 0 0-5.524 4.936 5.225 5.225 0 0 0 4.936 5.524 5.225 5.225 0 0 0 5.525-4.936c.195-2.9-2.038-5.367-4.937-5.524"/><path fill="#ff893a" d="M26.562 91.911a5.226 5.226 0 0 0-5.524 4.937 5.226 5.226 0 0 0 4.936 5.524 5.226 5.226 0 0 0 5.524-4.937c.196-2.899-2.037-5.367-4.936-5.524"/><path fill="#fff" stroke="#8491ac" d="M112.637 48.169h62.934v89.409c0 3.208-2.592 5.922-5.923 5.922h-57.011c-3.197 0-5.924-2.714-5.924-6.057V54.091l.008-.299c.163-3.07 2.812-5.623 5.916-5.623Z"/><path fill="#6f4bbb" stroke="#8491ac" stroke-width="1.333" d="M123.862 89.517q.297 0 .587.057.295.06.564.171h.001q.271.112.519.276v.001q.246.165.456.376l.002.001q.209.208.373.454a3 3 0 0 1 .449 1.086l.001.003a3 3 0 0 1 0 1.17l-.001.003a3 3 0 0 1-.449 1.084 3 3 0 0 1-.831.831q-.248.165-.519.278h-.001a3 3 0 0 1-1.151.228 3 3 0 0 1-.296-.014l-.292-.044a3 3 0 0 1-1.083-.448 3 3 0 0 1-.832-.83l-.001-.004-.151-.25a3 3 0 0 1-.225-.546l-.072-.285a3 3 0 0 1-.044-.883l.044-.293q.056-.288.17-.566l.001.001q.114-.273.277-.518l.001-.002a3 3 0 0 1 .373-.455l.004-.002a2.9 2.9 0 0 1 .974-.652q.27-.11.564-.17.291-.059.588-.058Zm0 11.766q.148 0 .295.014l.292.044q.29.057.564.171h.001q.271.112.519.276v.001q.246.166.458.376a3 3 0 0 1 .651.976q.057.137.099.278l.073.289a3 3 0 0 1 0 1.169l-.073.289a3 3 0 0 1-.099.278v.001a3 3 0 0 1-.651.975l-.002.001a3 3 0 0 1-.975.651l-.004.002a3 3 0 0 1-.561.17l-.004.001q-.286.058-.583.058t-.586-.058l-.003-.001a3 3 0 0 1-.56-.17l-.003-.001-.268-.127-.254-.151a3 3 0 0 1-.452-.372l-.004-.003-.197-.218a3 3 0 0 1-.176-.236l-.001-.003-.151-.251a3 3 0 0 1-.126-.267v-.001l-.099-.278-.072-.285-.044-.294a3.1 3.1 0 0 1 .044-.883 3 3 0 0 1 .448-1.081l.001-.003a3 3 0 0 1 .831-.831 3 3 0 0 1 .798-.377l.285-.071q.292-.058.589-.058Zm0 11.765q.297 0 .583.057l.004.001q.292.058.564.17h.001q.271.112.519.277v.001q.246.165.456.376l.002.001q.209.207.373.454a3 3 0 0 1 .449 1.085l.001.004a3 3 0 0 1 0 1.17l-.001.002a3.03 3.03 0 0 1-.822 1.54q-.212.21-.458.376a3 3 0 0 1-.519.277h-.001a3 3 0 0 1-1.151.228 3 3 0 0 1-.296-.013l-.292-.044a3 3 0 0 1-1.915-1.28l-.001-.002-.151-.251a3.3 3.3 0 0 1-.225-.545l-.072-.286a3 3 0 0 1-.044-.882l.044-.294q.056-.288.17-.566l.001.001a3 3 0 0 1 .277-.517l.001-.003q.165-.247.373-.454l.004-.003q.206-.208.455-.374a3 3 0 0 1 1.083-.448l.002-.001q.29-.058.586-.057Zm35.365-22.796v3.813h-25.139v-3.813zm0 12.501v3.813h-25.139v-3.813zm0 11.766v3.813h-25.139v-3.813z"/><path fill="#5f3ea7" d="M141.972 46.466c1.125 5.11 3.112 8.903 5.996 10.97 3.768-.972 6.308-5.468 7.193-9.114-2.863-3.183-7.501-4.029-13.189-1.856m24.18.764c1.126 5.109 3.112 8.903 5.996 10.97 3.768-.973 6.309-5.469 7.194-9.115-2.864-3.183-7.501-4.028-13.19-1.856"/><path fill="#6f4bbb" d="M144.187 47.54c.637 2.971 2.034 5.909 4.185 7.853l.041-8.4c-1.378-.06-2.811.195-4.226.547m24.181.764c.637 2.971 2.034 5.909 4.185 7.853l.041-8.401c-1.378-.059-2.811.196-4.226.548"/><path fill="#5f3ea7" d="M152.114 47.498c1.19 4.542 2.548 8.498 6.409 12.06 5.424-2.125 9.314-5.8 10.353-10.736-3.794-5.344-10.512-4.96-16.762-1.324"/><path fill="#6f4bbb" d="m158.971 57.456 1.949-10.913c-2.192-.016-4.527.702-6.687 1.793.989 3.415 2.174 6.39 4.738 9.12"/></svg>