<svg xmlns="http://www.w3.org/2000/svg" width="247" height="158" fill="none" viewBox="0 0 247 158"><g clip-path="url(#a)"><path fill="#6f4bbb" d="M105.506 120.04h-25.74v22.527h25.27c3.996-1.763 7.287-4.27 9.677-7.208-.941-4.859-4.427-11.205-9.207-15.319"/><path fill="#7d5dc2" d="M104.017 121.921c3.408 3.526 6.778 7.796 7.914 12.654-2.037 2.429-4.702 4.31-7.562 5.681H82.743v-18.335z"/><path fill="#9478cf" d="M109.971 129.601c.666.94 1.92 4.74 1.998 4.975-2.037 2.429-4.701 4.31-7.561 5.681H92.89v-9.834c5.68-.039 11.361-.313 17.081-.822"/><path fill="#5f3ea7" d="M105.623 137.788c-2.664.901-3.918 2.586-4.309 4.78h9.285c-.627-1.881-2.39-4.192-4.976-4.78"/><path fill="#6f4bbb" d="M105.661 138.807c1.45.391 2.664 1.528 3.448 2.82h-3.487v-2.82z"/><path fill="#5f3ea7" d="M96.455 137.239c-3.565.98-5.289 3.37-5.72 5.328h12.38c-.823-2.076-3.33-4.858-6.66-5.328"/><path fill="#6f4bbb" d="M96.535 138.219c1.959.352 3.878 1.724 5.014 3.408h-5.093v-3.408zM48.894 120.04h25.74v22.527h-25.27c-3.996-1.763-7.287-4.27-9.677-7.208.901-4.859 4.388-11.205 9.207-15.319"/><path fill="#7d5dc2" d="M50.343 121.921c-3.408 3.526-6.778 7.796-7.914 12.654 2.037 2.429 4.701 4.31 7.561 5.681h21.627v-18.335z"/><path fill="#9478cf" d="M44.427 129.601c-.666.94-1.92 4.74-1.998 4.975 2.037 2.429 4.701 4.31 7.561 5.681h11.52v-9.834a208 208 0 0 1-17.082-.822"/><path fill="#5f3ea7" d="M48.737 137.788c2.664.901 3.918 2.586 4.31 4.78H43.76c.627-1.881 2.39-4.192 4.976-4.78"/><path fill="#6f4bbb" d="M48.698 138.807c-1.45.391-2.664 1.528-3.447 2.82h3.486v-2.82z"/><path fill="#5f3ea7" d="M57.904 137.239c3.565.98 5.289 3.37 5.72 5.328h-12.38c.822-2.076 3.33-4.858 6.66-5.328"/><path fill="#6f4bbb" d="M57.865 138.219c-1.959.352-3.879 1.724-5.015 3.408h5.093v-3.408z"/><path fill="#5f3ea7" d="M146.014 126.975c-.156 4.113-1.097 7.326-2.899 9.324-2.821-.235-5.21-3.369-6.307-6.073 1.645-2.86 4.858-4.152 9.206-3.251"/><path fill="#6f4bbb" d="M144.566 128.111c-.079 2.39-.705 4.858-1.998 6.661l-1.097-6.504c.979-.235 2.037-.235 3.095-.157"/><path fill="#5f3ea7" d="M138.885 129.169c-.274 3.682-.744 6.934-3.056 10.225-4.152-.901-7.404-3.213-8.775-6.895 2.037-4.662 6.895-5.289 11.831-3.33"/><path fill="#6f4bbb" d="m135.24 137.827-2.781-8.189c1.567-.313 3.33-.078 5.015.471-.275 2.781-.745 5.249-2.234 7.718"/><path fill="#5f3ea7" d="M125.251 132.185c-.706 4.192-4.662 6.268-6.661 6.151-.901-1.528-1.802-3.526-1.802-5.916l1.724-1.449c2.625-.51 5.407-.314 6.739 1.214"/><path fill="#6f4bbb" d="M119.296 136.926c-.783-1.175-1.293-2.977-1.371-4.701l2.821-.47z"/><path fill="#6f4bbb" d="M116.749 76.005v56.377c9.755 1.214 21.116.822 29.265-5.446-.156-5.25-.666-10.382-1.606-15.279-1.763-8.855-5.093-16.925-10.852-23.546-5.093-5.838-10.186-8.62-16.807-12.106"/><path fill="#9478cf" d="M143.273 125.643c-5.093 3.918-17.317 5.133-23.742 4.31V80.55c16.572 8.815 23.154 25.074 23.742 45.093"/><path fill="#a58dd4" d="M143.273 125.643c-2.586 1.998-6.974 3.251-11.558 3.957-.666-12.576-.587-31.5 2.233-36.514 6.151 8.737 8.933 19.902 9.325 32.557"/><path fill="#9478cf" d="M131.716 117.259a3.863 3.863 0 0 0-3.879 3.878 3.863 3.863 0 0 0 3.879 3.879 3.86 3.86 0 0 0 3.878-3.879 3.86 3.86 0 0 0-3.878-3.878"/><path fill="#6f4bbb" d="M122.47 32.047c1.136-7.326-.118-11.126-1.606-17.825-4.663 3.878-7.64 6.66-13.321 9.52-1.136-7.091-3.643-13.79-7.287-20.06L98.101 0C89.796 6.268 82.704 11.283 77.22 19.589 71.735 11.283 64.644 6.269 56.338 0l-2.155 3.683c-3.643 6.268-6.15 12.968-7.287 20.059-5.68-2.86-8.658-5.642-13.32-9.52-1.528 6.66-2.743 10.46-1.607 17.825l-10.264 2.821c2.037 26.798 4.114 49.638 6.738 76.436.353 3.683.745 7.404 1.137 11.087.117 1.058 1.41 2.978 6.895 3.017 26.797 1.802 54.849 1.802 81.607 0 5.485-.079 6.778-1.959 6.895-3.017.392-3.761.784-7.522 1.136-11.283.157-1.528.314-3.056.471-4.623 2.233-23.898 4.427-47.718 6.268-71.656l-10.265-2.82h-.117z"/><path fill="#9478cf" d="M96.965 5.603c4.427 7.522 6.896 15.475 7.366 23.702 4.544-1.724 9.716-4.545 14.182-8.188.901 3.996.705 9.207-.509 13.751 3.761.862 7.248 1.763 10.734 2.782-1.88 24.604-3.643 49.207-6.072 73.732-.235 2.429-.745 7.679-1.019 10.108-.979.549-3.016.549-3.839.588a610 610 0 0 1-81.176 0c-.862-.079-2.86-.079-3.84-.588-.274-2.39-.783-7.757-1.018-10.108-2.39-24.564-4.192-49.168-6.073-73.732a186 186 0 0 1 10.735-2.782c-1.215-4.544-1.41-9.755-.51-13.751 4.427 3.683 9.638 6.464 14.183 8.188.47-8.188 2.938-16.18 7.365-23.702 9.011 6.817 14.927 11.753 19.746 21.626 4.858-9.873 10.734-14.81 19.784-21.626z"/><path fill="#a58dd4" d="M96.965 5.603c-.666 10.93-3.408 23.075-8.58 28.168 6.896-.744 10.578-1.567 15.906-4.466 4.584-1.724 9.756-4.545 14.222-8.188-2.39 7.209-4.701 12.34-9.442 17.356 4.035-.079 6.347-1.41 8.933-3.605 3.761.862 7.248 1.763 10.734 2.782-1.88 24.604-3.643 49.207-6.072 73.732-.235 2.429-.745 7.679-1.019 10.108-.979.549-3.016.549-3.839.588a609 609 0 0 1-40.588 1.332v-14.653c20.92 1.646 40.039-31.342 18.06-53.007l4.388 2.429c.549-3.487-.548-7.836-1.998-11.361-2.86-6.857-10.46-11.95-20.45-13.164v-6.465c4.858-9.872 10.695-14.809 19.745-21.586"/><path fill="#7d5dc2" d="M45.368 38.473c-4.701-5.015-7.052-10.186-9.442-17.395-.901 3.996-.705 9.207.51 13.751 2.585 2.233 4.897 3.565 8.932 3.644m7.953-2.038a4.24 4.24 0 0 0-4.231 4.232c0 2.35 1.92 4.23 4.231 4.23 2.35 0 4.231-1.919 4.231-4.23s-1.92-4.232-4.231-4.232m-15.475 9.56a2.96 2.96 0 0 0-2.938 2.938 2.96 2.96 0 0 0 2.938 2.938 2.96 2.96 0 0 0 2.938-2.938 2.91 2.91 0 0 0-2.938-2.938m28.169-12.263c-5.172-5.054-7.914-17.199-8.58-28.169-4.427 7.523-6.896 15.476-7.366 23.703 5.368 2.9 9.05 3.722 15.946 4.466"/><path fill="#9478cf" d="M115.614 42.586c-3.84 0-6.974 3.134-6.974 6.974 0 3.839 3.134 6.973 6.974 6.973 3.839 0 6.973-3.134 6.973-6.973s-3.134-6.974-6.973-6.974m4.505 21.391a2.793 2.793 0 0 0-2.782 2.782 2.793 2.793 0 0 0 2.782 2.781 2.793 2.793 0 0 0 2.782-2.781 2.793 2.793 0 0 0-2.782-2.782"/><path fill="#d3e8ef" d="M76.75 46.387c-16.573 0-30.01 13.438-30.01 30.01s13.437 30.01 30.01 30.01c16.571 0 30.009-13.438 30.009-30.01s-13.438-30.01-30.01-30.01"/><path fill="#fff" d="M50.578 69.58c2.625-11.283 11.636-20.137 22.998-22.527 12.38-.94 22.41 7.718 22.41 19.51 0 11.872-10.187 22.41-22.685 23.507-12.537 1.097-22.684-7.6-22.684-19.51-.039-.314-.039-.666-.039-.98"/><path fill="#ea4e64" d="M89.05 64.878c9.364 0 16.925 7.561 16.925 16.925 0 9.363-7.56 16.925-16.924 16.925s-16.925-7.562-16.925-16.925c0-9.325 7.561-16.925 16.925-16.925"/><path fill="#ec6277" d="M89.05 64.878c2.468 0 4.819.51 6.934 1.489v.196c0 11.557-9.637 21.86-21.783 23.428a17 17 0 0 1-2.115-8.188c0-9.364 7.561-16.925 16.964-16.925"/><path fill="#232323" d="M89.052 70.833a10.993 10.993 0 0 1 11.008 11.009A10.993 10.993 0 0 1 89.052 92.85a10.994 10.994 0 0 1-11.01-11.01 10.994 10.994 0 0 1 11.01-11.008"/><path fill="#323232" d="M89.05 70.833c2.234 0 4.31.666 6.034 1.802-2.116 7.013-7.68 12.968-14.81 15.789a11.07 11.07 0 0 1-2.193-6.582c-.04-6.073 4.858-11.009 10.97-11.009"/><path fill="#fff" d="M77.062 69.15a6.92 6.92 0 0 1 6.934 6.934 6.92 6.92 0 0 1-6.934 6.934 6.92 6.92 0 0 1-6.935-6.934 6.92 6.92 0 0 1 6.935-6.935"/><path fill="#6f4bbb" d="M112.047 90.148c-8.54-4.701-21.39 3.526-20.45 16.847 8.149-2.508 16.964-10.187 20.45-16.847"/><path fill="#a58dd4" d="M112.047 90.148c-7.757.156-16.337 4.544-20.45 16.846 9.755-1.097 18.844-8.54 20.45-16.847"/><path fill="#7d5dc2" d="M108.012 101.274c-1.136-.392-6.464-.274-6.895.314-.509.705.901 4.309 2.39 6.66 1.959-1.567 3.565-3.722 4.505-6.974"/><path fill="#fff" d="M109.58 99.981c-1.136-.391-6.465-.274-6.895.314-.51.705.901 4.309 2.389 6.66 1.959-1.567 3.566-3.722 4.506-6.974"/><path fill="#6f4bbb" d="M107.973 98.14c-.352 7.561-10.225 14.848-19.589 12.145-.509 2.194.98 3.487 2.508 3.8 8.501.744 16.689-4.623 19.393-11.479.783-1.881-.079-4.231-2.312-4.466m1.608 14.182c-2.351 4.427-6.033 6.504-10.069 7.17 5.76 2.586 10.853-.862 10.069-7.17"/><path fill="#9478cf" d="M105.7 113.38c-4.623 2.586-9.01 3.408-14.103 2.938 3.721 2.468 11.008 2.743 14.103-2.938"/><path fill="#5f3ea7" d="M66.366 37.884c9.285-16.063 33.732-6.7 31.264 11.323-6.112-10.108-17.904-13.4-31.264-11.323"/><path fill="#6f4bbb" d="M66.368 37.886c5.25-9.05 16.298-9.638 23.702-4.662.04 2.115-.587 3.643-1.723 4.858-5.995-2.9-13.83-4.075-21.98-.196M17.748 98.964C7.992 98.964 0 106.799 0 116.594s7.992 17.63 17.748 17.63 17.747-7.836 17.747-17.63c0-9.795-7.992-17.63-17.747-17.63"/><path fill="#9478cf" d="M17.748 101.549c-8.384 0-15.162 6.738-15.162 15.005 0 8.306 6.778 15.005 15.162 15.005s15.162-6.739 15.162-15.005-6.817-15.005-15.162-15.005"/><path fill="#a58dd4" d="M17.747 101.549c-5.955 0-11.087 3.408-13.595 8.345-.548 7.835 9.011 13.594 15.397 10.891 4.701-2.546 7.953-7.522 7.953-13.203 0-.94-.078-1.841-.274-2.742-2.625-2.037-5.916-3.291-9.481-3.291"/><path fill="#2b3039" d="M23.937 114.242c.705-2.155-7.366-4.858-8.11-2.703l-7.992 23.937c-.705 2.155 7.365 4.858 8.11 2.703z"/><path fill="#5f3ea7" d="M12.34 111.813c3.174 1.959 5.8 3.879 7.68 7.444-2.704 3.291-6.269 5.093-10.186 4.623-3.174-3.996-1.528-8.58 2.507-12.067"/><path fill="#6f4bbb" d="M9.872 117.298c.47-1.372 1.332-2.664 2.43-3.918 2.428 1.567 4.426 3.252 5.954 5.681-1.684.156-4.31-.275-8.384-1.763"/><path fill="#5f3ea7" d="M9.285 121.411c3.174 1.959 5.799 3.879 7.68 7.444-2.704 3.291-6.27 5.093-10.187 4.623-3.173-3.996-1.528-8.58 2.507-12.067"/><path fill="#6f4bbb" d="M6.816 126.505c.47-1.372 1.332-2.664 2.429-3.918 2.429 1.567 4.427 3.252 5.955 5.681-1.685.196-4.31-.275-8.384-1.763"/><path fill="#5f3ea7" d="M25.818 122.352c-3.017-.744-5.68-1.214-8.933-.274-.391 3.526.588 6.738 3.135 8.776 4.23-.353 6.033-4.036 5.798-8.502"/><path fill="#6f4bbb" d="M23.976 126.623c.549-1.097.823-2.351.94-3.722-2.35-.549-4.505-.784-6.895-.274.862 1.136 2.665 2.429 5.955 3.996"/><path fill="#393f4c" d="M31.851 57.513c16.024.9 28.287 14.652 27.385 30.676-.9 16.023-14.652 28.286-30.676 27.385-16.023-.901-28.286-14.653-27.385-30.676.901-16.024 14.613-28.287 30.676-27.385"/><path fill="#d3e8ef" d="M31.616 61.117c14.025.784 24.799 12.85 24.016 26.916-.784 14.025-12.85 24.799-26.916 23.976-14.025-.783-24.8-12.85-24.016-26.915.823-14.025 12.85-24.8 26.916-23.977"/><path fill="#fff" d="M10.813 99.16A23.3 23.3 0 0 1 7.09 85.211c.588-10.147 7.6-18.413 16.886-20.96.744 8.776 1.527 17.395 2.35 26.249-3.095 1.254-11.087 5.25-15.514 8.658m21.196-35.22c12.224.705 21.587 11.165 20.843 23.389-.118 1.724-.392 3.408-.862 4.975a10 10 0 0 0 .078-1.097c.784-14.182-10.03-26.327-24.212-27.15h-.117c1.371-.117 2.82-.196 4.27-.117"/><path fill="#999" d="M51.989 99.746q-.706 1.176-1.528 2.233l-7.523-10.421-17.316 7.209-10.03-20.725-10.068 1.92c.274-.94.548-1.881.9-2.782l10.579-2.037 9.833 20.333 16.925-7.052z"/><path fill="#1ec185" d="M43.682 84.741a5.225 5.225 0 0 0-5.524 4.937 5.225 5.225 0 0 0 4.937 5.524 5.225 5.225 0 0 0 5.524-4.937c.196-2.86-2.038-5.328-4.937-5.524"/><path fill="#ea4e64" d="M16.611 71.383a5.225 5.225 0 0 0-5.524 4.936 5.225 5.225 0 0 0 4.936 5.524 5.225 5.225 0 0 0 5.525-4.936c.195-2.9-2.038-5.367-4.937-5.524"/><path fill="#ff893a" d="M26.562 91.911a5.226 5.226 0 0 0-5.524 4.937 5.226 5.226 0 0 0 4.936 5.524 5.226 5.226 0 0 0 5.524-4.937c.196-2.899-2.037-5.367-4.936-5.524"/><g clip-path="url(#b)"><path fill="#fff" stroke="#84868a" d="M115 80.5h124a7.5 7.5 0 0 1 7.5 7.5v56a7.5 7.5 0 0 1-7.5 7.5H115a7.5 7.5 0 0 1-7.5-7.5V88a7.5 7.5 0 0 1 7.5-7.5Z"/><mask id="c" width="97" height="17" x="118" y="121" maskUnits="userSpaceOnUse" style="mask-type:luminance"><path fill="#fff" d="M118.861 121.658h95.278v16.293h-95.278z"/></mask><g mask="url(#c)"><path fill="#fff" d="M213.847 137.743h-94.949v-16.055h94.949z"/></g><mask id="d" width="97" height="17" x="118" y="121" maskUnits="userSpaceOnUse" style="mask-type:luminance"><path fill="#fff" d="M118.667 121.269h95.472v16.682h-95.472z"/></mask><g mask="url(#d)"><path fill="#009fe3" d="M213.636 137.537h-94.527v-15.638h94.527zm-94.951-16.055v16.47h95.375v-16.47z"/></g><mask id="e" width="23" height="17" x="213" y="121" maskUnits="userSpaceOnUse" style="mask-type:luminance"><path fill="#fff" d="M213.938 121.279h21.388v16.673h-21.388z"/></mask><g mask="url(#e)"><path fill="#0083f4" d="M235.326 137.952h-21.309v-16.47h21.309z"/></g><path fill="#fff" d="M224.118 131.191a3.7 3.7 0 0 1-.781.145 4 4 0 0 1-.807-.061 3.6 3.6 0 0 1-.746-.264 3.6 3.6 0 0 1-.638-.433 3.6 3.6 0 0 1-.501-.573 3.5 3.5 0 0 1-.337-.683 3.3 3.3 0 0 1-.147-.762q-.017-.4.063-.788a3.3 3.3 0 0 1 .268-.731 3.6 3.6 0 0 1 .443-.623q.267-.276.587-.489c.218-.135.454-.246.698-.331.254-.076.517-.124.78-.145q.203-.007.405.009.204.015.401.053.39.09.748.263.344.183.638.433.282.26.501.574.208.323.337.683.118.372.149.761a3.5 3.5 0 0 1-.064.789 3.5 3.5 0 0 1-.268.731 3.6 3.6 0 0 1-.444.622 3.5 3.5 0 0 1-.586.489 3.6 3.6 0 0 1-.699.331m6.837 2.945-4.329-3.721.047-.078c.106-.19.205-.386.281-.591.077-.208.131-.421.173-.638.082-.402.087-.818.037-1.225a3.87 3.87 0 0 0-.985-2.105 4 4 0 0 0-2.032-1.202 4.09 4.09 0 0 0-3.543.782c-.17.138-.32.29-.466.45a3.86 3.86 0 0 0 .2 5.386c.158.148.324.291.502.414.18.124.37.228.565.324.367.182.767.294 1.172.356a4.1 4.1 0 0 0 3.116-.824l4.323 3.715c.186.161.491.118.681-.093l.251-.278c.19-.21.194-.512.007-.672"/><path fill="#0183f4" d="M142.716 106.623c.405 1.75 1.666 2.586 3.77 2.586 2.162 0 3.058-.9 3.058-2.215 0-1.436-.811-2.13-3.84-2.829-4.342-1.007-5.551-2.522-5.551-4.758 0-2.704 2.061-4.654 5.942-4.654 4.283 0 6.007 2.303 6.241 4.611h-3.167c-.218-1.16-.91-2.286-3.163-2.286-1.662 0-2.636.696-2.636 1.992 0 1.273.79 1.784 3.57 2.422 4.831 1.125 5.82 2.909 5.82 5.144 0 2.864-2.203 4.916-6.511 4.916-4.229 0-6.32-2.112-6.701-4.929z"/><path fill="#ff493c" d="M163.191 103.996c-.024-1.611-.753-2.941-2.579-2.941-1.829 0-2.593 1.24-2.757 2.941zm-5.409 1.867c.007 1.84.952 3.415 2.798 3.415 1.612 0 2.096-.706 2.447-1.492h3.013c-.458 1.509-1.807 3.829-5.542 3.829-4.032 0-5.745-3.031-5.745-6.197 0-3.742 1.953-6.517 5.873-6.517 4.18 0 5.585 3.061 5.585 5.944 0 .396 0 .678-.041 1.018z"/><path fill="#ffc903" d="M175.707 105.67h-1.605c-2.211 0-3.166.635-3.166 1.988 0 1.009.664 1.809 2 1.809 2.458 0 2.771-1.648 2.771-3.454zm2.931 2.687c0 1.141.097 2.662.17 2.974h-2.873c-.096-.251-.168-.87-.184-1.323-.445.726-1.34 1.607-3.608 1.607-2.974 0-4.233-1.906-4.233-3.776 0-2.748 2.24-4.014 5.901-4.014h1.889v-.84c0-.933-.327-1.936-2.17-1.936-1.662 0-1.99.738-2.172 1.641h-2.869c.18-1.996 1.441-3.805 5.151-3.788 3.231.016 4.998 1.266 4.998 4.114z"/><path fill="#0a79dc" d="M181.957 102.482c0-1.372-.006-2.405-.023-3.297h2.947c.041.296.082 1.416.082 2.25.582-1.474 1.96-2.505 4.055-2.534v2.834c-2.516-.018-4.055.857-4.055 4.098v5.498h-3.006z"/><path fill="#30a66e" d="M201.366 107.476c-.461 2.047-1.914 4.139-5.437 4.139-3.715 0-5.749-2.546-5.749-6.276 0-3.535 2.155-6.438 5.912-6.438 3.986 0 5.176 2.79 5.274 4.229h-2.944c-.244-1.073-.891-1.892-2.386-1.892-1.785 0-2.795 1.514-2.795 4.003 0 2.647 1.033 4.054 2.757 4.054 1.308 0 2.032-.726 2.408-1.819z"/><mask id="f" width="12" height="18" x="203" y="94" maskUnits="userSpaceOnUse" style="mask-type:luminance"><path fill="#fff" d="M203.25 94.049h11.278v17.463H203.25z"/></mask><g mask="url(#f)"><path fill="#ff453c" d="M206.625 94.049v6.69c.576-.88 1.624-1.838 3.668-1.838 2.208 0 4.169 1.248 4.169 4.651v7.779h-2.988v-7.328c0-1.744-.682-2.686-2.246-2.686-2.022 0-2.603 1.41-2.603 3.503v6.511h-3.006V94.049z"/></g></g><path fill="#5f3ea7" d="M156.971 156.266c1.126-5.11 3.113-8.903 5.997-10.97 3.768.972 6.308 5.468 7.193 9.114-2.863 3.183-7.501 4.028-13.19 1.856m24.181-.764c1.126-5.109 3.112-8.903 5.996-10.97 3.768.972 6.309 5.468 7.194 9.114-2.864 3.183-7.501 4.029-13.19 1.856"/><path fill="#6f4bbb" d="M159.187 155.191c.637-2.971 2.034-5.909 4.185-7.853l.041 8.401c-1.378.059-2.811-.195-4.226-.548m24.181-.763c.637-2.972 2.034-5.909 4.185-7.853l.041 8.4c-1.378.059-2.811-.195-4.226-.547"/><path fill="#5f3ea7" d="M167.114 155.233c1.19-4.542 2.548-8.498 6.409-12.06 5.424 2.126 9.314 5.8 10.353 10.737-3.794 5.344-10.512 4.96-16.762 1.323"/><path fill="#6f4bbb" d="m173.971 145.275 1.949 10.914c-2.192.015-4.527-.703-6.687-1.794.989-3.414 2.174-6.389 4.738-9.12"/></g><defs><clipPath id="a"><path fill="#fff" d="M0 0h247v158H0z"/></clipPath><clipPath id="b"><path fill="#fff" d="M107 80h140v72H107z"/></clipPath></defs></svg>