<svg xmlns="http://www.w3.org/2000/svg" width="248" height="55" fill="none" viewBox="0 0 248 55"><path fill="#6f4bbb" d="m16.509 42.485 8.33.001.005 7.076-8.178-.001c-1.294-.554-2.36-1.342-3.134-2.265.303-1.526 1.43-3.519 2.977-4.811"/><path fill="#7d5dc2" d="M16.99 43.076c-1.102 1.107-2.191 2.448-2.558 3.974.66.763 1.523 1.354 2.449 1.785h6.999l-.004-5.758z"/><path fill="#9478cf" d="M15.066 45.489c-.216.295-.62 1.489-.646 1.562.66.763 1.523 1.354 2.449 1.785h3.727l-.002-3.088a70 70 0 0 1-5.528-.26"/><path fill="#5f3ea7" d="M16.475 48.062c.862.283 1.268.812 1.395 1.501h-3.005c.203-.59.773-1.317 1.61-1.501"/><path fill="#6f4bbb" d="M16.462 48.382c-.47.123-.862.48-1.115.886h1.128v-.886z"/><path fill="#5f3ea7" d="M19.441 47.89c1.154.307 1.713 1.058 1.853 1.673h-4.007c.266-.653 1.077-1.526 2.154-1.674"/><path fill="#6f4bbb" d="M19.415 48.197c-.634.11-1.255.541-1.622 1.07h1.648v-1.07zm15.413-5.713h-8.33l.004 7.075 8.179.001c1.293-.553 2.357-1.34 3.13-2.264-.293-1.526-1.423-3.52-2.983-4.812"/><path fill="#7d5dc2" d="M34.36 43.075c1.103 1.107 2.195 2.449 2.563 3.975-.658.763-1.52 1.353-2.446 1.784l-6.999-.001-.004-5.76z"/><path fill="#9478cf" d="M36.275 45.487c.215.296.622 1.49.647 1.563-.658.763-1.52 1.354-2.445 1.784h-3.728l-.002-3.089a69 69 0 0 0 5.528-.258"/><path fill="#5f3ea7" d="M34.88 48.06c-.862.282-1.267.812-1.393 1.5l3.005.001c-.204-.59-.775-1.317-1.612-1.501"/><path fill="#6f4bbb" d="M34.894 48.38c.47.122.863.48 1.117.886h-1.129v-.887z"/><path fill="#5f3ea7" d="M31.915 47.888c-1.154.307-1.711 1.058-1.85 1.673h4.006c-.267-.652-1.079-1.526-2.156-1.673"/><path fill="#6f4bbb" d="M31.927 48.195c.634.11 1.256.542 1.624 1.07h-1.649v-1.07z"/><path fill="#5f3ea7" d="M3.403 44.665c.051 1.292.356 2.302.94 2.93.913-.074 1.686-1.059 2.04-1.908-.533-.898-1.573-1.305-2.98-1.022"/><path fill="#6f4bbb" d="M3.872 45.022c.026.75.23 1.526.649 2.093l.353-2.044c-.317-.073-.66-.074-1.002-.049"/><path fill="#5f3ea7" d="M5.71 45.354c.09 1.157.242 2.179.991 3.213 1.344-.283 2.396-1.01 2.84-2.166-.661-1.465-2.234-1.662-3.831-1.047"/><path fill="#6f4bbb" d="m6.892 48.075.898-2.573c-.507-.098-1.078-.025-1.623.148.09.874.242 1.65.725 2.425"/><path fill="#5f3ea7" d="M10.122 46.302c.23 1.316 1.51 1.969 2.157 1.932.292-.48.583-1.108.582-1.858l-.558-.456c-.85-.16-1.75-.098-2.18.382"/><path fill="#6f4bbb" d="M12.05 47.791c.254-.37.418-.935.443-1.477l-.913-.148z"/><path fill="#6f4bbb" d="m12.866 28.649.013 17.713c-3.158.381-6.837.258-9.476-1.712.05-1.65.213-3.262.516-4.8.569-2.783 1.645-5.318 3.508-7.398 1.648-1.834 3.296-2.708 5.44-3.803"/><path fill="#9478cf" d="M4.29 44.244c1.65 1.231 5.608 1.613 7.688 1.355l-.011-15.523c-5.364 2.77-7.491 7.878-7.677 14.168"/><path fill="#a58dd4" d="M4.29 44.245c.838.628 2.26 1.022 3.744 1.244.213-3.952.183-9.898-.731-11.473-1.99 2.745-2.888 6.253-3.012 10.23"/><path fill="#9478cf" d="M8.028 41.611c.698 0 1.256.542 1.256 1.219s-.557 1.218-1.254 1.218c-.698 0-1.256-.541-1.256-1.218s.557-1.219 1.254-1.219"/><path fill="#6f4bbb" d="M11 14.83c-.37-2.301.036-3.495.516-5.6 1.51 1.22 2.474 2.093 4.314 2.992.366-2.228 1.176-4.332 2.354-6.301l.697-1.157c2.69 1.97 4.986 3.545 6.763 6.155 1.774-2.61 4.068-4.184 6.755-6.153l.698 1.157c1.181 1.97 1.995 4.074 2.364 6.302 1.838-.898 2.801-1.772 4.31-2.99.496 2.092.89 3.286.523 5.6l3.324.887c-.654 8.418-1.32 15.594-2.164 24.012-.113 1.157-.24 2.327-.365 3.484-.038.332-.456.935-2.231.947a205.5 205.5 0 0 1-26.416-.004c-1.776-.025-2.194-.616-2.233-.948a335 335 0 0 1-.37-3.545l-.153-1.452c-.729-7.508-1.444-14.992-2.046-22.512l3.322-.886H11z"/><path fill="#9478cf" d="M19.25 6.524c-1.432 2.363-2.23 4.861-2.38 7.446a17.2 17.2 0 0 1-4.592-2.573c-.29 1.255-.226 2.892.168 4.32-1.217.27-2.346.554-3.474.874.614 7.73 1.19 15.459 1.982 23.164.077.763.243 2.412.332 3.175.318.173.977.173 1.243.185 8.726.568 17.552.569 26.277.004.279-.025.925-.025 1.242-.184.088-.751.252-2.437.328-3.176.768-7.717 1.345-15.446 1.948-23.164a62 62 0 0 0-3.475-.874c.392-1.428.454-3.065.162-4.32-1.433 1.157-3.119 2.03-4.59 2.572-.153-2.573-.954-5.084-2.389-7.447-2.915 2.141-4.829 3.692-6.386 6.793-1.575-3.102-3.479-4.653-6.41-6.795z"/><path fill="#a58dd4" d="M19.253 6.524c.218 3.434 1.109 7.25 2.785 8.85-2.233-.233-3.426-.492-5.151-1.403a17.1 17.1 0 0 1-4.607-2.573c.776 2.265 1.525 3.877 3.061 5.453-1.307-.025-2.055-.443-2.893-1.133-1.218.27-2.346.554-3.475.874.614 7.73 1.19 15.461 1.983 23.167.076.764.242 2.413.332 3.176.317.173.977.173 1.243.185 4.364.284 8.753.42 13.142.42l-.003-4.604c-6.774.517-12.971-9.85-5.86-16.656l-1.42.763c-.179-1.095.176-2.462.644-3.57.925-2.153 3.384-3.753 6.619-4.135l-.002-2.03c-1.575-3.103-3.466-4.654-6.398-6.784"/><path fill="#7d5dc2" d="M35.958 16.847c1.52-1.575 2.28-3.2 3.052-5.465.293 1.256.23 2.893-.161 4.32-.837.702-1.585 1.12-2.891 1.145m-2.575-.64c.76 0 1.37.603 1.37 1.33.001.738-.62 1.328-1.368 1.328-.761 0-1.37-.603-1.37-1.33-.001-.725.62-1.329 1.368-1.328m5.012 3.004c.52 0 .951.418.952.923 0 .505-.431.923-.95.923-.52 0-.953-.419-.953-.923 0-.517.418-.923.95-.923m-9.122-3.854c1.673-1.588 2.558-5.404 2.771-8.85 1.435 2.364 2.236 4.862 2.39 7.447-1.737.91-2.929 1.17-5.16 1.403"/><path fill="#9478cf" d="M13.227 18.144c1.243 0 2.258.985 2.26 2.191 0 1.207-1.014 2.191-2.257 2.191s-2.258-.985-2.26-2.191c0-1.207 1.014-2.191 2.257-2.191m-1.454 6.72c.495 0 .9.395.901.875 0 .48-.405.874-.9.874-.494 0-.9-.394-.9-.875-.001-.48.404-.873.9-.873"/><path fill="#d3e8ef" d="M25.802 19.34c5.364 0 9.717 4.222 9.72 9.429s-4.342 9.427-9.706 9.426-9.717-4.223-9.72-9.43c-.005-5.206 4.342-9.426 9.706-9.426"/><path fill="#fff" d="M16.348 26.624c.847-3.545 3.762-6.326 7.439-7.076 4.006-.295 7.255 2.426 7.258 6.13.002 3.73-3.292 7.04-7.337 7.384-4.058.344-7.344-2.39-7.347-6.13-.013-.1-.013-.21-.013-.308"/><path fill="#ea4e64" d="M28.797 25.149c3.03 0 5.48 2.376 5.482 5.318s-2.443 5.316-5.474 5.316c-3.03 0-5.48-2.376-5.482-5.318-.002-2.93 2.443-5.317 5.474-5.316"/><path fill="#ec6277" d="M28.797 25.149c.8 0 1.56.16 2.245.468v.061c.003 3.631-3.114 6.868-7.045 7.36a5.2 5.2 0 0 1-.687-2.573c-.002-2.942 2.444-5.317 5.487-5.316"/><path fill="#232323" d="M28.799 27.02c1.965 0 3.564 1.538 3.566 3.458.001 1.908-1.583 3.459-3.561 3.458-1.966 0-3.565-1.539-3.566-3.459-.002-1.907 1.582-3.458 3.56-3.458"/><path fill="#323232" d="M28.798 27.02c.723 0 1.395.209 1.953.566-.683 2.203-2.482 4.073-4.79 4.96a3.4 3.4 0 0 1-.711-2.069c-.014-1.907 1.57-3.458 3.548-3.458"/><path fill="#fff" d="M24.92 26.49c1.242 0 2.245.973 2.246 2.179s-1 2.178-2.243 2.178-2.246-.973-2.247-2.179 1-2.178 2.243-2.178"/><path fill="#6f4bbb" d="M14.387 33.09c2.764-1.476 6.925 1.109 6.624 5.293-2.639-.788-5.494-3.2-6.624-5.293"/><path fill="#a58dd4" d="M14.387 33.09c2.511.05 5.289 1.429 6.623 5.293-3.157-.345-6.101-2.684-6.623-5.293"/><path fill="#7d5dc2" d="M15.695 36.587c.368-.123 2.092-.086 2.232.098.165.222-.29 1.354-.772 2.093-.634-.493-1.155-1.17-1.46-2.191"/><path fill="#fff" d="M15.188 36.18c.368-.123 2.092-.085 2.232.1.165.22-.29 1.353-.772 2.091-.634-.492-1.155-1.169-1.46-2.19"/><path fill="#6f4bbb" d="M15.707 35.602c.116 2.375 3.313 4.665 6.343 3.816.165.689-.317 1.095-.811 1.193-2.751.234-5.403-1.453-6.28-3.606-.253-.591.025-1.33.748-1.403m-.517 4.457c.761 1.39 1.954 2.043 3.26 2.252-1.863.812-3.512-.27-3.26-2.252"/><path fill="#9478cf" d="M16.445 40.391c1.496.812 2.916 1.07 4.564.923-1.203.775-3.562.86-4.564-.923"/><path fill="#5f3ea7" d="M29.163 16.665c-3.009-5.046-10.919-2.106-10.116 3.555 1.976-3.174 5.792-4.208 10.116-3.555"/><path fill="#6f4bbb" d="M29.162 16.664c-1.7-2.843-5.276-3.027-7.671-1.465-.012.664.19 1.144.559 1.525 1.939-.91 4.474-1.279 7.112-.06M44.9 35.859c3.158 0 5.747 2.462 5.75 5.539.002 3.077-2.584 5.538-5.741 5.538-3.158 0-5.746-2.463-5.749-5.54s2.583-5.538 5.74-5.537"/><path fill="#9478cf" d="M44.902 36.671c2.713 0 4.909 2.118 4.91 4.715.002 2.609-2.19 4.713-4.904 4.713S40 43.98 39.998 41.384c-.003-2.597 2.202-4.713 4.904-4.713"/><path fill="#a58dd4" d="M44.902 36.67c1.927 0 3.589 1.072 4.402 2.622.179 2.462-2.914 4.27-4.981 3.421-1.523-.8-2.576-2.363-2.578-4.148 0-.295.026-.578.089-.861a5.1 5.1 0 0 1 3.068-1.034"/><path fill="#2b3039" d="M42.9 40.659c-.229-.677 2.383-1.526 2.625-.85l2.593 7.522c.228.677-2.384 1.526-2.625.849z"/><path fill="#5f3ea7" d="M46.653 39.896c-1.026.615-1.876 1.218-2.484 2.338.876 1.034 2.03 1.6 3.299 1.453 1.026-1.256.492-2.696-.815-3.791"/><path fill="#6f4bbb" d="M47.454 41.619c-.153-.431-.432-.837-.787-1.231-.786.492-1.432 1.021-1.926 1.784.545.05 1.395-.086 2.713-.553"/><path fill="#5f3ea7" d="M47.644 42.912c-1.027.615-1.876 1.218-2.484 2.338.876 1.034 2.03 1.6 3.298 1.453 1.026-1.255.493-2.696-.814-3.791"/><path fill="#6f4bbb" d="M48.444 44.512c-.152-.43-.432-.837-.787-1.23-.786.491-1.432 1.02-1.926 1.783.545.062 1.395-.086 2.713-.553"/><path fill="#5f3ea7" d="M42.293 43.208c.977-.234 1.839-.382 2.892-.086.127 1.108-.19 2.117-1.013 2.757-1.37-.111-1.954-1.268-1.879-2.671"/><path fill="#6f4bbb" d="M42.892 44.549c-.178-.345-.267-.739-.305-1.17.76-.171 1.458-.245 2.231-.085-.278.357-.861.763-1.926 1.255"/><path fill="#393f4c" d="M40.33 22.834c-5.186.282-9.152 4.602-8.857 9.636.296 5.034 4.75 8.886 9.936 8.604s9.152-4.602 8.857-9.635c-.295-5.034-4.737-8.887-9.936-8.605"/><path fill="#d3e8ef" d="M40.407 23.966c-4.54.246-8.024 4.036-7.767 8.455.257 4.406 4.165 7.791 8.717 7.533 4.54-.245 8.024-4.036 7.768-8.454-.27-4.406-4.166-7.791-8.718-7.534"/><path fill="#fff" d="M47.148 35.917a7.15 7.15 0 0 0 1.202-4.382c-.193-3.188-2.465-5.786-5.472-6.586a968 968 0 0 1-.755 8.247c1.003.394 3.591 1.65 5.025 2.72m-6.865-11.064c-3.956.221-6.985 3.507-6.741 7.347a7 7 0 0 0 .28 1.563 3 3 0 0 1-.026-.344c-.257-4.456 3.24-8.27 7.831-8.529h.038a10 10 0 0 0-1.382-.037"/><path fill="#999" d="M33.823 36.1q.23.369.495.702l2.432-3.273 5.606 2.265 3.242-6.51 3.259.604c-.09-.295-.178-.59-.293-.874l-3.424-.64-3.178 6.386-5.479-2.216z"/><path fill="#1ec185" d="M36.508 31.389c.939-.05 1.738.64 1.79 1.55.051.912-.659 1.687-1.597 1.736-.938.05-1.738-.64-1.79-1.551-.063-.899.66-1.674 1.597-1.735"/><path fill="#ea4e64" d="M45.266 27.19c.938-.05 1.738.64 1.79 1.55.05.911-.659 1.686-1.597 1.735-.939.05-1.738-.64-1.79-1.55-.064-.911.659-1.687 1.597-1.736"/><path fill="#338eef" d="M42.049 33.641c.938-.049 1.738.64 1.79 1.551.05.911-.66 1.686-1.597 1.736-.939.049-1.738-.64-1.79-1.551-.064-.911.659-1.687 1.597-1.736"/><path fill="#23262e" d="M66.312 8.176q.336 0 .696.192.384.168.576.456l5.832 8.976-1.2-.048 5.976-8.928q.456-.648 1.176-.648.576 0 1.032.408t.456 1.056v13.896q0 .624-.408 1.056-.408.408-1.08.408t-1.104-.408a1.48 1.48 0 0 1-.408-1.056V12.232l.936.216-4.896 7.464a2 2 0 0 1-.552.456 1.07 1.07 0 0 1-.648.168 1.13 1.13 0 0 1-.648-.168 2.1 2.1 0 0 1-.528-.456l-4.584-7.248.624-1.272v12.144q0 .624-.384 1.056-.384.408-1.008.408-.6 0-.984-.408a1.53 1.53 0 0 1-.384-1.056V9.64q0-.6.432-1.032a1.52 1.52 0 0 1 1.08-.432M96.68 18.592q0 1.968-.888 3.48A6.2 6.2 0 0 1 93.44 24.4q-1.464.84-3.288.84t-3.312-.84a6.43 6.43 0 0 1-2.352-2.328q-.864-1.512-.864-3.48t.864-3.456a6.4 6.4 0 0 1 2.352-2.352q1.488-.864 3.312-.864t3.288.864a6.15 6.15 0 0 1 2.352 2.352q.888 1.488.888 3.456m-2.88 0q0-1.224-.504-2.112a3.53 3.53 0 0 0-1.32-1.416 3.4 3.4 0 0 0-1.824-.504q-1.008 0-1.848.504a3.76 3.76 0 0 0-1.32 1.416q-.48.888-.48 2.112 0 1.2.48 2.112a3.8 3.8 0 0 0 1.32 1.392q.84.504 1.848.504t1.824-.504q.84-.504 1.32-1.392.504-.912.504-2.112m12.265-6.672q1.776 0 2.688.744.936.744 1.272 1.992.36 1.224.36 2.736v6.144q0 .624-.408 1.056-.408.408-1.032.408t-1.032-.408a1.48 1.48 0 0 1-.408-1.056v-6.144q0-.792-.216-1.416a1.9 1.9 0 0 0-.72-1.032q-.528-.384-1.512-.384-.96 0-1.632.384-.648.384-1.008 1.032a2.94 2.94 0 0 0-.336 1.416v6.144q0 .624-.408 1.056-.408.408-1.032.408t-1.032-.408a1.48 1.48 0 0 1-.408-1.056v-9.912q0-.624.408-1.032a1.36 1.36 0 0 1 1.032-.432q.624 0 1.032.432.408.408.408 1.032v1.032l-.36-.072q.216-.408.624-.864.408-.48.96-.888a4.6 4.6 0 0 1 1.248-.648 4.2 4.2 0 0 1 1.512-.264m6.689 11.088q-.24-.336-.216-.864t.624-.912q.384-.24.816-.192.432.024.84.432.696.696 1.464 1.08t1.92.384q.36-.024.792-.096.432-.096.744-.384.336-.312.336-.936 0-.528-.36-.84t-.96-.528q-.576-.216-1.296-.408a41 41 0 0 1-1.536-.48 6.8 6.8 0 0 1-1.416-.672 3.4 3.4 0 0 1-1.056-1.128q-.408-.696-.408-1.752 0-1.2.672-2.04a4.4 4.4 0 0 1 1.728-1.296 5.7 5.7 0 0 1 2.256-.456q.744 0 1.56.192a5.6 5.6 0 0 1 1.56.576q.744.384 1.248 1.032.264.36.312.864t-.456.912q-.36.288-.84.264a1.33 1.33 0 0 1-.792-.336q-.408-.528-1.104-.84-.672-.312-1.56-.312-.36 0-.792.096a1.4 1.4 0 0 0-.72.36q-.312.264-.312.864 0 .552.36.888.36.312.96.528.624.192 1.32.384.72.192 1.464.456t1.368.696 1.008 1.128q.384.672.384 1.728 0 1.224-.72 2.088a4.66 4.66 0 0 1-1.8 1.32 5.9 5.9 0 0 1-2.208.432q-1.416 0-2.832-.48-1.416-.504-2.352-1.752M125.22 12.4h5.688q.576 0 .96.384t.384.96q0 .552-.384.936-.384.36-.96.36h-5.688q-.576 0-.96-.384a1.3 1.3 0 0 1-.384-.96q0-.552.384-.912.384-.384.96-.384m2.568-3q.624 0 1.008.432.408.408.408 1.032v10.68q0 .336.12.552a.84.84 0 0 0 .36.312q.24.096.504.096.288 0 .528-.096.24-.12.552-.12.336 0 .6.312.288.312.288.864 0 .672-.744 1.104-.72.432-1.56.432-.504 0-1.128-.072-.6-.096-1.152-.408-.528-.336-.888-1.008t-.36-1.848v-10.8q0-.624.408-1.032.432-.432 1.056-.432m13.039 15.84q-2.04 0-3.552-.84a6.1 6.1 0 0 1-2.304-2.328q-.792-1.464-.792-3.312 0-2.16.864-3.672.888-1.536 2.304-2.352a5.9 5.9 0 0 1 3-.816q1.224 0 2.304.504 1.104.504 1.944 1.392.84.864 1.32 2.016a6 6 0 0 1 .504 2.448 1.23 1.23 0 0 1-.456.936q-.432.36-1.008.36h-9.168l-.72-2.4h8.808l-.528.48v-.648a2.15 2.15 0 0 0-.504-1.248 2.96 2.96 0 0 0-1.104-.864 3 3 0 0 0-1.392-.336q-.72 0-1.344.192a2.6 2.6 0 0 0-1.08.648q-.456.456-.72 1.224t-.264 1.944q0 1.296.528 2.208a3.9 3.9 0 0 0 1.392 1.368 3.85 3.85 0 0 0 1.824.456q.888 0 1.416-.144t.84-.336q.336-.216.6-.36a1.8 1.8 0 0 1 .816-.216q.528 0 .864.36.36.36.36.84 0 .648-.672 1.176-.624.528-1.752.936a7.2 7.2 0 0 1-2.328.384m9.548-.24q-.624 0-1.032-.408a1.48 1.48 0 0 1-.408-1.056v-9.912q0-.624.408-1.032a1.36 1.36 0 0 1 1.032-.432q.624 0 1.032.432.408.408.408 1.032v2.256l-.168-1.608q.264-.576.672-1.008.432-.456.96-.744.528-.312 1.128-.456t1.2-.144q.72 0 1.2.408.504.408.504.96 0 .792-.408 1.152a1.37 1.37 0 0 1-.888.336q-.456 0-.84-.168a2 2 0 0 0-.84-.168q-.432 0-.888.216-.432.192-.816.624-.36.432-.6 1.08-.216.624-.216 1.488v5.688q0 .624-.408 1.056-.408.408-1.032.408"/><path fill="#338eef" d="M162.581 23.536q0 .624-.456 1.056a1.54 1.54 0 0 1-1.056.408q-.672 0-1.08-.408a1.48 1.48 0 0 1-.408-1.056V9.664q0-.624.432-1.032.432-.432 1.104-.432.576 0 1.008.432.456.408.456 1.032zm10.234-11.616q1.776 0 2.688.744.936.744 1.272 1.992.36 1.224.36 2.736v6.144q0 .624-.408 1.056-.408.408-1.032.408t-1.032-.408a1.48 1.48 0 0 1-.408-1.056v-6.144q0-.792-.216-1.416a1.9 1.9 0 0 0-.72-1.032q-.528-.384-1.512-.384-.96 0-1.632.384-.648.384-1.008 1.032a2.94 2.94 0 0 0-.336 1.416v6.144q0 .624-.408 1.056-.408.408-1.032.408t-1.032-.408a1.48 1.48 0 0 1-.408-1.056v-9.912q0-.624.408-1.032a1.36 1.36 0 0 1 1.032-.432q.624 0 1.032.432.408.408.408 1.032v1.032l-.36-.072q.216-.408.624-.864.408-.48.96-.888a4.6 4.6 0 0 1 1.248-.648 4.2 4.2 0 0 1 1.512-.264m6.689 11.088q-.24-.336-.216-.864t.624-.912q.384-.24.816-.192.432.024.84.432.696.696 1.464 1.08t1.92.384q.36-.024.792-.096.432-.096.744-.384.336-.312.336-.936 0-.528-.36-.84t-.96-.528q-.576-.216-1.296-.408a41 41 0 0 1-1.536-.48 6.8 6.8 0 0 1-1.416-.672 3.4 3.4 0 0 1-1.056-1.128q-.408-.696-.408-1.752 0-1.2.672-2.04a4.4 4.4 0 0 1 1.728-1.296 5.7 5.7 0 0 1 2.256-.456q.744 0 1.56.192a5.6 5.6 0 0 1 1.56.576q.744.384 1.248 1.032.264.36.312.864t-.456.912q-.36.288-.84.264a1.33 1.33 0 0 1-.792-.336q-.408-.528-1.104-.84-.672-.312-1.56-.312-.36 0-.792.096a1.4 1.4 0 0 0-.72.36q-.312.264-.312.864 0 .552.36.888.36.312.96.528.624.192 1.32.384.72.192 1.464.456t1.368.696 1.008 1.128q.384.672.384 1.728 0 1.224-.72 2.088a4.66 4.66 0 0 1-1.8 1.32 5.9 5.9 0 0 1-2.208.432q-1.416 0-2.832-.48-1.416-.504-2.352-1.752m15.034.528q0 .624-.408 1.056-.408.408-1.032.408t-1.032-.408a1.48 1.48 0 0 1-.408-1.056v-9.912q0-.624.408-1.032a1.36 1.36 0 0 1 1.032-.432q.624 0 1.032.432.408.408.408 1.032zM193.074 10.6q-.816 0-1.152-.264t-.336-.936v-.456q0-.696.36-.936.384-.264 1.152-.264.84 0 1.176.264t.336.936V9.4q0 .696-.36.96-.36.24-1.176.24m9.752 1.32a5.27 5.27 0 0 1 3.288 1.104q.624.48.96.984.36.48.36.816l-.624.312v-1.752q0-.624.408-1.032a1.36 1.36 0 0 1 1.032-.432q.624 0 1.032.408t.408 1.056v10.68q0 2.088-.912 3.336a4.9 4.9 0 0 1-2.352 1.824 8.5 8.5 0 0 1-3.144.576q-.48 0-1.248-.12t-1.464-.288a8 8 0 0 1-1.056-.312q-.72-.312-1.008-.792a1.17 1.17 0 0 1-.096-.984q.216-.696.696-.96.48-.24 1.008-.048.24.072.792.288t1.2.384q.672.192 1.176.192 1.8 0 2.664-.72t.864-1.992V22.36l.288.216q0 .312-.336.768-.312.432-.888.864a5.5 5.5 0 0 1-1.32.744 4.6 4.6 0 0 1-1.632.288q-1.704 0-3.072-.84a6.13 6.13 0 0 1-2.16-2.352q-.792-1.512-.792-3.456 0-1.968.792-3.456.792-1.512 2.136-2.352 1.344-.864 3-.864m.456 2.64q-1.08 0-1.896.528a3.6 3.6 0 0 0-1.272 1.44q-.456.912-.456 2.064 0 1.128.456 2.04a3.6 3.6 0 0 0 1.272 1.44q.816.528 1.896.528 1.104 0 1.92-.528a3.6 3.6 0 0 0 1.272-1.44q.456-.912.456-2.04 0-1.152-.456-2.064a3.6 3.6 0 0 0-1.272-1.44q-.816-.528-1.92-.528m16.264-2.64q1.728 0 2.616.744.912.744 1.248 1.992.336 1.224.336 2.736v6.144q0 .624-.408 1.056-.408.408-1.032.408t-1.032-.408a1.48 1.48 0 0 1-.408-1.056v-6.144q0-.792-.192-1.416a1.96 1.96 0 0 0-.696-1.032q-.504-.384-1.44-.384-.912 0-1.56.384t-.984 1.032a3.1 3.1 0 0 0-.312 1.416v6.144q0 .624-.408 1.056-.408.408-1.032.408t-1.032-.408a1.48 1.48 0 0 1-.408-1.056V8.704q0-.624.408-1.032a1.36 1.36 0 0 1 1.032-.432q.624 0 1.032.432.408.408.408 1.032v5.952l-.36-.072q.216-.408.6-.864.384-.48.936-.888a4.7 4.7 0 0 1 1.224-.648 4 4 0 0 1 1.464-.264m7.463.48h5.688q.576 0 .96.384t.384.96q0 .552-.384.936-.384.36-.96.36h-5.688q-.576 0-.96-.384a1.3 1.3 0 0 1-.384-.96q0-.552.384-.912.384-.384.96-.384m2.568-3q.624 0 1.008.432.408.408.408 1.032v10.68q0 .336.12.552a.84.84 0 0 0 .36.312q.24.096.504.096.288 0 .528-.096.24-.12.552-.12.336 0 .6.312.288.312.288.864 0 .672-.744 1.104-.72.432-1.56.432-.504 0-1.128-.072-.6-.096-1.152-.408-.528-.336-.888-1.008t-.36-1.848v-10.8q0-.624.408-1.032.432-.432 1.056-.432m6.833 13.608q-.24-.336-.216-.864t.624-.912q.384-.24.816-.192.432.024.84.432.696.696 1.464 1.08t1.92.384q.36-.024.792-.096.432-.096.744-.384.336-.312.336-.936 0-.528-.36-.84t-.96-.528q-.576-.216-1.296-.408a41 41 0 0 1-1.536-.48 6.8 6.8 0 0 1-1.416-.672 3.4 3.4 0 0 1-1.056-1.128q-.408-.696-.408-1.752 0-1.2.672-2.04a4.4 4.4 0 0 1 1.728-1.296 5.7 5.7 0 0 1 2.256-.456q.744 0 1.56.192a5.6 5.6 0 0 1 1.56.576q.744.384 1.248 1.032.264.36.312.864t-.456.912q-.36.288-.84.264a1.33 1.33 0 0 1-.792-.336q-.408-.528-1.104-.84-.672-.312-1.56-.312-.36 0-.792.096a1.4 1.4 0 0 0-.72.36q-.312.264-.312.864 0 .552.36.888.36.312.96.528.624.192 1.32.384.72.192 1.464.456t1.368.696 1.008 1.128q.384.672.384 1.728 0 1.224-.72 2.088a4.66 4.66 0 0 1-1.8 1.32 5.9 5.9 0 0 1-2.208.432q-1.416 0-2.832-.48-1.416-.504-2.352-1.752"/><path fill="#1ec185" d="M63 42a8 8 0 0 1 8-8h20a8 8 0 1 1 0 16H71a8 8 0 0 1-8-8"/><path fill="#fff" d="M72.094 42.962h-1.831v-1.055h1.83q.45 0 .728-.146a.95.95 0 0 0 .415-.41q.132-.264.132-.601 0-.328-.132-.61a1.06 1.06 0 0 0-.415-.46q-.278-.175-.727-.175h-1.392v6.05H69.36v-7.11h2.735q.83 0 1.416.298.59.293.898.816.313.518.313 1.181 0 .69-.313 1.187a2 2 0 0 1-.898.766q-.586.27-1.416.269m8.192 1.538v1.055h-3.574V44.5zm-3.169-6.055v7.11h-1.343v-7.11zm7.837 0h1.343v4.722q0 .816-.352 1.372a2.23 2.23 0 0 1-.957.835 3.3 3.3 0 0 1-1.377.278q-.78 0-1.391-.278a2.2 2.2 0 0 1-.957-.835q-.347-.556-.347-1.372v-4.722h1.343v4.722q0 .498.166.815.166.313.468.464t.718.152q.42 0 .718-.152.302-.15.464-.464.16-.317.161-.815zm6.338 5.264a1 1 0 0 0-.064-.366.7.7 0 0 0-.22-.298 1.8 1.8 0 0 0-.444-.264 6 6 0 0 0-.732-.273 8 8 0 0 1-.928-.352 3.6 3.6 0 0 1-.757-.454 1.9 1.9 0 0 1-.502-.596 1.7 1.7 0 0 1-.181-.79q0-.44.185-.801a1.84 1.84 0 0 1 .537-.62q.347-.264.816-.406a3.6 3.6 0 0 1 1.045-.141q.79 0 1.367.288.581.288.898.781t.318 1.108h-1.338q0-.331-.142-.585a.96.96 0 0 0-.42-.4q-.278-.148-.703-.147-.41 0-.683.122a.9.9 0 0 0-.406.332.86.86 0 0 0-.131.468q0 .195.092.352.093.15.279.288.185.132.459.25.278.111.644.224.586.175 1.026.39.444.215.737.489.298.273.444.615.152.341.152.776 0 .46-.181.82-.18.362-.518.616-.336.254-.81.386a4 4 0 0 1-1.05.131q-.518 0-1.025-.136a3.1 3.1 0 0 1-.913-.42 2.14 2.14 0 0 1-.655-.713 2.04 2.04 0 0 1-.244-1.016h1.348q0 .338.107.576.113.235.313.386.205.147.478.215.275.069.591.068.41 0 .674-.112a.87.87 0 0 0 .4-.322.83.83 0 0 0 .137-.469"/></svg>