<svg xmlns="http://www.w3.org/2000/svg" width="188" height="56" fill="none" viewBox="0 0 188 56"><path fill="#6f4bbb" d="M13.618 42.34h8.654v7.574h-8.496c-1.343-.593-2.45-1.436-3.253-2.424.316-1.633 1.489-3.766 3.095-5.15"/><path fill="#7d5dc2" d="M14.119 42.973c-1.146 1.185-2.279 2.621-2.66 4.254.684.817 1.58 1.449 2.541 1.91h7.27v-6.164z"/><path fill="#9478cf" d="M12.117 45.554c-.224.316-.646 1.594-.672 1.673.685.817 1.58 1.449 2.542 1.91h3.872V45.83a70 70 0 0 1-5.742-.277"/><path fill="#5f3ea7" d="M13.579 48.307c.895.303 1.317.87 1.449 1.607h-3.122c.21-.632.804-1.41 1.673-1.607"/><path fill="#6f4bbb" d="M13.566 48.65c-.488.131-.896.513-1.16.948h1.173v-.948z"/><path fill="#5f3ea7" d="M16.66 48.123c1.2.329 1.779 1.132 1.924 1.79h-4.162c.276-.697 1.12-1.632 2.239-1.79"/><path fill="#6f4bbb" d="M16.634 48.452c-.658.119-1.303.58-1.686 1.146h1.713v-1.146zM32.65 42.34h-8.653v7.574h8.495c1.343-.593 2.45-1.436 3.253-2.424-.303-1.633-1.475-3.766-3.095-5.15"/><path fill="#7d5dc2" d="M32.163 42.973c1.145 1.185 2.278 2.621 2.66 4.254-.685.817-1.58 1.449-2.542 1.91h-7.27v-6.164z"/><path fill="#9478cf" d="M34.151 45.554c.224.316.646 1.594.672 1.673-.685.817-1.58 1.449-2.542 1.91H28.41V45.83a70 70 0 0 0 5.742-.277"/><path fill="#5f3ea7" d="M32.703 48.307c-.896.303-1.318.87-1.45 1.607h3.122c-.21-.632-.803-1.41-1.672-1.607"/><path fill="#6f4bbb" d="M32.716 48.65c.487.131.895.513 1.159.948h-1.172v-.948z"/><path fill="#5f3ea7" d="M29.62 48.123c-1.198.329-1.777 1.132-1.922 1.79h4.162c-.277-.697-1.12-1.632-2.24-1.79"/><path fill="#6f4bbb" d="M29.634 48.452c.658.119 1.304.58 1.686 1.146h-1.713v-1.146z"/><path fill="#5f3ea7" d="M0 44.672c.053 1.383.369 2.463.975 3.135.948-.08 1.751-1.133 2.12-2.042-.553-.961-1.633-1.396-3.095-1.093"/><path fill="#6f4bbb" d="M.487 45.054c.027.803.237 1.633.672 2.239l.369-2.186c-.33-.08-.685-.08-1.04-.053"/><path fill="#5f3ea7" d="M2.397 45.41c.092 1.238.25 2.33 1.027 3.437 1.396-.303 2.49-1.08 2.95-2.318-.684-1.567-2.317-1.778-3.977-1.12"/><path fill="#6f4bbb" d="m3.622 48.32.935-2.752c-.527-.106-1.12-.027-1.686.158.092.935.25 1.765.75 2.594"/><path fill="#5f3ea7" d="M6.98 46.424c.237 1.409 1.568 2.107 2.24 2.068.302-.514.605-1.186.605-1.99l-.58-.487c-.882-.17-1.817-.105-2.265.409"/><path fill="#6f4bbb" d="M8.982 48.017c.264-.395.435-1 .461-1.58l-.948-.158z"/><path fill="#6f4bbb" d="M9.838 27.537V46.49c-3.28.408-7.099.276-9.838-1.831.053-1.765.224-3.49.54-5.137.593-2.976 1.712-5.69 3.648-7.915 1.712-1.963 3.425-2.898 5.65-4.07"/><path fill="#9478cf" d="M.922 44.224c1.712 1.317 5.821 1.726 7.981 1.449V29.065c-5.57 2.963-7.784 8.429-7.981 15.16"/><path fill="#a58dd4" d="M.922 44.224c.87.672 2.344 1.093 3.885 1.33.224-4.227.198-10.589-.75-12.275C1.989 36.217 1.054 39.97.922 44.224"/><path fill="#9478cf" d="M4.807 41.406c.725 0 1.304.58 1.304 1.304s-.58 1.303-1.304 1.303-1.304-.579-1.304-1.303c0-.725.58-1.304 1.304-1.304"/><path fill="#6f4bbb" d="M7.916 12.76c-.382-2.463.04-3.74.54-5.993 1.567 1.304 2.568 2.24 4.478 3.2.382-2.383 1.224-4.635 2.45-6.743l.724-1.238c2.792 2.108 5.176 3.793 7.02 6.585 1.843-2.792 4.227-4.477 7.02-6.585l.724 1.238c1.225 2.108 2.068 4.36 2.45 6.744 1.91-.962 2.91-1.897 4.478-3.2.513 2.238.922 3.516.54 5.992l3.45.948c-.685 9.009-1.383 16.687-2.265 25.696-.119 1.238-.25 2.489-.382 3.727-.04.356-.474 1.001-2.318 1.014a207 207 0 0 1-27.434 0c-1.844-.026-2.279-.658-2.318-1.014a370 370 0 0 1-.382-3.793c-.053-.514-.106-1.027-.158-1.554-.751-8.034-1.489-16.042-2.108-24.09l3.451-.947h.04z"/><path fill="#9478cf" d="M16.49 3.87c-1.49 2.528-2.318 5.202-2.476 7.968a17.7 17.7 0 0 1-4.768-2.753c-.303 1.344-.237 3.095.171 4.623a63 63 0 0 0-3.609.935C6.44 22.914 7.033 31.185 7.85 39.43c.079.817.25 2.582.342 3.398.33.185 1.014.185 1.29.198 9.062.606 18.229.606 27.29 0 .29-.027.962-.027 1.291-.198.092-.803.263-2.608.342-3.398.804-8.258 1.41-16.529 2.042-24.787a63 63 0 0 0-3.609-.935c.408-1.528.474-3.28.171-4.623-1.488 1.238-3.24 2.173-4.767 2.753-.158-2.753-.988-5.44-2.476-7.968-3.03 2.291-5.018 3.95-6.638 7.27-1.634-3.32-3.61-4.979-6.652-7.27z"/><path fill="#a58dd4" d="M16.49 3.87c.224 3.674 1.145 7.757 2.884 9.47-2.318-.251-3.556-.528-5.347-1.502a17.6 17.6 0 0 1-4.781-2.753c.803 2.424 1.58 4.149 3.174 5.835-1.357-.027-2.134-.474-3.003-1.212a63 63 0 0 0-3.609.935C6.44 22.914 7.033 31.185 7.85 39.43c.079.817.25 2.582.342 3.398.33.185 1.014.185 1.29.198 4.532.303 9.089.447 13.646.447v-4.925c-7.034.553-13.46-10.537-6.072-17.82l-1.475.816c-.185-1.172.184-2.634.672-3.819.96-2.305 3.516-4.017 6.875-4.425v-2.173c-1.634-3.32-3.596-4.979-6.638-7.257"/><path fill="#7d5dc2" d="M33.835 14.92c1.58-1.686 2.37-3.425 3.174-5.848.303 1.343.237 3.095-.17 4.623-.87.75-1.647 1.198-3.004 1.225m-2.673-.685c.79 0 1.422.645 1.422 1.422 0 .79-.645 1.423-1.422 1.423-.79 0-1.423-.646-1.423-1.423s.645-1.422 1.423-1.422m5.202 3.214c.54 0 .988.447.988.987s-.448.988-.988.988a.995.995 0 0 1-.988-.988c0-.553.435-.988.988-.988m-9.47-4.123c1.739-1.699 2.66-5.782 2.885-9.47 1.488 2.53 2.318 5.203 2.476 7.969-1.805.974-3.043 1.25-5.36 1.501"/><path fill="#9478cf" d="M10.22 16.303a2.35 2.35 0 0 1 2.345 2.344 2.35 2.35 0 0 1-2.345 2.344 2.35 2.35 0 0 1-2.344-2.344 2.35 2.35 0 0 1 2.344-2.344m-1.514 7.19a.94.94 0 0 1 .935.936.94.94 0 0 1-.935.935.94.94 0 0 1-.935-.935c0-.514.421-.935.935-.935"/><path fill="#d3e8ef" d="M23.286 17.58c5.57 0 10.088 4.518 10.088 10.089 0 5.57-4.517 10.089-10.088 10.089s-10.089-4.518-10.089-10.09c0-5.57 4.518-10.088 10.089-10.088"/><path fill="#fff" d="M13.46 25.377a10.1 10.1 0 0 1 7.731-7.573c4.162-.316 7.534 2.595 7.534 6.559 0 3.99-3.424 7.534-7.626 7.902-4.214.37-7.626-2.555-7.626-6.559-.013-.105-.013-.223-.013-.329"/><path fill="#ea4e64" d="M26.394 23.797a5.683 5.683 0 0 1 5.69 5.69 5.683 5.683 0 0 1-5.69 5.69 5.683 5.683 0 0 1-5.69-5.69 5.69 5.69 0 0 1 5.69-5.69"/><path fill="#ec6277" d="M26.394 23.797c.83 0 1.62.17 2.331.5v.066c0 3.885-3.24 7.35-7.323 7.876a5.686 5.686 0 0 1 4.992-8.442"/><path fill="#232323" d="M26.394 25.799c2.041 0 3.7 1.646 3.7 3.7a3.695 3.695 0 0 1-3.7 3.701 3.696 3.696 0 0 1-3.701-3.7 3.695 3.695 0 0 1 3.7-3.701"/><path fill="#323232" d="M26.394 25.799c.75 0 1.449.224 2.028.605-.711 2.358-2.581 4.36-4.978 5.308a3.72 3.72 0 0 1-.738-2.212 3.676 3.676 0 0 1 3.688-3.701"/><path fill="#fff" d="M22.364 25.232c1.29 0 2.33 1.04 2.33 2.332 0 1.29-1.04 2.33-2.33 2.33a2.327 2.327 0 0 1-2.332-2.33 2.327 2.327 0 0 1 2.332-2.332"/><path fill="#6f4bbb" d="M11.419 32.292c2.871-1.58 7.191 1.185 6.875 5.663-2.74-.843-5.703-3.424-6.875-5.663"/><path fill="#a58dd4" d="M11.419 32.292c2.608.052 5.492 1.527 6.875 5.663-3.28-.369-6.335-2.871-6.875-5.663"/><path fill="#7d5dc2" d="M12.776 36.032c.381-.132 2.173-.092 2.318.105.17.237-.303 1.45-.804 2.24-.658-.527-1.198-1.252-1.514-2.345"/><path fill="#fff" d="M12.249 35.598c.382-.132 2.173-.093 2.318.105.17.237-.303 1.449-.804 2.239-.658-.527-1.198-1.251-1.514-2.345"/><path fill="#6f4bbb" d="M12.789 34.979c.118 2.541 3.437 4.991 6.585 4.083.171.737-.33 1.172-.843 1.277-2.858.25-5.61-1.554-6.52-3.859-.263-.632.027-1.422.778-1.501m-.54 4.767c.79 1.489 2.028 2.187 3.384 2.41-1.936.87-3.648-.29-3.384-2.41"/><path fill="#9478cf" d="M13.553 40.102c1.554.87 3.029 1.146 4.74.988-1.25.83-3.7.922-4.74-.988"/><path fill="#5f3ea7" d="M26.776 14.722c-3.122-5.4-11.34-2.252-10.51 3.806 2.054-3.398 6.019-4.504 10.51-3.806"/><path fill="#6f4bbb" d="M26.776 14.722c-1.765-3.042-5.48-3.24-7.968-1.567-.014.711.197 1.225.58 1.633 2.014-.975 4.648-1.37 7.388-.066M43.12 35.255c3.28 0 5.967 2.634 5.967 5.927s-2.687 5.926-5.967 5.926-5.966-2.634-5.966-5.926 2.687-5.927 5.966-5.927"/><path fill="#9478cf" d="M43.12 36.124c2.819 0 5.098 2.266 5.098 5.045 0 2.792-2.28 5.044-5.098 5.044s-5.097-2.265-5.097-5.044c0-2.78 2.292-5.045 5.097-5.045"/><path fill="#a58dd4" d="M43.12 36.124a5.12 5.12 0 0 1 4.57 2.806c.185 2.634-3.029 4.57-5.175 3.661-1.58-.856-2.674-2.529-2.674-4.438 0-.317.026-.62.092-.922a5.2 5.2 0 0 1 3.188-1.107"/><path fill="#2b3039" d="M41.04 40.392c-.238-.725 2.476-1.634 2.726-.91l2.687 8.048c.237.724-2.477 1.633-2.727.909z"/><path fill="#5f3ea7" d="M44.938 39.575c-1.067.658-1.95 1.304-2.581 2.502.908 1.107 2.107 1.713 3.424 1.555 1.067-1.344.514-2.885-.843-4.057"/><path fill="#6f4bbb" d="M45.768 41.419c-.158-.461-.448-.896-.817-1.317-.816.527-1.488 1.093-2.002 1.91.567.052 1.449-.093 2.819-.593"/><path fill="#5f3ea7" d="M45.965 42.802c-1.067.658-1.949 1.304-2.581 2.502.909 1.107 2.107 1.712 3.424 1.554 1.067-1.343.514-2.884-.843-4.056"/><path fill="#6f4bbb" d="M46.795 44.514c-.158-.461-.448-.896-.817-1.317-.816.527-1.488 1.093-2.001 1.91.566.065 1.448-.093 2.818-.593"/><path fill="#5f3ea7" d="M40.407 43.118c1.015-.25 1.91-.408 3.003-.092.132 1.185-.197 2.265-1.053 2.95-1.423-.119-2.029-1.357-1.95-2.858"/><path fill="#6f4bbb" d="M41.026 44.554c-.184-.37-.276-.79-.316-1.252.79-.184 1.515-.263 2.318-.092-.29.382-.895.817-2.002 1.343"/><path fill="#393f4c" d="M38.379 21.32c-5.387.303-9.51 4.926-9.206 10.313.303 5.387 4.926 9.51 10.312 9.206 5.387-.303 9.51-4.925 9.207-10.312s-4.913-9.51-10.313-9.206"/><path fill="#d3e8ef" d="M38.458 22.532c-4.715.264-8.337 4.32-8.073 9.048.263 4.715 4.32 8.337 9.048 8.06 4.715-.263 8.337-4.32 8.073-9.047-.276-4.715-4.32-8.337-9.048-8.06"/><path fill="#fff" d="M45.452 35.321a7.83 7.83 0 0 0 1.25-4.689 7.76 7.76 0 0 0-5.676-7.046 1093 1093 0 0 1-.79 8.824c1.04.422 3.727 1.765 5.216 2.911M38.326 23.48c-4.109.238-7.257 3.754-7.006 7.863.04.58.131 1.146.29 1.673a3 3 0 0 1-.027-.369c-.263-4.767 3.372-8.85 8.14-9.127h.039a10 10 0 0 0-1.436-.04"/><path fill="#999" d="M31.61 35.518q.236.396.513.751l2.529-3.503 5.821 2.423 3.372-6.967 3.385.645a11 11 0 0 0-.303-.935l-3.556-.685-3.306 6.836-5.69-2.37z"/><path fill="#1ec185" d="M34.402 30.474a1.757 1.757 0 0 1 1.857 1.66 1.757 1.757 0 0 1-1.66 1.857 1.757 1.757 0 0 1-1.857-1.66c-.066-.961.685-1.791 1.66-1.857"/><path fill="#ea4e64" d="M43.502 25.983a1.757 1.757 0 0 1 1.857 1.66A1.757 1.757 0 0 1 43.7 29.5a1.757 1.757 0 0 1-1.856-1.66 1.75 1.75 0 0 1 1.66-1.857"/><path fill="#ff893a" d="M40.157 32.884a1.757 1.757 0 0 1 1.857 1.66 1.757 1.757 0 0 1-1.66 1.857 1.757 1.757 0 0 1-1.856-1.66 1.75 1.75 0 0 1 1.659-1.857"/><g clip-path="url(#a)"><path fill="#4fd6f6" d="M150.527 23.567c-.779-.76-1.168-1.803-1.168-2.846a118 118 0 0 0-19.078.664c-.486.095-.876.38-.973.664-.097.38.292.569.389.569 2.823 1.233 4.283 1.898 6.911 3.415.195.095.487.19.779.19 1.362-.095 2.628-.19 3.893-.19 4.088-.095 8.176 0 12.069.475z"/><path fill="#9ae8fa" d="m157.048 30.208-1.168-1.139a78 78 0 0 0-13.335-.854c-.389 0-.778.19-.876.475-.097.284.098.569.292.664 2.336 1.613 3.504 2.467 5.743 4.27.195.094.292.189.487.189 2.628.19 4.769.284 6.716.664z"/><path fill="#03c5f2" d="M153.447 16.641h.681l9.539 1.139 1.46-2.847c-16.742-3.225-32.412-2.656-49.056 1.708-.584.19-1.071.57-1.071.949 0 .284.389.38.487.474 3.212.76 4.866 1.233 7.884 2.277.292.095.584.095.973 0 5.743-1.044 11.096-1.613 16.547-1.803 3.017-.094 6.034 0 9.052.19a4.43 4.43 0 0 1 3.504-2.087"/><path fill="url(#b)" d="M187.513 24.23c-.194-.758-.778-1.327-1.557-1.422L174.86 21.48l-1.752-9.677c-.097-.76-.779-1.329-1.557-1.424a1.99 1.99 0 0 0-1.947.95l-4.672 9.012-11.096-1.328c-.779-.095-1.557.284-1.849.949-.39.664-.195 1.518.292 1.992l7.689 7.78-5.645 11.194s0 .095-.098.095c0 0 0 .095-.097.095v.854s0 .095.097.095c0 .095 0 .095.098.19 0 0 0 .094.097.094l.097.095.098.095.097.095c.097.095.195.095.195.19h.097c.097 0 .097.095.195.095h.097c.097 0 .097 0 .195.094h.876c.097 0 .194 0 .194-.094h.098c.097 0 .194-.095.292-.095l10.512-6.072 8.565 8.918c.292.285.681.474 1.071.57.389 0 .681 0 1.07-.19.682-.38 1.168-1.14.974-1.898l-2.336-12.713 9.928-5.692c.584 0 .973-.76.778-1.518"/></g><path fill="#eb5757" d="M92.086 21.96q1.836 1.564 1.953 3.985.117 2.422-1.562 4.102l-7.54 7.812q-.39.39-.898.391-.507 0-.898-.39l-7.54-7.813q-1.68-1.68-1.562-4.102.118-2.421 1.953-3.984 1.602-1.367 3.672-1.172 2.109.156 3.594 1.68l.781.781.781-.781q1.485-1.524 3.555-1.68 2.11-.195 3.71 1.172"/><defs><linearGradient id="b" x1="152.09" x2="187.719" y1="29.362" y2="27.904" gradientUnits="userSpaceOnUse"><stop stop-color="#ff8c00"/><stop offset=".7" stop-color="#ffd200"/></linearGradient><clipPath id="a"><path fill="#fff" d="M115 10h73v37h-73z"/></clipPath></defs></svg>