<svg xmlns="http://www.w3.org/2000/svg" width="294" height="46" fill="none" viewBox="0 0 294 46"><path fill="#393e4b" d="M64.799 9.3q.424 0 .879.243.484.211.727.576l7.365 11.335-1.516-.06 7.547-11.275q.577-.819 1.485-.819.728 0 1.303.515.576.516.576 1.334v17.548q0 .788-.515 1.334-.515.516-1.364.515-.848 0-1.394-.515a1.87 1.87 0 0 1-.515-1.334V14.422l1.182.273-6.183 9.426a2.5 2.5 0 0 1-.697.576 1.35 1.35 0 0 1-.818.212q-.395.03-.819-.212a2.6 2.6 0 0 1-.666-.576l-5.79-9.153.789-1.607v15.336q0 .788-.485 1.334-.485.516-1.273.515-.758 0-1.243-.515-.485-.546-.485-1.334V11.15q0-.758.546-1.303a1.92 1.92 0 0 1 1.364-.546m38.35 13.154q0 2.486-1.122 4.395a7.8 7.8 0 0 1-2.97 2.94q-1.85 1.06-4.152 1.06-2.304 0-4.183-1.06a8.1 8.1 0 0 1-2.97-2.94q-1.09-1.91-1.091-4.395 0-2.486 1.091-4.364 1.122-1.91 2.97-2.97 1.88-1.092 4.183-1.092t4.152 1.091a7.76 7.76 0 0 1 2.97 2.97q1.122 1.88 1.122 4.365m-3.637 0q0-1.546-.637-2.667A4.46 4.46 0 0 0 97.208 18a4.3 4.3 0 0 0-2.303-.637q-1.273 0-2.334.637-1.03.636-1.667 1.788-.606 1.121-.606 2.667 0 1.516.606 2.667.636 1.122 1.667 1.758a4.45 4.45 0 0 0 2.334.636q1.272 0 2.303-.636a4.5 4.5 0 0 0 1.667-1.758q.636-1.152.637-2.667M115 14.028q2.242 0 3.394.94 1.182.94 1.607 2.515.454 1.546.454 3.456v7.758q0 .788-.515 1.334-.516.516-1.303.515-.788 0-1.304-.515a1.87 1.87 0 0 1-.515-1.334V20.94q0-1-.273-1.789a2.4 2.4 0 0 0-.909-1.303q-.667-.485-1.909-.485-1.212 0-2.061.485-.819.485-1.273 1.303-.424.789-.424 1.789v7.758q0 .788-.516 1.334-.515.516-1.303.515-.788 0-1.303-.515-.515-.546-.515-1.334V16.18q0-.788.515-1.303.515-.546 1.303-.546t1.303.546q.516.515.516 1.303v1.303l-.455-.09q.273-.516.788-1.092a7.2 7.2 0 0 1 1.212-1.121q.697-.515 1.576-.818a5.3 5.3 0 0 1 1.91-.334m8.447 14.003q-.303-.425-.273-1.091.03-.668.788-1.152a1.57 1.57 0 0 1 1.03-.243q.546.03 1.061.546.879.878 1.849 1.364.97.485 2.425.485.454-.03 1-.122.545-.12.939-.484.425-.394.425-1.183 0-.666-.455-1.06-.454-.394-1.212-.667a18 18 0 0 0-1.637-.515 52 52 0 0 1-1.94-.606 8.6 8.6 0 0 1-1.788-.849 4.3 4.3 0 0 1-1.333-1.425q-.516-.878-.516-2.212 0-1.515.849-2.576.849-1.06 2.182-1.637a7.25 7.25 0 0 1 2.849-.576q.94 0 1.97.243a7 7 0 0 1 1.97.727 4.7 4.7 0 0 1 1.576 1.303q.334.455.394 1.092.061.636-.576 1.151a1.52 1.52 0 0 1-1.06.334q-.607-.06-1.001-.425-.515-.666-1.394-1.06-.849-.395-1.97-.395-.454 0-1 .122a1.77 1.77 0 0 0-.909.454q-.394.334-.394 1.091 0 .697.454 1.122.456.393 1.213.667.788.242 1.667.485a24 24 0 0 1 1.848.575 7.3 7.3 0 0 1 1.728.88q.788.545 1.273 1.424.485.849.485 2.182 0 1.546-.909 2.637a5.9 5.9 0 0 1-2.273 1.667 7.5 7.5 0 0 1-2.789.545q-1.788 0-3.576-.606-1.788-.636-2.97-2.212m15.742-13.396h7.183q.727 0 1.213.484.485.486.485 1.213 0 .697-.485 1.182-.486.454-1.213.454h-7.183q-.727 0-1.212-.485t-.485-1.212q0-.698.485-1.152.484-.485 1.212-.485m3.243-3.789q.789 0 1.273.546.515.514.515 1.303v13.487q0 .424.152.697.182.273.455.394.303.12.636.121.364 0 .667-.121.303-.152.697-.152.424 0 .758.394.363.395.363 1.092 0 .848-.939 1.394a3.76 3.76 0 0 1-1.97.545q-.637 0-1.425-.09a4.3 4.3 0 0 1-1.454-.516q-.667-.424-1.122-1.273-.454-.849-.454-2.334V12.695q0-.789.515-1.303a1.8 1.8 0 0 1 1.333-.546m16.467 20.003q-2.577 0-4.486-1.06a7.67 7.67 0 0 1-2.91-2.94q-1-1.85-1-4.183 0-2.727 1.091-4.637 1.122-1.94 2.91-2.97a7.47 7.47 0 0 1 3.788-1.03q1.547 0 2.91.636a7.8 7.8 0 0 1 2.455 1.758 8.1 8.1 0 0 1 1.667 2.546q.636 1.455.636 3.091-.03.728-.575 1.182a1.93 1.93 0 0 1-1.273.455h-11.578l-.909-3.031h11.123l-.667.606v-.818a2.7 2.7 0 0 0-.637-1.576 3.7 3.7 0 0 0-1.394-1.091 3.76 3.76 0 0 0-1.758-.425q-.909 0-1.697.243-.788.242-1.364.818t-.909 1.546-.333 2.455q0 1.636.666 2.788.697 1.122 1.758 1.727a4.9 4.9 0 0 0 2.304.576q1.12 0 1.788-.181.666-.183 1.061-.425.424-.273.757-.454.546-.273 1.031-.273.666 0 1.091.455.455.453.455 1.06 0 .818-.849 1.485-.788.668-2.213 1.182a9 9 0 0 1-2.939.485m12.057-.303q-.787 0-1.303-.515a1.87 1.87 0 0 1-.515-1.334V16.18q0-.788.515-1.303.516-.546 1.303-.546.789 0 1.304.546.515.515.515 1.303v2.85l-.212-2.032q.333-.727.848-1.272a4.9 4.9 0 0 1 1.213-.94 5.1 5.1 0 0 1 1.424-.576 6.5 6.5 0 0 1 1.516-.182q.909 0 1.515.516.636.515.636 1.212 0 1-.515 1.455-.515.424-1.121.424-.576 0-1.061-.212a2.5 2.5 0 0 0-1.061-.212q-.545 0-1.121.272-.546.243-1.031.788-.454.546-.757 1.364-.273.789-.273 1.88v7.182q0 .788-.515 1.334-.515.516-1.304.515"/><path fill="#338eef" d="M186.371 28.697q0 .788-.576 1.334a1.94 1.94 0 0 1-1.333.515q-.85 0-1.364-.515a1.87 1.87 0 0 1-.516-1.334V11.18q0-.788.546-1.303.546-.546 1.394-.545.727 0 1.273.545.576.516.576 1.303zm12.923-14.669q2.243 0 3.395.94 1.182.94 1.606 2.515.454 1.546.454 3.456v7.758q0 .788-.515 1.334-.515.516-1.303.515-.788 0-1.303-.515a1.87 1.87 0 0 1-.516-1.334V20.94q0-1-.272-1.789a2.4 2.4 0 0 0-.91-1.303q-.666-.485-1.909-.485-1.212 0-2.061.485a3.43 3.43 0 0 0-1.273 1.303q-.424.789-.424 1.789v7.758q0 .788-.515 1.334-.515.516-1.304.515-.787 0-1.303-.515a1.87 1.87 0 0 1-.515-1.334V16.18q0-.788.515-1.303.516-.546 1.303-.546.789 0 1.304.546.515.515.515 1.303v1.303l-.455-.09q.273-.516.788-1.092a7.2 7.2 0 0 1 1.213-1.121q.697-.515 1.576-.818a5.3 5.3 0 0 1 1.909-.334m8.447 14.003q-.303-.425-.273-1.091.03-.668.788-1.152a1.57 1.57 0 0 1 1.031-.243q.545.03 1.06.546a7.2 7.2 0 0 0 1.849 1.364q.97.485 2.425.485.454-.03 1-.122.546-.12.94-.484.423-.394.424-1.183 0-.666-.455-1.06-.454-.394-1.212-.667a18 18 0 0 0-1.637-.515 52 52 0 0 1-1.939-.606 8.6 8.6 0 0 1-1.789-.849 4.3 4.3 0 0 1-1.333-1.425q-.516-.878-.515-2.212 0-1.515.848-2.576.849-1.06 2.182-1.637a7.3 7.3 0 0 1 2.849-.576q.94 0 1.97.243a7 7 0 0 1 1.97.727 4.7 4.7 0 0 1 1.576 1.303q.334.455.394 1.092.061.636-.575 1.151a1.52 1.52 0 0 1-1.061.334q-.607-.06-1-.425-.516-.666-1.394-1.06-.849-.395-1.971-.395-.454 0-1 .122-.514.09-.909.454-.394.334-.394 1.091 0 .697.455 1.122.455.393 1.212.667.788.242 1.667.485a24 24 0 0 1 1.849.575 7.3 7.3 0 0 1 1.727.88q.789.545 1.273 1.424.486.849.485 2.182 0 1.546-.909 2.637a5.9 5.9 0 0 1-2.273 1.667 7.5 7.5 0 0 1-2.789.545q-1.788 0-3.576-.606-1.788-.636-2.97-2.212m18.986.666q0 .788-.516 1.334-.515.516-1.303.515-.788 0-1.303-.515-.516-.546-.515-1.334V16.18q0-.788.515-1.303.515-.546 1.303-.546t1.303.546q.516.515.516 1.303zm-1.849-16.336q-1.03 0-1.455-.333-.424-.333-.424-1.182v-.576q0-.879.454-1.182.486-.333 1.455-.333 1.06 0 1.485.333.424.333.424 1.182v.576q0 .879-.454 1.212-.454.303-1.485.303m12.315 1.667q1.272 0 2.334.394 1.06.394 1.818 1 .787.607 1.212 1.243.455.607.455 1.03l-.788.395v-2.213q0-.788.515-1.303.516-.546 1.303-.546.789 0 1.304.516.515.515.515 1.333v13.487q0 2.637-1.152 4.213a6.2 6.2 0 0 1-2.97 2.303q-1.85.728-3.97.728-.606 0-1.576-.152a23 23 0 0 1-1.849-.363q-.88-.213-1.334-.394-.909-.394-1.273-1-.333-.577-.121-1.243.273-.879.879-1.213.606-.303 1.273-.06.303.09 1 .364.697.272 1.516.485.847.242 1.485.242 2.272 0 3.364-.91 1.09-.908 1.091-2.515v-2.637l.364.273q0 .394-.425.97-.393.546-1.121 1.091a7 7 0 0 1-1.667.94 5.8 5.8 0 0 1-2.061.363q-2.153 0-3.879-1.06-1.728-1.092-2.728-2.97-1-1.91-1-4.365 0-2.486 1-4.364 1-1.91 2.697-2.97 1.698-1.092 3.789-1.092m.576 3.334q-1.365 0-2.395.667a4.53 4.53 0 0 0-1.606 1.819q-.576 1.15-.576 2.606 0 1.425.576 2.576a4.53 4.53 0 0 0 1.606 1.819q1.03.666 2.395.666 1.394 0 2.424-.666a4.53 4.53 0 0 0 1.607-1.819q.575-1.152.575-2.576 0-1.455-.575-2.607a4.53 4.53 0 0 0-1.607-1.818q-1.03-.667-2.424-.667m20.539-3.334q2.182 0 3.304.94 1.152.94 1.576 2.515.424 1.546.424 3.456v7.758q0 .788-.515 1.334-.516.516-1.303.515-.788 0-1.304-.515a1.87 1.87 0 0 1-.515-1.334V20.94q0-1-.242-1.789a2.48 2.48 0 0 0-.879-1.303q-.637-.485-1.819-.485-1.15 0-1.97.485a3.2 3.2 0 0 0-1.242 1.303q-.394.789-.394 1.789v7.758q0 .788-.516 1.334-.514.516-1.303.515-.788 0-1.303-.515-.516-.546-.515-1.334V9.967q0-.788.515-1.303.515-.546 1.303-.546.789 0 1.303.546.516.515.516 1.303v7.516l-.455-.09a6.3 6.3 0 0 1 .758-1.092 6.3 6.3 0 0 1 1.182-1.121q.697-.515 1.545-.818a5 5 0 0 1 1.849-.334m9.424.606h7.183q.727 0 1.213.485.484.486.484 1.213 0 .697-.484 1.182-.486.454-1.213.454h-7.183q-.728 0-1.212-.485-.485-.485-.485-1.212 0-.698.485-1.152.484-.485 1.212-.485m3.243-3.788q.788 0 1.273.546.516.514.515 1.303v13.487q0 .424.152.697.182.273.454.394.304.12.637.121.363 0 .667-.121.303-.152.697-.152.424 0 .758.394.363.395.363 1.092 0 .848-.939 1.394a3.76 3.76 0 0 1-1.97.545q-.637 0-1.425-.09a4.3 4.3 0 0 1-1.455-.516q-.666-.424-1.121-1.273t-.455-2.334V12.695q0-.789.516-1.303a1.8 1.8 0 0 1 1.333-.546m8.629 17.185q-.303-.425-.273-1.091.031-.668.788-1.152a1.57 1.57 0 0 1 1.031-.243q.545.03 1.061.546.879.878 1.848 1.364.97.485 2.425.485.455-.03 1-.122.546-.12.94-.484.424-.394.424-1.183 0-.666-.454-1.06-.456-.394-1.213-.667a18 18 0 0 0-1.636-.515 52 52 0 0 1-1.94-.606 8.6 8.6 0 0 1-1.788-.849 4.3 4.3 0 0 1-1.334-1.425q-.515-.878-.515-2.212 0-1.515.848-2.576.85-1.06 2.183-1.637a7.25 7.25 0 0 1 2.849-.576q.94 0 1.97.243a7 7 0 0 1 1.97.727 4.7 4.7 0 0 1 1.576 1.303q.333.455.394 1.092.06.636-.576 1.151a1.52 1.52 0 0 1-1.061.334q-.606-.06-1-.425-.515-.666-1.394-1.06-.85-.395-1.97-.395-.455 0-1 .122-.516.09-.91.454-.394.334-.394 1.091 0 .697.455 1.122.454.393 1.212.667.788.242 1.667.485.91.242 1.849.575a7.3 7.3 0 0 1 1.728.88q.787.545 1.272 1.424.486.849.485 2.182 0 1.546-.909 2.637a5.9 5.9 0 0 1-2.273 1.667 7.5 7.5 0 0 1-2.788.545q-1.789 0-3.577-.606-1.788-.636-2.97-2.212"/><path fill="#6f4bbb" d="M13.479 38.716h8.55l.005 7.263-8.393-.001c-1.328-.569-2.422-1.377-3.216-2.325.31-1.566 1.467-3.612 3.054-4.937"/><path fill="#7d5dc2" d="M13.974 39.322c-1.131 1.136-2.25 2.513-2.626 4.079.677.783 1.563 1.39 2.513 1.831l7.183.001-.004-5.91z"/><path fill="#9478cf" d="M11.998 41.798c-.22.303-.636 1.528-.662 1.604.677.783 1.563 1.39 2.513 1.832h3.826l-.002-3.17a71 71 0 0 1-5.675-.266"/><path fill="#5f3ea7" d="M13.444 44.439c.885.29 1.302.834 1.433 1.541h-3.085c.208-.607.793-1.352 1.652-1.541"/><path fill="#6f4bbb" d="M13.43 44.767c-.48.127-.884.493-1.144.91h1.159l-.001-.91z"/><path fill="#5f3ea7" d="M16.49 44.262c1.184.316 1.757 1.086 1.9 1.718h-4.112c.273-.67 1.105-1.566 2.211-1.718"/><path fill="#6f4bbb" d="M16.463 44.578c-.651.113-1.289.555-1.666 1.098h1.692v-1.098zm15.817-5.863-8.55-.002.005 7.262 8.394.002c1.327-.569 2.42-1.377 3.213-2.324-.3-1.566-1.46-3.612-3.062-4.938"/><path fill="#7d5dc2" d="M31.8 39.32c1.132 1.138 2.252 2.514 2.63 4.08-.675.784-1.56 1.39-2.51 1.831h-7.183l-.004-5.911z"/><path fill="#9478cf" d="M33.765 41.797c.221.303.639 1.528.665 1.604-.676.783-1.56 1.389-2.51 1.83h-3.827l-.002-3.17a71 71 0 0 0 5.674-.264"/><path fill="#5f3ea7" d="M32.334 44.437c-.885.29-1.3.833-1.43 1.54h3.084c-.209-.606-.795-1.35-1.654-1.54"/><path fill="#6f4bbb" d="M32.349 44.765c.481.126.885.493 1.145.91h-1.158v-.91z"/><path fill="#5f3ea7" d="M29.29 44.26c-1.184.316-1.756 1.086-1.898 1.718h4.112c-.274-.67-1.107-1.566-2.214-1.718"/><path fill="#6f4bbb" d="M29.303 44.576c.65.114 1.289.556 1.666 1.099h-1.691l-.001-1.1z"/><path fill="#5f3ea7" d="M.029 40.953c.053 1.326.366 2.362.965 3.006.937-.075 1.73-1.086 2.094-1.957-.547-.922-1.615-1.34-3.06-1.05"/><path fill="#6f4bbb" d="M.51 41.32c.027.77.236 1.566.666 2.147l.363-2.097c-.325-.076-.677-.076-1.028-.05"/><path fill="#5f3ea7" d="M2.396 41.66c.092 1.188.25 2.236 1.018 3.297 1.38-.29 2.459-1.035 2.914-2.222-.678-1.504-2.292-1.706-3.932-1.075"/><path fill="#6f4bbb" d="m3.609 44.453.922-2.64c-.52-.102-1.106-.026-1.666.15.092.898.249 1.694.744 2.49"/><path fill="#5f3ea7" d="M6.925 42.633c.235 1.351 1.55 2.02 2.214 1.983.299-.492.598-1.137.597-1.907l-.573-.468c-.872-.164-1.796-.101-2.238.392"/><path fill="#6f4bbb" d="M8.904 44.161c.26-.379.429-.96.454-1.516l-.937-.152z"/><path fill="#6f4bbb" d="m9.74 24.515.014 18.18c-3.241.391-7.016.264-9.726-1.758.051-1.692.22-3.347.53-4.926.584-2.855 1.689-5.458 3.601-7.593 1.691-1.882 3.383-2.778 5.582-3.903"/><path fill="#9478cf" d="M.94 40.52c1.692 1.264 5.754 1.656 7.89 1.391l-.012-15.93C3.313 28.823 1.13 34.065.939 40.52"/><path fill="#a58dd4" d="M.94 40.522c.86.645 2.318 1.05 3.842 1.277.218-4.056.188-10.158-.75-11.776-2.043 2.818-2.965 6.418-3.092 10.5"/><path fill="#9478cf" d="M4.776 37.819c.715 0 1.289.556 1.289 1.25 0 .695-.572 1.251-1.288 1.251-.715 0-1.289-.556-1.289-1.25 0-.696.572-1.251 1.288-1.251"/><path fill="#6f4bbb" d="M7.826 10.334c-.38-2.362.036-3.588.53-5.748 1.55 1.251 2.539 2.148 4.427 3.07.376-2.286 1.207-4.446 2.416-6.467l.715-1.187c2.76 2.022 5.117 3.639 6.942 6.317 1.82-2.678 4.174-4.294 6.932-6.315l.717 1.188c1.212 2.02 2.046 4.181 2.425 6.467 1.887-.921 2.875-1.818 4.423-3.068.51 2.147.914 3.372.538 5.747l3.41.91c-.67 8.64-1.354 16.005-2.22 24.645a333 333 0 0 1-.375 3.574c-.039.341-.468.96-2.29.973-8.902.58-18.22.578-27.11-.004-1.822-.026-2.252-.632-2.292-.973a345 345 0 0 1-.38-3.638l-.157-1.49c-.748-7.706-1.482-15.387-2.1-23.105l3.41-.909h.039z"/><path fill="#9478cf" d="M16.292 1.809c-1.469 2.425-2.287 4.99-2.441 7.642A17.7 17.7 0 0 1 9.137 6.81c-.298 1.288-.232 2.968.173 4.434-1.25.278-2.408.568-3.566.896.63 7.933 1.222 15.866 2.035 23.774.079.783.25 2.476.341 3.259.325.177 1.002.177 1.276.19a209 209 0 0 0 26.967.003c.286-.025.95-.025 1.275-.189.09-.77.259-2.501.336-3.259.788-7.92 1.381-15.853 2-23.773a63 63 0 0 0-3.567-.897c.403-1.465.467-3.145.166-4.434-1.47 1.187-3.2 2.084-4.71 2.64-.157-2.64-.98-5.218-2.452-7.643-2.992 2.197-4.956 3.789-6.554 6.972-1.616-3.184-3.57-4.776-6.578-6.974z"/><path fill="#a58dd4" d="M16.296 1.808c.224 3.525 1.138 7.442 2.858 9.084-2.292-.24-3.515-.505-5.287-1.44A17.6 17.6 0 0 1 9.14 6.81c.795 2.325 1.565 3.98 3.141 5.598-1.34-.026-2.11-.455-2.969-1.163a63 63 0 0 0-3.566.897c.63 7.934 1.222 15.868 2.035 23.776.078.784.249 2.477.34 3.26.326.177 1.003.177 1.276.19 4.479.29 8.983.43 13.488.43l-.004-4.724c-6.951.53-13.312-10.109-6.013-17.094l-1.458.783c-.183-1.125.18-2.527.662-3.664.948-2.21 3.473-3.853 6.792-4.244l-.001-2.085c-1.617-3.183-3.558-4.776-6.567-6.962"/><path fill="#7d5dc2" d="M33.44 12.403c1.56-1.617 2.34-3.284 3.133-5.608.3 1.288.236 2.968-.166 4.434-.859.72-1.626 1.149-2.967 1.174m-2.643-.657c.781 0 1.406.619 1.407 1.364 0 .758-.637 1.365-1.405 1.364-.78 0-1.406-.619-1.407-1.364 0-.745.637-1.364 1.405-1.364m5.144 3.083c.533 0 .976.43.977.947 0 .518-.442.948-.976.948s-.976-.43-.977-.948c0-.53.429-.947.976-.947m-9.362-3.956c1.717-1.629 2.625-5.545 2.844-9.082 1.473 2.426 2.295 4.99 2.453 7.643-1.783.935-3.006 1.2-5.297 1.44"/><path fill="#9478cf" d="M10.111 13.734c1.276 0 2.318 1.011 2.319 2.25 0 1.237-1.04 2.248-2.316 2.248s-2.317-1.011-2.318-2.25c-.001-1.237 1.04-2.248 2.315-2.248M8.62 20.632c.508 0 .925.404.925.897 0 .492-.416.897-.924.897-.507 0-.924-.405-.924-.897 0-.493.415-.897.923-.897"/><path fill="#d3e8ef" d="M23.017 14.961c5.505 0 9.972 4.334 9.976 9.677s-4.457 9.675-9.962 9.674c-5.505 0-9.973-4.333-9.976-9.677-.005-5.343 4.456-9.675 9.962-9.674"/><path fill="#fff" d="M13.314 22.437c.87-3.638 3.861-6.492 7.635-7.262 4.112-.303 7.446 2.49 7.448 6.291.003 3.828-3.378 7.225-7.53 7.578-4.164.353-7.536-2.451-7.54-6.291-.012-.101-.012-.215-.013-.316"/><path fill="#ea4e64" d="M26.09 20.924c3.111 0 5.625 2.438 5.627 5.457s-2.508 5.456-5.618 5.456-5.625-2.439-5.627-5.457c-.002-3.007 2.508-5.457 5.619-5.456"/><path fill="#ec6277" d="M26.091 20.923c.82 0 1.601.165 2.304.48v.064c.003 3.726-3.196 7.048-7.23 7.553a5.35 5.35 0 0 1-.705-2.64c-.002-3.02 2.508-5.457 5.631-5.457"/><path fill="#232323" d="M26.093 22.843c2.017 0 3.658 1.58 3.66 3.55 0 1.958-1.625 3.55-3.655 3.55-2.017-.001-3.658-1.58-3.66-3.55-.001-1.959 1.624-3.55 3.655-3.55"/><path fill="#323232" d="M26.092 22.843a3.7 3.7 0 0 1 2.005.582c-.701 2.26-2.548 4.18-4.916 5.09a3.5 3.5 0 0 1-.73-2.123c-.015-1.958 1.61-3.55 3.641-3.549"/><path fill="#fff" d="M22.11 22.3c1.276 0 2.305.998 2.306 2.236s-1.026 2.236-2.302 2.236c-1.275 0-2.304-.999-2.305-2.237S20.835 22.3 22.11 22.3"/><path fill="#6f4bbb" d="M11.302 29.073c2.836-1.515 7.107 1.138 6.798 5.433-2.708-.809-5.638-3.285-6.798-5.433"/><path fill="#a58dd4" d="M11.302 29.074c2.577.05 5.428 1.465 6.798 5.432-3.241-.354-6.262-2.754-6.798-5.433"/><path fill="#7d5dc2" d="M12.644 32.662c.377-.126 2.148-.088 2.29.101.17.228-.297 1.39-.791 2.148-.652-.506-1.186-1.2-1.499-2.249"/><path fill="#fff" d="M12.124 32.245c.377-.126 2.147-.088 2.29.102.17.227-.298 1.39-.792 2.147-.651-.505-1.185-1.2-1.498-2.249"/><path fill="#6f4bbb" d="M12.657 31.652c.118 2.437 3.4 4.787 6.51 3.916.169.707-.325 1.124-.833 1.225-2.824.24-5.545-1.491-6.444-3.702-.261-.606.025-1.364.766-1.44m-.531 4.575c.782 1.427 2.006 2.097 3.347 2.312-1.913.833-3.605-.279-3.347-2.312"/><path fill="#9478cf" d="M13.414 36.567c1.536.833 2.993 1.098 4.685.947-1.236.795-3.656.883-4.685-.947"/><path fill="#5f3ea7" d="M26.466 12.217c-3.088-5.179-11.206-2.162-10.382 3.648 2.028-3.258 5.944-4.318 10.382-3.649"/><path fill="#6f4bbb" d="M26.466 12.215c-1.746-2.917-5.416-3.107-7.874-1.503-.012.681.196 1.174.574 1.565 1.99-.934 4.592-1.312 7.3-.062m16.152 19.7c3.24 0 5.897 2.527 5.9 5.685.002 3.158-2.651 5.684-5.892 5.683-3.24 0-5.897-2.527-5.9-5.685-.002-3.158 2.651-5.684 5.892-5.683"/><path fill="#9478cf" d="M42.619 32.749c2.785 0 5.038 2.173 5.04 4.838.002 2.678-2.248 4.838-5.033 4.837-2.785 0-5.038-2.173-5.04-4.838s2.26-4.838 5.033-4.837"/><path fill="#a58dd4" d="M42.619 32.748c1.978 0 3.684 1.1 4.518 2.69.184 2.527-2.99 4.383-5.112 3.511-1.563-.82-2.644-2.425-2.645-4.256 0-.304.025-.594.09-.885a5.23 5.23 0 0 1 3.149-1.06"/><path fill="#2b3039" d="M40.565 36.841c-.235-.695 2.446-1.566 2.694-.871l2.66 7.719c.235.695-2.445 1.566-2.693.871z"/><path fill="#5f3ea7" d="M44.417 36.058c-1.054.632-1.925 1.25-2.55 2.4.9 1.061 2.084 1.642 3.386 1.491 1.053-1.288.505-2.766-.836-3.89"/><path fill="#6f4bbb" d="M45.238 37.826c-.156-.442-.443-.859-.807-1.263-.807.505-1.47 1.048-1.977 1.831.56.051 1.431-.088 2.784-.568"/><path fill="#5f3ea7" d="M45.433 39.154c-1.053.631-1.925 1.25-2.549 2.4.899 1.06 2.084 1.642 3.385 1.49 1.053-1.288.506-2.766-.836-3.89"/><path fill="#6f4bbb" d="M46.255 40.796c-.157-.442-.443-.86-.808-1.264-.807.506-1.47 1.049-1.977 1.832.56.063 1.432-.088 2.785-.568"/><path fill="#5f3ea7" d="M39.942 39.457c1.002-.24 1.887-.391 2.968-.088.13 1.137-.194 2.173-1.04 2.83-1.405-.114-2.005-1.302-1.928-2.742"/><path fill="#6f4bbb" d="M40.557 40.834c-.183-.354-.274-.758-.314-1.2.781-.177 1.497-.253 2.29-.088-.285.366-.884.783-1.977 1.288"/><path fill="#393f4c" d="M37.927 18.548c-5.323.29-9.393 4.722-9.09 9.889s4.874 9.12 10.197 8.83 9.393-4.722 9.09-9.889-4.861-9.12-10.197-8.83"/><path fill="#d3e8ef" d="M38.007 19.71c-4.66.252-8.236 4.142-7.972 8.676.264 4.522 4.275 7.997 8.947 7.732 4.659-.252 8.235-4.142 7.971-8.677-.276-4.522-4.274-7.996-8.946-7.731"/><path fill="#fff" d="M44.924 31.975a7.34 7.34 0 0 0 1.234-4.498c-.198-3.272-2.53-5.937-5.616-6.76-.245 2.83-.503 5.61-.774 8.465 1.028.404 3.685 1.693 5.156 2.793m-7.045-11.356c-4.061.227-7.17 3.599-6.919 7.54.04.556.13 1.099.287 1.604a3 3 0 0 1-.026-.353c-.263-4.573 3.326-8.488 8.037-8.753h.04a10.5 10.5 0 0 0-1.42-.038"/><path fill="#999" d="M31.25 32.163q.233.38.507.72l2.496-3.36 5.754 2.325 3.326-6.68 3.345.62a10 10 0 0 0-.3-.897l-3.514-.658-3.261 6.555-5.624-2.274z"/><path fill="#1ec185" d="M34.005 27.327c.963-.05 1.784.657 1.837 1.592s-.676 1.73-1.639 1.781-1.784-.657-1.836-1.592c-.066-.922.675-1.718 1.638-1.78"/><path fill="#ea4e64" d="M42.993 23.017c.963-.05 1.784.658 1.836 1.592.053.935-.675 1.73-1.638 1.781s-1.784-.657-1.837-1.592c-.065-.934.676-1.73 1.64-1.78"/><path fill="#338eef" d="M39.691 29.64c.963-.051 1.784.656 1.837 1.591s-.676 1.73-1.639 1.78-1.784-.656-1.836-1.591c-.066-.935.675-1.73 1.638-1.78"/></svg>