<svg xmlns="http://www.w3.org/2000/svg" width="200" height="200" fill="none" viewBox="0 0 200 200"><path fill="#6f4bbb" d="m17.967 177.122 37.06 6.377-5.584 32.45-36.374-6.259c-5.296-3.541-9.448-7.942-12.143-12.799 2.51-6.751 9.104-15.044 17.036-19.738z"/><path fill="#7d5dc2" d="M19.651 180.23c-5.798 4.229-11.69 9.564-14.542 16.256 2.36 3.997 5.692 7.391 9.468 10.062l31.17 5.364 4.544-26.409z"/><path fill="#9478cf" d="M9.181 189.781c-1.201 1.204-3.948 6.343-4.1 6.67 2.361 3.997 5.692 7.392 9.469 10.062l16.613 2.859 2.433-14.139c-8.218-1.478-16.34-3.324-24.44-5.489z"/><path fill="#6f4bbb" d="m99.508 191.151-37.06-6.377-5.584 32.451 36.374 6.259c6.175-1.567 11.56-4.327 15.723-8.004-.109-7.202-3.551-17.221-9.458-24.297z"/><path fill="#7d5dc2" d="M96.924 193.527c4.052 5.924 7.822 12.921 8.273 20.182-3.562 2.978-7.836 5.064-12.288 6.319l-31.169-5.364 4.545-26.409z"/><path fill="#6f4bbb" d="M12.636 110.951-1.33 192.108c-14.357-.674-30.625-4.051-40.795-15.068 1.52-7.53 3.507-14.787 6.09-21.589 4.716-12.303 11.515-23.093 21.482-31.222 8.772-7.148 16.82-9.9 27.194-13.31z"/><path fill="#9478cf" d="M-37.816 175.857c6.386 6.902 23.665 11.671 33.12 12.112l12.24-71.13c-26.056 8.567-39.556 30.324-45.36 59.018"/><path fill="#6f4bbb" d="M15.328 46.258c.196-10.836 2.915-16.012 6.754-25.26 5.742 6.728 9.352 11.486 16.81 17.002 3.374-9.905 8.656-18.968 15.472-27.062l4.034-4.789c10.415 11.092 19.395 20.076 25.229 33.36 9.969-10.565 21.41-16.067 34.928-23.008l2.2 5.862c3.719 9.906 5.668 20.214 5.537 30.677 8.873-2.706 13.866-5.983 21.527-10.405.531 9.968 1.365 15.755-2.078 26.064l14.103 6.628c-9.601 38.076-18.247 70.417-28.627 108.359a2728 2728 0 0 1-4.37 15.697c-.418 1.499-2.76 3.918-10.693 2.649-39.033-4.055-79.428-11.006-117.571-20.232-7.87-1.45-9.268-4.512-9.193-6.07.37-5.516.743-11.032 1.145-16.541l.487-6.746c2.675-34.94 5.432-69.8 8.705-104.67l15.507-1.531z"/><path fill="#9478cf" d="M58.626 14.525C50.403 24.27 44.877 35.118 42.16 46.803c-6.153-3.592-12.943-8.896-18.42-15.29-2.302 5.535-3.312 13.09-2.661 19.935-5.607.318-10.877.726-16.147 1.325C1.552 88.65-1.987 124.5-4.603 160.41c-.263 3.579-.812 11.245-1.044 14.828 1.269 1.02 4.199 1.524 5.404 1.795a895 895 0 0 0 116.917 20.119c1.231.116 4.161.62 5.692.115.964-3.362 3.041-10.957 3.973-14.324 9.542-34.751 18.192-69.72 26.991-104.632-4.766-2.326-9.596-4.473-14.774-6.647 2.902-6.233 4.474-13.69 4.157-19.677-7.27 4.2-15.473 6.924-22.473 8.253 1.345-11.921-.236-23.993-4.73-35.925-14.685 7.573-24.385 13.215-33.816 26.245-4.565-15.438-11.79-23.992-23.13-36.044z"/><path fill="#a58dd4" d="M58.62 14.526c-1.745 15.925-.792 34.077 5.372 42.64-9.756-2.8-14.825-4.86-21.837-10.362-6.153-3.593-12.943-8.897-18.421-15.29 1.675 10.965 3.734 18.95 9.317 27.35-5.776-1.122-8.784-3.595-11.978-7.415-5.606.317-10.876.726-16.146 1.325C1.546 88.651-1.992 124.5-4.609 160.41a2360 2360 0 0 0-1.043 14.828c1.269 1.02 4.199 1.524 5.404 1.795 19.162 4.644 38.598 8.63 58.14 11.993l3.634-21.114c-30.516-2.815-49.934-55.024-12.896-80.78l-6.896 2.405c.083-5.148 2.75-11.133 5.68-15.856 5.844-9.158 18.05-14.626 32.713-13.865l1.598-9.282c-4.564-15.438-11.79-23.993-23.13-36.044z"/><path fill="#7d5dc2" d="M124.783 74.65c8.038-6.056 12.68-12.888 17.924-22.664.318 5.987-1.254 13.444-4.156 19.679-4.287 2.533-7.95 3.858-13.768 2.985m-10.936-4.896c3.366.58 5.638 3.792 5.059 7.156s-3.793 5.632-7.16 5.052c-3.365-.579-5.637-3.791-5.058-7.155.578-3.363 3.793-5.632 7.159-5.053m19.892 17.564a4.303 4.303 0 0 1 3.51 4.964 4.304 4.304 0 0 1-4.968 3.507 4.304 4.304 0 0 1-3.51-4.966 4.304 4.304 0 0 1 4.968-3.505M96.221 62.713c8.703-6.005 15.668-22.795 19.315-38.393 4.493 11.932 6.074 24.004 4.73 35.925-8.449 2.843-13.915 3.09-24.045 2.468"/><path fill="#9478cf" d="M22.584 63.156c5.549.954 9.266 6.211 8.312 11.755-.954 5.543-6.214 9.255-11.763 8.3S9.868 77 10.823 71.456c.953-5.543 6.213-9.255 11.761-8.3M10.806 92.808a4.09 4.09 0 0 1 3.33 4.71 4.09 4.09 0 0 1-4.712 3.326 4.09 4.09 0 0 1-3.33-4.71 4.09 4.09 0 0 1 4.712-3.326"/><path fill="#d3e8ef" d="M77.627 78.27c23.876 4.11 39.904 26.78 35.799 50.635s-26.789 39.865-50.665 35.756-39.904-26.779-35.799-50.635 26.79-39.864 50.665-35.755"/><path fill="#fff" d="M29.78 104.377c6.564-15.576 21.722-26.083 38.681-26.723 18.096 1.703 30.347 16.669 27.426 33.642-2.942 17.097-20.201 29.743-38.522 28.225s-30.81-16.589-27.868-33.686c.086-.498.172-.996.289-1.489z"/><path fill="#ea4e64" d="M86.324 107.181c13.464 2.317 22.499 15.094 20.184 28.548s-15.101 22.476-28.566 20.159-22.499-15.094-20.183-28.548 15.1-22.476 28.564-20.159"/><path fill="#ec6277" d="M86.326 107.181a24.6 24.6 0 0 1 9.61 3.834l-.049.281c-2.867 16.661-19.32 29.093-37.154 28.3a24.6 24.6 0 0 1-.998-12.292c2.315-13.454 15.1-22.476 28.565-20.159z"/><path fill="#232323" d="M84.854 115.715c8.728 1.502 14.618 9.794 13.112 18.545-1.5 8.72-9.797 14.603-18.557 13.096-8.727-1.502-14.617-9.794-13.111-18.546 1.5-8.719 9.797-14.603 18.556-13.095"/><path fill="#323232" d="M84.854 115.715a16.17 16.17 0 0 1 8.251 4.081c-4.765 9.601-14.274 16.75-25.263 19.06a16 16 0 0 1-1.544-10.046c1.5-8.719 9.797-14.603 18.556-13.095"/><path fill="#fff" d="M68.006 110.314a10.105 10.105 0 0 1 8.258 11.682 10.106 10.106 0 0 1-11.688 8.25c-5.517-.95-9.208-6.17-8.26-11.682a10.106 10.106 0 0 1 11.69-8.25"/><path fill="#6f4bbb" d="M15.922 132.487c13.45-4.676 29.953 10.382 25.28 29.329-11.123-5.665-21.876-18.899-25.28-29.329"/><path fill="#a58dd4" d="M15.918 132.487c11.12 2.138 22.407 10.589 25.28 29.329-13.779-4.039-24.996-16.999-25.28-29.329"/><path fill="#7d5dc2" d="M18.99 149.528c1.749-.277 9.39 1.199 9.868 2.146.577 1.125-2.381 6.004-5.11 8.997-2.445-2.761-4.216-6.273-4.758-11.143"/><path fill="#fff" d="M17.066 147.274c1.749-.277 9.39 1.198 9.868 2.146.577 1.126-2.38 6.004-5.11 8.997-2.446-2.761-4.216-6.273-4.758-11.143"/><path fill="#6f4bbb" d="M19.806 144.987c-1.346 10.99 11.03 23.926 25.202 22.324.206 3.275-2.297 4.767-4.56 4.859-12.436-1.017-22.89-10.769-25.112-21.347-.625-2.898 1.226-6.01 4.465-5.806zm-5.814 20.001c2.267 6.964 7.057 10.834 12.714 12.834-8.928 2.279-15.407-3.902-12.714-12.834"/><path fill="#9478cf" d="M19.303 167.508c6.001 4.848 12.15 7.157 19.568 7.695-5.916 2.671-16.484 1.236-19.568-7.695"/><path fill="#5f3ea7" d="M94.673 68.57c-9.427-25.414-46.933-18.015-47.848 8.57 11.329-13.058 29.125-14.838 47.848-8.57"/><path fill="#6f4bbb" d="M94.676 68.568C89.347 54.216 73.564 50.634 61.698 56c-.582 3.01-.028 5.383 1.257 7.432 9.356-2.72 20.93-2.46 31.753 5.143zm54.926 100.006c14.027 2.413 23.65 15.677 21.228 29.754-2.422 14.076-15.895 23.365-29.952 20.946-14.027-2.414-23.65-15.677-21.228-29.754 2.422-14.076 15.895-23.365 29.952-20.946"/><path fill="#9478cf" d="M148.969 172.281c12.062 2.075 20.183 13.445 18.13 25.373-2.052 11.928-13.506 19.928-25.569 17.852s-20.183-13.444-18.131-25.372c2.053-11.928 13.507-19.929 25.57-17.853"/><path fill="#a58dd4" d="M148.97 172.281a22.22 22.22 0 0 1 17.511 15.359c-1.161 11.407-16.369 17.352-24.862 11.882-6.163-4.845-9.58-12.775-8.171-20.966a21 21 0 0 1 1.055-3.891 22.22 22.22 0 0 1 14.436-2.389z"/><path fill="#2b3039" d="M136.911 189.025c-.493-3.291 11.804-5.183 12.327-1.887l5.57 36.454c.492 3.292-11.804 5.183-12.328 1.888z"/><path fill="#5f3ea7" d="M154.185 188.409c-5.034 2.019-9.314 4.137-12.878 8.814 3.082 5.404 7.774 8.905 13.508 9.154 5.568-4.941 4.304-11.956-.662-17.973z"/><path fill="#6f4bbb" d="M156.376 196.867c-.343-2.111-1.242-4.157-2.522-6.237-3.876 1.641-7.193 3.571-9.98 6.715 2.388.668 6.272.663 12.507-.51z"/><path fill="#5f3ea7" d="M132.186 200.241c4.52-.345 8.503-.364 12.906 1.836-.312 5.173-2.508 9.541-6.696 11.867-6.012-1.612-7.657-7.346-6.184-13.666z"/><path fill="#393f4c" d="M139.546 105.406c-23.322-2.666-44.398 14.068-47.06 37.37-2.663 23.302 14.092 44.366 37.414 47.033 23.321 2.666 44.397-14.068 47.059-37.37s-14.092-44.366-37.413-47.033"/><path fill="#d3e8ef" d="M138.97 110.63c-20.428-2.329-38.899 12.321-41.229 32.761-2.325 20.411 12.343 38.871 32.8 41.204 20.428 2.329 38.899-12.32 41.229-32.761 2.325-20.41-12.342-38.871-32.8-41.204"/><path fill="#fff" d="M159.529 170.571a33.7 33.7 0 0 0 8.812-19.133c1.673-14.751-6.41-28.391-19.15-34.366a5941 5941 0 0 1-9.898 37.191c4.183 2.548 14.73 10.263 20.267 16.314zm-21.791-55.954c-17.783-2.034-33.842 10.722-35.841 28.495-.273 2.518-.28 4.986.014 7.377.023-.509.083-1.044.143-1.578 2.357-20.597 20.98-35.382 41.599-33.051l.156.026a33.4 33.4 0 0 0-6.04-1.264z"/><path fill="#999" d="M100.043 161.168a40 40 0 0 0 1.625 3.614l13.393-13.118 23.152 14.661 19.596-27.346 14.016 5.266a40 40 0 0 0-.622-4.211l-14.739-5.551-19.219 26.833-22.659-14.352-14.548 14.234z"/><path fill="#1ec185" d="M115.725 141.677c4.219.469 7.22 4.288 6.758 8.473-.47 4.215-4.291 7.214-8.479 6.75-4.22-.469-7.221-4.289-6.758-8.474.469-4.216 4.29-7.214 8.479-6.749"/><path fill="#ea4e64" d="M158.035 129.109c4.22.47 7.221 4.289 6.758 8.473-.469 4.217-4.29 7.215-8.479 6.751-4.219-.47-7.22-4.29-6.758-8.474.47-4.216 4.291-7.214 8.479-6.75"/><path fill="#ff893a" d="M138.607 156.197c4.219.469 7.22 4.288 6.757 8.473-.469 4.216-4.29 7.214-8.478 6.749-4.22-.469-7.221-4.288-6.758-8.473.469-4.217 4.29-7.214 8.479-6.749"/></svg>