<svg xmlns="http://www.w3.org/2000/svg" width="350" height="67" fill="none" viewBox="0 0 350 67"><path fill="#6f4bbb" d="m20.615 52.191 10.231.002.007 8.69-10.044-.002c-1.59-.68-2.898-1.647-3.849-2.78.373-1.875 1.757-4.323 3.655-5.91"/><path fill="#7d5dc2" d="M21.207 52.917c-1.353 1.36-2.692 3.007-3.142 4.881.81.937 1.87 1.663 3.007 2.192h8.596l-.005-7.072z"/><path fill="#9478cf" d="M18.844 55.88c-.265.363-.762 1.829-.793 1.92.81.937 1.87 1.662 3.007 2.191h4.578l-.003-3.792a85 85 0 0 1-6.79-.319"/><path fill="#5f3ea7" d="M20.573 59.04c1.06.348 1.558.998 1.715 1.844h-3.69c.248-.726.948-1.617 1.975-1.844"/><path fill="#6f4bbb" d="M20.558 59.433c-.576.151-1.059.59-1.37 1.089h1.386v-1.089z"/><path fill="#5f3ea7" d="M24.217 58.829c1.417.377 2.103 1.3 2.275 2.055h-4.92c.326-.801 1.322-1.874 2.645-2.055"/><path fill="#6f4bbb" d="M24.185 59.206c-.778.136-1.541.665-1.992 1.315h2.024v-1.315zm18.928-7.016-10.23-.001.006 8.69 10.044.001c1.588-.68 2.895-1.647 3.844-2.78-.36-1.874-1.747-4.322-3.664-5.91"/><path fill="#7d5dc2" d="M42.538 52.916c1.356 1.36 2.696 3.008 3.149 4.882-.81.936-1.867 1.662-3.004 2.19h-8.596l-.005-7.073z"/><path fill="#9478cf" d="M44.89 55.879c.265.362.765 1.828.796 1.919-.81.937-1.868 1.662-3.004 2.19h-4.578l-.003-3.793a85 85 0 0 0 6.79-.316"/><path fill="#5f3ea7" d="M43.178 59.038c-1.059.347-1.556.997-1.712 1.843h3.69c-.249-.725-.95-1.617-1.978-1.843"/><path fill="#6f4bbb" d="M43.195 59.43c.577.151 1.06.59 1.371 1.089H43.18V59.43z"/><path fill="#5f3ea7" d="M39.536 58.827c-1.417.377-2.101 1.299-2.272 2.054h4.92c-.327-.8-1.325-1.873-2.648-2.054"/><path fill="#6f4bbb" d="M39.55 59.204c.78.136 1.543.665 1.995 1.315h-2.024l-.001-1.315z"/><path fill="#5f3ea7" d="M4.52 54.869c.063 1.587.438 2.826 1.155 3.597 1.121-.09 2.07-1.3 2.506-2.342-.655-1.104-1.933-1.603-3.661-1.255"/><path fill="#6f4bbb" d="M5.097 55.307c.031.922.281 1.875.796 2.57l.434-2.51c-.39-.09-.81-.09-1.23-.06"/><path fill="#5f3ea7" d="M7.353 55.715c.11 1.42.298 2.675 1.218 3.945 1.65-.347 2.942-1.239 3.486-2.66-.81-1.798-2.742-2.04-4.704-1.285"/><path fill="#6f4bbb" d="m8.804 59.056 1.104-3.16c-.623-.12-1.324-.03-1.994.182.11 1.073.298 2.026.89 2.978"/><path fill="#5f3ea7" d="M12.772 56.879c.282 1.617 1.855 2.418 2.65 2.373.357-.59.715-1.36.714-2.282l-.686-.56c-1.043-.196-2.149-.12-2.678.469"/><path fill="#6f4bbb" d="M15.14 58.708c.311-.454.513-1.15.544-1.814l-1.121-.182z"/><path fill="#6f4bbb" d="m16.142 35.199.016 21.754c-3.879.468-8.396.316-11.638-2.103.06-2.026.262-4.006.634-5.896.699-3.416 2.02-6.53 4.309-9.085 2.023-2.252 4.047-3.325 6.679-4.67"/><path fill="#9478cf" d="M5.61 54.352c2.026 1.512 6.887 1.98 9.441 1.664l-.014-19.064c-6.587 3.4-9.2 9.674-9.427 17.4"/><path fill="#a58dd4" d="M5.61 54.353c1.03.771 2.774 1.255 4.598 1.527.261-4.853.225-12.155-.898-14.09-2.444 3.371-3.547 7.68-3.7 12.563"/><path fill="#9478cf" d="M10.2 51.118c.857 0 1.543.666 1.543 1.497s-.684 1.496-1.54 1.496c-.857 0-1.543-.665-1.543-1.496 0-.832.684-1.497 1.54-1.497"/><path fill="#6f4bbb" d="M13.85 18.229c-.453-2.827.044-4.293.634-6.878 1.854 1.497 3.039 2.57 5.298 3.674.45-2.736 1.444-5.32 2.891-7.739l.856-1.42c3.303 2.418 6.124 4.354 8.306 7.559 2.178-3.205 4.996-5.14 8.296-7.557l.858 1.42c1.45 2.42 2.448 5.005 2.902 7.74 2.258-1.103 3.44-2.176 5.293-3.672.609 2.57 1.093 4.036.643 6.878l4.082 1.089c-.803 10.339-1.622 19.151-2.658 29.49a388 388 0 0 1-.448 4.278c-.046.408-.56 1.149-2.74 1.164a253 253 0 0 1-32.442-.005c-2.18-.03-2.695-.756-2.742-1.164a412 412 0 0 1-.455-4.354l-.188-1.783c-.894-9.221-1.773-18.412-2.512-27.648l4.08-1.087h.046z"/><path fill="#9478cf" d="M23.981 8.027c-1.758 2.902-2.737 5.97-2.921 9.145a21.2 21.2 0 0 1-5.64-3.16c-.357 1.542-.278 3.552.206 5.306-1.495.332-2.88.68-4.267 1.072.755 9.493 1.463 18.986 2.435 28.449.094.937.298 2.962.408 3.9.39.211 1.2.211 1.527.226 10.715.697 21.555.699 32.27.005.342-.03 1.137-.03 1.526-.227.108-.922.31-2.992.402-3.9.943-9.477 1.653-18.97 2.393-28.447a76 76 0 0 0-4.268-1.074c.481-1.753.558-3.763.199-5.305-1.76 1.42-3.83 2.493-5.636 3.158-.19-3.16-1.173-6.243-2.935-9.145-3.58 2.63-5.93 4.533-7.843 8.342-1.934-3.81-4.272-5.714-7.871-8.345z"/><path fill="#a58dd4" d="M23.986 8.027c.268 4.218 1.362 8.904 3.42 10.87-2.742-.288-4.207-.605-6.326-1.724a21 21 0 0 1-5.658-3.16c.953 2.781 1.873 4.762 3.76 6.697-1.605-.03-2.525-.544-3.553-1.391-1.496.332-2.882.68-4.268 1.073.754 9.494 1.462 18.988 2.435 28.452.094.937.298 2.963.408 3.9.39.212 1.2.212 1.526.227 5.36.349 10.75.516 16.14.516l-.004-5.654c-8.318.634-15.93-12.096-7.196-20.455l-1.744.937c-.22-1.346.216-3.024.791-4.384 1.135-2.646 4.156-4.61 8.128-5.079l-.001-2.494c-1.935-3.81-4.257-5.715-7.858-8.331"/><path fill="#7d5dc2" d="M44.501 20.705c1.868-1.935 2.801-3.93 3.75-6.711.358 1.542.282 3.552-.2 5.306-1.027.861-1.945 1.375-3.55 1.405m-3.162-.786c.934 0 1.683.74 1.683 1.632 0 .907-.762 1.633-1.68 1.633-.935 0-1.684-.741-1.684-1.633s.762-1.633 1.68-1.632m6.155 3.689c.639 0 1.169.514 1.169 1.134s-.529 1.133-1.167 1.133c-.639 0-1.169-.514-1.17-1.134 0-.634.514-1.133 1.168-1.133m-11.202-4.733c2.054-1.95 3.141-6.636 3.403-10.869 1.762 2.903 2.745 5.972 2.935 9.146-2.133 1.119-3.597 1.436-6.338 1.723"/><path fill="#9478cf" d="M16.585 22.298c1.527 0 2.774 1.21 2.775 2.691 0 1.482-1.244 2.69-2.771 2.69s-2.774-1.21-2.775-2.69c0-1.482 1.245-2.692 2.771-2.691M14.8 30.552c.607 0 1.106.483 1.106 1.073s-.497 1.073-1.105 1.073c-.607 0-1.106-.484-1.107-1.073 0-.59.498-1.073 1.106-1.073"/><path fill="#d3e8ef" d="M32.029 23.766c6.587 0 11.933 5.186 11.938 11.58.004 6.394-5.334 11.578-11.921 11.577-6.588-.002-11.934-5.187-11.938-11.58-.005-6.394 5.333-11.578 11.92-11.577"/><path fill="#fff" d="M20.418 32.712c1.04-4.353 4.62-7.769 9.136-8.69 4.92-.362 8.91 2.98 8.913 7.529.004 4.58-4.043 8.645-9.01 9.067-4.984.423-9.02-2.933-9.023-7.528-.016-.121-.016-.257-.016-.378"/><path fill="#ea4e64" d="M35.707 30.9c3.722.001 6.73 2.919 6.733 6.532s-3.001 6.529-6.723 6.528c-3.722 0-6.73-2.918-6.733-6.53-.003-3.598 3-6.53 6.723-6.53"/><path fill="#ec6277" d="M35.707 30.9a6.7 6.7 0 0 1 2.758.575v.076c.003 4.459-3.826 8.434-8.653 9.038a6.4 6.4 0 0 1-.843-3.16c-.003-3.612 3-6.53 6.738-6.529"/><path fill="#232323" d="M35.71 33.198c2.413 0 4.377 1.89 4.379 4.248.001 2.343-1.944 4.247-4.374 4.247-2.414 0-4.377-1.89-4.379-4.248-.002-2.343 1.944-4.248 4.373-4.247"/><path fill="#323232" d="M35.708 33.198a4.44 4.44 0 0 1 2.399.696c-.839 2.705-3.049 5.002-5.882 6.09a4.2 4.2 0 0 1-.875-2.54c-.017-2.342 1.928-4.247 4.358-4.246"/><path fill="#fff" d="M30.945 32.548c1.526 0 2.757 1.194 2.758 2.676.001 1.48-1.228 2.675-2.755 2.675s-2.757-1.195-2.758-2.676 1.228-2.675 2.755-2.675"/><path fill="#6f4bbb" d="M18.01 40.653c3.394-1.813 8.504 1.362 8.134 6.5-3.24-.967-6.746-3.93-8.134-6.5"/><path fill="#a58dd4" d="M18.01 40.654c3.083.06 6.495 1.754 8.134 6.5-3.878-.424-7.493-3.296-8.134-6.5"/><path fill="#7d5dc2" d="M19.616 44.948c.452-.152 2.57-.106 2.742.12.202.273-.358 1.663-.949 2.57-.779-.605-1.418-1.436-1.793-2.69"/><path fill="#fff" d="M18.994 44.449c.451-.151 2.57-.106 2.74.12.203.273-.356 1.664-.948 2.57-.779-.604-1.418-1.436-1.793-2.69"/><path fill="#6f4bbb" d="M19.63 43.738c.143 2.917 4.07 5.729 7.79 4.687.204.846-.388 1.345-.995 1.466-3.38.286-6.635-1.785-7.712-4.43-.312-.725.03-1.632.918-1.723m-.635 5.474c.935 1.708 2.4 2.509 4.004 2.766-2.288.997-4.314-.333-4.004-2.766"/><path fill="#9478cf" d="M20.537 49.62c1.838.997 3.582 1.315 5.606 1.133-1.479.952-4.375 1.057-5.606-1.133"/><path fill="#5f3ea7" d="M36.157 20.482c-3.695-6.197-13.41-2.587-12.424 4.366 2.427-3.9 7.113-5.168 12.424-4.366"/><path fill="#6f4bbb" d="M36.156 20.48c-2.09-3.49-6.48-3.718-9.422-1.8-.015.817.235 1.406.686 1.874 2.382-1.117 5.496-1.57 8.736-.074m19.328 23.574c3.878 0 7.057 3.023 7.06 6.802.003 3.78-3.172 6.802-7.05 6.801s-7.057-3.024-7.06-6.803 3.172-6.801 7.05-6.8"/><path fill="#9478cf" d="M55.485 45.051c3.333 0 6.029 2.6 6.031 5.79.003 3.204-2.69 5.789-6.023 5.788s-6.029-2.6-6.03-5.79c-.003-3.189 2.705-5.788 6.022-5.788"/><path fill="#a58dd4" d="M55.485 45.05c2.367 0 4.408 1.316 5.407 3.22.22 3.023-3.579 5.245-6.118 4.201-1.87-.982-3.163-2.902-3.165-5.094 0-.362.03-.71.108-1.058a6.26 6.26 0 0 1 3.768-1.269"/><path fill="#2b3039" d="M53.027 49.949c-.281-.832 2.927-1.875 3.223-1.043l3.185 9.237c.28.831-2.927 1.874-3.224 1.042z"/><path fill="#5f3ea7" d="M57.637 49.011c-1.261.756-2.304 1.496-3.05 2.872 1.075 1.27 2.492 1.965 4.05 1.784 1.26-1.541.605-3.31-1-4.656"/><path fill="#6f4bbb" d="M58.62 51.127c-.188-.529-.53-1.028-.967-1.511-.965.604-1.759 1.254-2.365 2.19.67.062 1.713-.105 3.332-.679"/><path fill="#5f3ea7" d="M58.853 52.716c-1.261.755-2.304 1.496-3.05 2.871 1.075 1.27 2.493 1.965 4.05 1.784 1.26-1.541.605-3.31-1-4.655"/><path fill="#6f4bbb" d="M59.836 54.68c-.187-.528-.53-1.027-.967-1.51-.965.603-1.758 1.253-2.365 2.19.67.076 1.713-.105 3.332-.68"/><path fill="#5f3ea7" d="M52.282 53.079c1.199-.287 2.258-.469 3.55-.106.157 1.36-.231 2.6-1.243 3.386-1.682-.136-2.4-1.557-2.307-3.28"/><path fill="#6f4bbb" d="M53.017 54.726c-.218-.423-.328-.907-.375-1.436.934-.211 1.79-.302 2.741-.105-.342.438-1.058.937-2.366 1.54"/><path fill="#393f4c" d="M49.871 28.058c-6.37.346-11.24 5.651-10.877 11.833s5.832 10.914 12.202 10.568 11.24-5.652 10.877-11.834-5.817-10.914-12.202-10.567"/><path fill="#d3e8ef" d="M49.966 29.448c-5.576.302-9.855 4.957-9.54 10.383.316 5.411 5.116 9.569 10.706 9.252 5.576-.301 9.855-4.956 9.54-10.383-.331-5.41-5.116-9.568-10.706-9.252"/><path fill="#fff" d="M58.244 44.125a8.8 8.8 0 0 0 1.476-5.382c-.236-3.915-3.027-7.105-6.72-8.088-.293 3.386-.602 6.712-.927 10.128 1.231.484 4.41 2.026 6.171 3.342m-8.431-13.589c-4.86.272-8.578 4.307-8.28 9.023a8.6 8.6 0 0 0 .345 1.92 4 4 0 0 1-.032-.423c-.315-5.472 3.98-10.157 9.618-10.474h.047a13 13 0 0 0-1.698-.046"/><path fill="#999" d="M41.88 44.35q.281.454.607.862l2.987-4.02 6.885 2.782 3.98-7.994 4.003.74c-.109-.362-.218-.724-.359-1.072l-4.205-.787-3.902 7.843-6.73-2.72z"/><path fill="#1ec185" d="M45.178 38.564c1.152-.06 2.134.786 2.197 1.905s-.809 2.07-1.961 2.13-2.134-.785-2.197-1.904c-.079-1.103.808-2.056 1.96-2.131"/><path fill="#ea4e64" d="M55.933 33.406c1.152-.06 2.134.787 2.197 1.905.063 1.119-.808 2.07-1.96 2.131-1.153.06-2.135-.786-2.198-1.905-.079-1.118.808-2.07 1.96-2.13"/><path fill="#338eef" d="M51.982 41.33c1.152-.06 2.134.787 2.197 1.905.063 1.119-.808 2.07-1.96 2.131-1.153.06-2.135-.786-2.198-1.905-.079-1.118.808-2.07 1.96-2.13"/><path fill="#23262e" d="M81.544 10.87q.495 0 1.026.284.565.247.85.672l8.6 13.238-1.77-.071 8.814-13.167q.672-.956 1.734-.956.85 0 1.522.602.672.601.672 1.558v20.493q0 .92-.601 1.557-.602.602-1.593.602t-1.628-.602q-.602-.638-.602-1.557v-16.67l1.38.318-7.22 11.007q-.319.39-.814.673a1.58 1.58 0 0 1-.956.248q-.46.034-.955-.248a3.1 3.1 0 0 1-.779-.673l-6.76-10.689.92-1.876v17.91q0 .92-.566 1.557-.567.602-1.487.602-.885 0-1.451-.602-.566-.638-.566-1.557V13.029q0-.885.637-1.521.672-.637 1.593-.637m44.785 15.362q0 2.902-1.309 5.132a9.15 9.15 0 0 1-3.469 3.433q-2.159 1.239-4.849 1.239t-4.884-1.239q-2.16-1.239-3.469-3.433-1.274-2.23-1.274-5.132t1.274-5.097q1.31-2.23 3.469-3.469 2.194-1.275 4.884-1.274t4.849 1.274q2.194 1.239 3.469 3.469 1.31 2.194 1.309 5.097m-4.247 0q0-1.806-.743-3.115-.708-1.345-1.947-2.088-1.203-.744-2.69-.744t-2.725.744q-1.204.742-1.947 2.088-.708 1.31-.708 3.115 0 1.77.708 3.114.743 1.31 1.947 2.053a5.2 5.2 0 0 0 2.725.743q1.487 0 2.69-.743a5.26 5.26 0 0 0 1.947-2.053q.743-1.345.743-3.114m18.087-9.84q2.62 0 3.964 1.097 1.381 1.097 1.876 2.938.531 1.805.531 4.035v9.06q0 .92-.602 1.558-.601.602-1.521.602t-1.522-.602q-.602-.638-.602-1.557v-9.061q0-1.169-.319-2.088a2.8 2.8 0 0 0-1.062-1.522q-.779-.567-2.229-.567-1.416 0-2.407.567a4 4 0 0 0-1.487 1.522q-.495.92-.495 2.088v9.06q0 .92-.602 1.558-.601.602-1.522.602-.92 0-1.522-.602-.602-.638-.602-1.557V18.905q0-.92.602-1.522.602-.637 1.522-.637t1.522.637q.602.602.602 1.522v1.522l-.531-.106q.318-.602.92-1.274a8.4 8.4 0 0 1 1.416-1.31 6.8 6.8 0 0 1 1.84-.956 6.2 6.2 0 0 1 2.23-.389m9.865 16.352q-.354-.495-.319-1.274.036-.779.92-1.345.567-.354 1.204-.283.637.035 1.239.637 1.026 1.026 2.159 1.593 1.133.566 2.831.566.53-.035 1.168-.142a2.33 2.33 0 0 0 1.097-.566q.496-.46.496-1.38 0-.779-.531-1.24-.531-.459-1.416-.778a21 21 0 0 0-1.911-.602 60 60 0 0 1-2.265-.707q-1.132-.39-2.089-.991a5 5 0 0 1-1.557-1.664q-.602-1.026-.602-2.584 0-1.77.991-3.008.992-1.239 2.549-1.912a8.5 8.5 0 0 1 3.327-.672q1.096 0 2.301.283a8.2 8.2 0 0 1 2.3.85 5.5 5.5 0 0 1 1.841 1.522q.389.53.46 1.274.07.743-.673 1.345a1.77 1.77 0 0 1-1.238.39q-.708-.072-1.168-.497-.602-.778-1.629-1.238-.99-.46-2.3-.46-.532 0-1.168.141a2.07 2.07 0 0 0-1.062.531q-.46.39-.46 1.274 0 .815.531 1.31.531.46 1.415.779.921.282 1.947.566a28 28 0 0 1 2.159.672q1.097.39 2.018 1.027t1.486 1.663q.567.991.567 2.549 0 1.805-1.062 3.079a6.9 6.9 0 0 1-2.655 1.947 8.7 8.7 0 0 1-3.256.637q-2.088 0-4.177-.708-2.088-.744-3.468-2.584M168.418 17.1h8.389q.849 0 1.416.566.566.567.566 1.416a1.88 1.88 0 0 1-.566 1.38q-.567.531-1.416.531h-8.389q-.85 0-1.415-.566-.567-.567-.567-1.416 0-.813.567-1.345.566-.566 1.415-.566m3.787-4.424q.921 0 1.487.637.602.6.602 1.522v15.75q0 .495.177.814.212.319.531.46.353.142.743.142.425 0 .779-.142.354-.177.814-.177.495 0 .885.46.424.46.424 1.275 0 .99-1.097 1.628a4.4 4.4 0 0 1-2.301.637q-.743 0-1.663-.106a5 5 0 0 1-1.699-.602q-.779-.495-1.31-1.487-.531-.99-.531-2.725V14.835q0-.92.602-1.522a2.12 2.12 0 0 1 1.557-.637m19.23 23.36q-3.009 0-5.238-1.239-2.195-1.275-3.398-3.433-1.168-2.16-1.168-4.885 0-3.184 1.274-5.415 1.31-2.265 3.398-3.469t4.424-1.203q1.806 0 3.398.743a9.1 9.1 0 0 1 2.867 2.053 9.4 9.4 0 0 1 1.947 2.973 8.9 8.9 0 0 1 .743 3.61 1.82 1.82 0 0 1-.673 1.38 2.25 2.25 0 0 1-1.486.532h-13.521l-1.062-3.54h12.99l-.778.708v-.955a3.17 3.17 0 0 0-.744-1.84 4.35 4.35 0 0 0-1.628-1.275 4.4 4.4 0 0 0-2.053-.496q-1.061 0-1.982.284a3.8 3.8 0 0 0-1.593.955q-.672.672-1.061 1.805-.39 1.133-.39 2.867 0 1.911.779 3.256.814 1.31 2.053 2.018a5.7 5.7 0 0 0 2.69.672q1.31 0 2.088-.212.778-.213 1.239-.495.495-.32.885-.531.637-.32 1.203-.319.779 0 1.274.531.531.531.531 1.239 0 .956-.991 1.734-.92.78-2.584 1.38a10.6 10.6 0 0 1-3.433.567m14.082-.354q-.92 0-1.522-.602-.603-.638-.602-1.557V18.905q0-.92.602-1.522.601-.637 1.522-.637.92 0 1.521.637.602.602.602 1.522v3.327l-.248-2.371q.39-.85.991-1.487a5.7 5.7 0 0 1 1.416-1.097 6 6 0 0 1 1.664-.673 7.6 7.6 0 0 1 1.769-.212q1.062 0 1.77.602.743.6.743 1.416 0 1.167-.601 1.698-.602.495-1.31.496a3.1 3.1 0 0 1-1.239-.248q-.53-.248-1.238-.248a3.05 3.05 0 0 0-1.31.319q-.638.283-1.203.92-.531.637-.885 1.593-.32.92-.319 2.194v8.389q0 .92-.602 1.557-.601.602-1.521.602"/><path fill="#338eef" d="M223.518 33.523q0 .92-.673 1.557a2.26 2.26 0 0 1-1.557.602q-.992 0-1.593-.602-.601-.638-.601-1.557V13.065q0-.92.637-1.522.636-.637 1.628-.637.85 0 1.486.637.673.601.673 1.522zm15.092-17.131q2.619 0 3.964 1.097 1.38 1.097 1.876 2.938.531 1.805.531 4.035v9.06q0 .92-.602 1.558-.602.602-1.522.602t-1.522-.602q-.602-.638-.602-1.557v-9.061q0-1.169-.318-2.088a2.82 2.82 0 0 0-1.062-1.522q-.778-.567-2.23-.567-1.416 0-2.407.567a4 4 0 0 0-1.486 1.522q-.496.92-.496 2.088v9.06q0 .92-.601 1.558-.603.602-1.522.602-.92 0-1.522-.602-.602-.638-.602-1.557V18.905q0-.92.602-1.522.601-.637 1.522-.637.92 0 1.522.637.601.602.601 1.522v1.522l-.531-.106q.319-.602.921-1.274a8.4 8.4 0 0 1 1.415-1.31 6.8 6.8 0 0 1 1.841-.956 6.2 6.2 0 0 1 2.23-.389m9.864 16.352q-.354-.495-.318-1.274t.92-1.345q.566-.354 1.203-.283.638.035 1.239.637 1.026 1.026 2.159 1.593 1.132.566 2.832.566.53-.035 1.168-.142.636-.141 1.097-.566.495-.46.495-1.38 0-.779-.53-1.24-.531-.459-1.416-.778a21 21 0 0 0-1.912-.602 61 61 0 0 1-2.265-.707q-1.132-.39-2.088-.991a5 5 0 0 1-1.557-1.664q-.602-1.026-.602-2.584 0-1.77.991-3.008.991-1.239 2.548-1.912a8.5 8.5 0 0 1 3.327-.672q1.098 0 2.301.283a8.2 8.2 0 0 1 2.301.85 5.5 5.5 0 0 1 1.84 1.522q.39.53.46 1.274.07.743-.672 1.345a1.78 1.78 0 0 1-1.239.39q-.708-.072-1.168-.497-.602-.778-1.628-1.238-.992-.46-2.301-.46a5.4 5.4 0 0 0-1.168.141 2.07 2.07 0 0 0-1.062.531q-.46.39-.46 1.274 0 .815.531 1.31.531.46 1.416.779.92.282 1.947.566 1.062.284 2.159.672 1.097.39 2.017 1.027t1.487 1.663q.566.991.566 2.549 0 1.805-1.062 3.079a6.9 6.9 0 0 1-2.654 1.947 8.7 8.7 0 0 1-3.257.637q-2.088 0-4.176-.708-2.089-.744-3.469-2.584m22.172.779q0 .92-.602 1.557-.601.602-1.522.602-.92 0-1.522-.602-.601-.638-.601-1.557V18.905q0-.92.601-1.522.602-.637 1.522-.637t1.522.637q.602.602.602 1.522zm-2.159-19.078q-1.204 0-1.699-.389-.495-.39-.496-1.38v-.673q0-1.026.531-1.38.567-.39 1.699-.39 1.239 0 1.735.39.495.39.495 1.38v.673q0 1.026-.531 1.415-.531.354-1.734.354m14.382 1.947q1.486 0 2.725.46t2.124 1.168q.92.708 1.415 1.451.531.708.531 1.204l-.92.46V18.55q0-.92.602-1.522.601-.637 1.522-.637.92 0 1.522.602.601.6.601 1.557V34.3q0 3.08-1.345 4.92a7.26 7.26 0 0 1-3.468 2.69q-2.16.85-4.637.85-.708 0-1.84-.177a27 27 0 0 1-2.159-.425q-1.027-.248-1.558-.46-1.062-.46-1.486-1.168-.39-.672-.142-1.451.319-1.028 1.026-1.416.708-.354 1.487-.07.354.105 1.168.424a16 16 0 0 0 1.77.566q.99.283 1.734.283 2.655 0 3.929-1.061 1.274-1.062 1.274-2.938v-3.08l.425.32q0 .459-.496 1.132-.46.637-1.309 1.274-.815.637-1.947 1.097a6.8 6.8 0 0 1-2.407.425q-2.513 0-4.53-1.239-2.018-1.275-3.186-3.469-1.168-2.23-1.168-5.096 0-2.902 1.168-5.097 1.168-2.23 3.15-3.469 1.982-1.275 4.425-1.274m.672 3.893q-1.593 0-2.796.779a5.3 5.3 0 0 0-1.876 2.124q-.672 1.344-.672 3.044 0 1.663.672 3.008a5.3 5.3 0 0 0 1.876 2.124q1.203.778 2.796.778 1.628 0 2.832-.778 1.203-.78 1.876-2.124t.672-3.008q0-1.7-.672-3.044-.673-1.346-1.876-2.124-1.204-.78-2.832-.779m23.987-3.893q2.548 0 3.858 1.097 1.344 1.097 1.84 2.938.496 1.805.496 4.035v9.06q0 .92-.602 1.558-.601.602-1.522.602-.92 0-1.522-.602-.602-.638-.602-1.557v-9.061q0-1.169-.283-2.088-.284-.956-1.026-1.522-.744-.567-2.124-.567-1.345 0-2.301.567a3.75 3.75 0 0 0-1.451 1.522q-.46.92-.46 2.088v9.06q0 .92-.602 1.558-.601.602-1.521.602t-1.522-.602q-.603-.638-.602-1.557V11.649q0-.92.602-1.522.601-.637 1.522-.637.92 0 1.521.637.602.602.602 1.522v8.778l-.531-.106q.32-.602.885-1.274a7.3 7.3 0 0 1 1.381-1.31 7 7 0 0 1 1.805-.956 5.9 5.9 0 0 1 2.159-.389m11.005.708h8.389q.85 0 1.415.566.567.567.567 1.416 0 .814-.567 1.38-.566.531-1.415.531h-8.389q-.849 0-1.416-.566-.566-.567-.566-1.416 0-.813.566-1.345.567-.566 1.416-.566m3.787-4.424q.92 0 1.487.637.602.6.602 1.522v15.75q0 .495.177.814.212.319.53.46.354.142.744.142.424 0 .778-.142.354-.177.814-.177.496 0 .885.46.425.46.425 1.275 0 .99-1.097 1.628a4.4 4.4 0 0 1-2.301.637q-.743 0-1.663-.106a5 5 0 0 1-1.699-.602q-.779-.495-1.31-1.487-.531-.99-.531-2.725V14.835q0-.92.602-1.522a2.12 2.12 0 0 1 1.557-.637m10.077 20.068q-.354-.495-.318-1.274t.92-1.345q.567-.354 1.204-.283.636.035 1.238.637 1.027 1.026 2.159 1.593 1.133.566 2.832.566.53-.035 1.168-.142.637-.141 1.097-.566.496-.46.496-1.38 0-.779-.531-1.24-.531-.459-1.416-.778a21 21 0 0 0-1.911-.602 60 60 0 0 1-2.266-.707q-1.132-.39-2.088-.991a5 5 0 0 1-1.557-1.664q-.602-1.026-.602-2.584 0-1.77.991-3.008.991-1.239 2.549-1.912a8.5 8.5 0 0 1 3.327-.672q1.097 0 2.3.283a8.2 8.2 0 0 1 2.301.85 5.5 5.5 0 0 1 1.84 1.522q.39.53.461 1.274.07.743-.673 1.345a1.78 1.78 0 0 1-1.239.39q-.708-.072-1.168-.497-.602-.778-1.628-1.238-.99-.46-2.301-.46-.53 0-1.168.141-.602.107-1.061.531-.46.39-.46 1.274 0 .815.53 1.31.531.46 1.416.779.921.282 1.947.566 1.062.284 2.159.672 1.097.39 2.017 1.027t1.487 1.663q.566.991.566 2.549 0 1.805-1.062 3.079a6.9 6.9 0 0 1-2.654 1.947 8.7 8.7 0 0 1-3.256.637q-2.09 0-4.177-.708-2.088-.744-3.469-2.584"/><path fill="#7a90a9" d="M81.499 54.188q.86 0 1.34-.24.752-.375.752-1.353 0-.984-.8-1.326-.451-.191-1.34-.191h-2.427v3.11zm.458 4.635q1.251 0 1.784-.725.335-.458.335-1.107 0-1.094-.977-1.49-.52-.213-1.374-.212h-2.7v3.534zm-4.266-8.88h4.314q1.763 0 2.508 1.053.438.622.438 1.435 0 .95-.54 1.559-.28.321-.807.587.772.295 1.156.664.675.655.676 1.811a2.8 2.8 0 0 1-.608 1.757q-.909 1.176-2.892 1.176h-4.245zm12.257 2.556q.78 0 1.51.37.733.362 1.115.943.369.554.492 1.292.11.506.11 1.613h-5.367q.035 1.115.527 1.791.492.67 1.524.67.965 0 1.538-.636.33-.369.465-.854h1.21q-.048.404-.321.902a3.2 3.2 0 0 1-.602.807q-.56.546-1.387.738-.445.11-1.005.11-1.368 0-2.318-.992-.95-.998-.95-2.789 0-1.763.957-2.864t2.502-1.1m1.962 3.24q-.075-.8-.349-1.278-.506-.888-1.688-.888-.848 0-1.422.615-.575.608-.608 1.552zm3.514 1.949q.054.615.307.943.465.595 1.614.595a2.4 2.4 0 0 0 1.203-.294q.52-.3.52-.923a.79.79 0 0 0-.418-.718q-.266-.15-1.053-.348l-.977-.246q-.937-.233-1.38-.52-.795-.5-.794-1.38 0-1.04.745-1.682.753-.643 2.017-.643 1.654 0 2.386.97.458.615.444 1.327h-1.162a1.4 1.4 0 0 0-.294-.759q-.424-.485-1.47-.485-.697 0-1.06.266a.84.84 0 0 0-.355.705q0 .478.472.765.273.171.806.3l.814.2q1.326.32 1.777.621.718.473.718 1.484 0 .977-.745 1.688-.738.711-2.256.711-1.635 0-2.317-.738-.677-.745-.725-1.84zm6.514-7.068h1.244v2.044h1.169v1.004h-1.169v4.779q0 .383.26.512.143.075.479.075h.191a7 7 0 0 0 .239-.02v.97q-.212.062-.444.09a4 4 0 0 1-.492.027q-.861 0-1.169-.437-.308-.445-.308-1.149v-4.847h-.991v-1.005h.991zm12.052-.937q1.415 0 2.447.547 1.497.786 1.832 2.755h-1.346q-.246-1.1-1.019-1.6-.772-.506-1.948-.506-1.395 0-2.352 1.046-.95 1.045-.95 3.117 0 1.79.786 2.92.786 1.12 2.564 1.12 1.36 0 2.249-.786.895-.792.916-2.556h-3.145v-1.128h4.409v5.373h-.875l-.328-1.292q-.69.759-1.223 1.053-.895.505-2.277.505-1.784 0-3.069-1.155-1.401-1.449-1.401-3.978 0-2.523 1.367-4.013 1.299-1.422 3.363-1.422m9.297 9.509q1.224 0 1.675-.923.458-.93.458-2.064 0-1.026-.328-1.669-.52-1.011-1.791-1.011-1.128 0-1.641.861t-.513 2.078q0 1.17.513 1.949t1.627.779m.048-6.74q1.415 0 2.392.943.978.943.978 2.775 0 1.77-.861 2.926-.862 1.155-2.673 1.155-1.51 0-2.4-1.018-.888-1.026-.888-2.748 0-1.845.936-2.94.937-1.093 2.516-1.093m7.745 6.74q1.224 0 1.675-.923.458-.93.458-2.064 0-1.026-.328-1.669-.52-1.011-1.791-1.011-1.128 0-1.641.861t-.513 2.078q0 1.17.513 1.949t1.627.779m.048-6.74q1.415 0 2.392.943.978.943.978 2.775 0 1.77-.861 2.926-.863 1.155-2.673 1.155-1.51 0-2.4-1.018-.888-1.026-.888-2.748 0-1.845.936-2.94.937-1.093 2.516-1.093m7.424.082q.86 0 1.504.423.348.24.71.698v-.923h1.135v6.658q0 1.394-.41 2.201-.765 1.49-2.892 1.49-1.182 0-1.989-.533-.807-.526-.902-1.654h1.251q.089.492.355.759.417.41 1.313.41 1.415 0 1.852-.998.26-.588.24-2.099a2.4 2.4 0 0 1-.889.834q-.519.274-1.374.274-1.19 0-2.085-.841-.888-.847-.889-2.796 0-1.839.896-2.871.902-1.032 2.174-1.032m2.214 3.76q0-1.362-.56-2.017a1.8 1.8 0 0 0-1.429-.657q-1.299 0-1.777 1.217-.253.65-.253 1.702 0 1.238.499 1.887.506.643 1.353.643 1.327 0 1.867-1.197.3-.675.3-1.579m3.029-6.351h1.23v10.042h-1.23zm6.132 2.556q.779 0 1.51.37.731.362 1.115.943.369.554.492 1.292.11.506.109 1.613h-5.366q.034 1.115.526 1.791.493.67 1.525.67.963 0 1.538-.636a2.14 2.14 0 0 0 .465-.854h1.21q-.048.404-.322.902a3.2 3.2 0 0 1-.601.807q-.56.546-1.388.738-.444.11-1.005.11-1.367 0-2.317-.992-.95-.998-.95-2.789 0-1.763.957-2.864t2.502-1.1m1.962 3.24q-.076-.8-.349-1.278-.505-.888-1.689-.888-.848 0-1.421.615-.575.608-.609 1.552zm11.231.13-1.524-4.436-1.621 4.437zm-2.235-5.926h1.538l3.643 10.042h-1.49l-1.019-3.008h-3.971l-1.087 3.008h-1.395zm6.255 2.72h1.168v1.04q.52-.643 1.101-.923.58-.28 1.292-.28 1.558 0 2.106 1.086.3.595.3 1.703v4.696h-1.251V55.37q0-.67-.198-1.08-.328-.684-1.189-.684-.438 0-.718.089-.506.15-.889.601a1.85 1.85 0 0 0-.403.752q-.089.383-.089 1.1v3.836h-1.23zm8.736 5.374q0 .532.39.84.389.308.922.308.65 0 1.258-.3 1.026-.5 1.026-1.635v-.99a2.1 2.1 0 0 1-.581.238q-.356.096-.698.137l-.745.096q-.669.089-1.005.28-.567.321-.567 1.025m2.98-2.489q.424-.055.568-.355.082-.165.082-.472 0-.629-.451-.91-.445-.286-1.279-.286-.963 0-1.367.52-.225.285-.294.854h-1.148q.033-1.355.875-1.88.847-.533 1.962-.533 1.291 0 2.098.492.8.492.8 1.531v4.218q0 .192.075.308.083.116.335.116.082 0 .185-.007.102-.014.219-.034v.909a4 4 0 0 1-.438.102q-.15.021-.41.021-.636 0-.923-.451-.15-.24-.212-.677-.376.492-1.08.854a3.34 3.34 0 0 1-1.552.363q-1.018 0-1.668-.615-.642-.622-.642-1.552 0-1.02.635-1.58.636-.56 1.668-.69zm3.904-5.605h1.23v10.042h-1.23zm7.656 2.72h1.36q-.26.704-1.155 3.213-.67 1.887-1.121 3.077-1.066 2.802-1.504 3.417t-1.504.616q-.26 0-.403-.02a3 3 0 0 1-.342-.076v-1.121q.321.09.465.11.143.02.253.02.342 0 .499-.116a1 1 0 0 0 .273-.274q.035-.054.246-.56.213-.507.308-.752l-2.707-7.534h1.394l1.962 5.961zm2.673-2.043h1.244v2.044h1.169v1.004h-1.169v4.779q0 .383.26.512.143.075.478.075h.192q.102-.005.239-.02v.97q-.212.062-.445.09a4 4 0 0 1-.492.027q-.861 0-1.169-.437-.307-.445-.307-1.149v-4.847h-.991v-1.005h.991zm3.65 2.078h1.251v7.287h-1.251zm0-2.755h1.251v1.394h-1.251zm5.941 2.509q1.236 0 2.009.601.78.602.937 2.071h-1.196q-.11-.676-.499-1.12-.39-.452-1.251-.452-1.176 0-1.682 1.149-.328.745-.328 1.838 0 1.101.465 1.853t1.463.752q.765 0 1.209-.465.452-.472.623-1.285h1.196q-.206 1.456-1.026 2.133-.82.67-2.098.67-1.436 0-2.29-1.046-.855-1.053-.855-2.625 0-1.928.937-3.001.936-1.073 2.386-1.073m4.908 5.236q.055.615.307.943.465.595 1.614.595.683 0 1.203-.294.519-.3.519-.923a.79.79 0 0 0-.417-.718q-.266-.15-1.052-.348l-.978-.246q-.936-.233-1.381-.52-.793-.5-.793-1.38 0-1.04.745-1.682.753-.643 2.017-.643 1.654 0 2.386.97.458.615.444 1.327h-1.162a1.43 1.43 0 0 0-.294-.759q-.424-.485-1.47-.485-.697 0-1.059.266a.84.84 0 0 0-.356.705q0 .478.472.765.273.171.807.3l.813.2q1.326.32 1.777.621.718.473.718 1.484 0 .977-.745 1.688-.738.711-2.256.711-1.634 0-2.317-.738-.677-.745-.725-1.84zm10.459-7.745h4.518q1.341 0 2.16.759.82.75.821 2.119 0 1.176-.732 2.05-.73.87-2.249.869h-3.158v4.245h-1.36zm6.125 2.885q0-1.108-.821-1.504-.45-.213-1.237-.212h-2.707v3.48h2.707q.916 0 1.484-.39.574-.39.574-1.374m2.953-2.885h1.23v10.042h-1.23zm4.313 2.72v4.86q0 .561.178.917.328.656 1.224.656 1.284 0 1.75-1.148.252-.615.253-1.689v-3.596h1.23v7.322h-1.162l.014-1.08a2.5 2.5 0 0 1-.595.704q-.704.574-1.709.574-1.566 0-2.133-1.046-.307-.561-.307-1.497v-4.977zm9.147-.13q.86 0 1.504.424.348.24.711.698v-.923h1.134v6.658q0 1.394-.41 2.201-.765 1.49-2.891 1.49-1.183 0-1.99-.533-.806-.526-.902-1.654h1.251q.089.492.356.759.417.41 1.312.41 1.415 0 1.853-.998.26-.588.239-2.099a2.4 2.4 0 0 1-.889.834q-.519.274-1.374.274-1.19 0-2.085-.841-.888-.847-.888-2.796 0-1.839.895-2.871.902-1.032 2.174-1.032m2.215 3.76q0-1.36-.561-2.016a1.8 1.8 0 0 0-1.429-.657q-1.298 0-1.777 1.217-.253.65-.253 1.702 0 1.238.499 1.887.506.643 1.354.643 1.326 0 1.866-1.197.3-.675.301-1.579m2.994-3.595h1.251v7.287h-1.251zm0-2.755h1.251v1.394h-1.251zm3.117 2.72h1.169v1.04q.519-.643 1.101-.923.58-.28 1.292-.28 1.558 0 2.105 1.086.301.595.301 1.703v4.696h-1.251V55.37q0-.67-.198-1.08-.329-.684-1.19-.684-.438 0-.718.089-.505.15-.888.601a1.85 1.85 0 0 0-.404.752q-.089.383-.089 1.1v3.836h-1.23zm11.997-1.114q.027-.766.267-1.12.43-.63 1.661-.63.116 0 .239.007t.28.02v1.122a4 4 0 0 0-.28-.014 2 2 0 0 0-.157-.007q-.56 0-.67.294-.11.288-.109 1.477h1.216v.97h-1.23v6.317h-1.217v-6.317h-1.018v-.97h1.018zm6.494 7.643q1.224 0 1.675-.923.458-.93.458-2.064 0-1.026-.328-1.669-.519-1.011-1.791-1.011-1.128 0-1.641.861-.512.861-.512 2.078 0 1.17.512 1.949.513.779 1.627.779m.048-6.74q1.415 0 2.393.943t.977 2.775q0 1.77-.861 2.926-.861 1.155-2.673 1.155-1.51 0-2.399-1.018-.89-1.026-.889-2.748 0-1.845.936-2.94.937-1.093 2.516-1.093m4.874.212h1.169v1.264q.144-.369.704-.895.561-.534 1.292-.534.035 0 .116.007l.281.028v1.298a2 2 0 0 0-.205-.027 3 3 0 0 0-.199-.007q-.93 0-1.428.602a2.07 2.07 0 0 0-.499 1.374v4.21h-1.231zm9.352-2.721 1.893 8.169 2.27-8.17h1.476l2.27 8.17 1.893-8.17h1.491l-2.639 10.043h-1.429l-2.317-8.326-2.331 8.326h-1.429l-2.625-10.042zm15.052 9.249q1.224 0 1.675-.923.458-.93.458-2.064 0-1.026-.328-1.669-.519-1.011-1.791-1.011-1.128 0-1.641.861-.512.861-.512 2.078 0 1.17.512 1.949.514.779 1.627.779m.048-6.74q1.416 0 2.393.943t.977 2.775q0 1.77-.861 2.926-.861 1.155-2.673 1.155-1.51 0-2.399-1.018-.89-1.026-.889-2.748 0-1.845.937-2.94.937-1.093 2.515-1.093m4.874.212h1.169v1.264q.144-.369.704-.895.561-.534 1.292-.534.035 0 .117.007l.28.028v1.298a2 2 0 0 0-.205-.027 3 3 0 0 0-.199-.007q-.93 0-1.428.602a2.07 2.07 0 0 0-.499 1.374v4.21h-1.231zm5.407 3.746q0 1.175.5 1.968.498.793 1.599.793.855 0 1.401-.731.554-.739.554-2.112 0-1.39-.567-2.051-.567-.67-1.402-.67-.929 0-1.51.71-.575.712-.575 2.093m1.853-3.876q.841 0 1.408.355.328.205.745.718V49.91h1.183v10.076h-1.107v-1.019q-.432.677-1.019.978-.588.3-1.347.3-1.223 0-2.119-1.025-.895-1.032-.895-2.741 0-1.6.813-2.769.82-1.175 2.338-1.175m5.455-2.591h4.519q1.34 0 2.16.759.82.75.82 2.119 0 1.176-.731 2.05-.732.87-2.249.869h-3.159v4.245h-1.36zm6.125 2.885q0-1.108-.82-1.504-.451-.213-1.238-.212h-2.707v3.48h2.707q.917 0 1.484-.39.574-.39.574-1.374m2.953-.165h1.169v1.265q.144-.369.704-.895.561-.534 1.292-.534.035 0 .116.007l.281.028v1.298a2 2 0 0 0-.205-.027 3 3 0 0 0-.199-.007q-.93 0-1.428.602a2.07 2.07 0 0 0-.499 1.374v4.21h-1.231zm7.677-.164q.78 0 1.511.37.731.362 1.114.943.369.554.492 1.292.11.506.11 1.613h-5.367q.035 1.115.527 1.791.492.67 1.524.67.964 0 1.538-.636a2.14 2.14 0 0 0 .465-.854h1.21q-.048.404-.321.902a3.2 3.2 0 0 1-.602.807q-.56.546-1.388.738-.444.11-1.004.11a3.1 3.1 0 0 1-2.318-.992q-.95-.998-.95-2.789 0-1.763.957-2.864t2.502-1.1m1.962 3.24q-.075-.8-.349-1.278-.506-.888-1.688-.888-.848 0-1.422.615-.575.608-.608 1.552zm3.514 1.949q.054.615.307.943.465.595 1.613.595.684 0 1.204-.294.519-.3.519-.923a.79.79 0 0 0-.417-.718q-.267-.15-1.053-.348l-.977-.246q-.936-.233-1.381-.52-.793-.5-.793-1.38 0-1.04.745-1.682.752-.643 2.017-.643 1.654 0 2.386.97.457.615.444 1.327h-1.162a1.43 1.43 0 0 0-.294-.759q-.425-.485-1.47-.485-.697 0-1.06.266a.84.84 0 0 0-.355.705q0 .478.472.765.273.171.806.3l.814.2q1.326.32 1.777.621.718.473.718 1.484 0 .977-.745 1.688-.738.711-2.256.711-1.634 0-2.317-.738-.677-.745-.725-1.84zm7 0q.054.615.307.943.465.595 1.613.595.684 0 1.204-.294.519-.3.519-.923a.79.79 0 0 0-.417-.718q-.267-.15-1.053-.348l-.977-.246q-.936-.233-1.381-.52-.793-.5-.793-1.38 0-1.04.745-1.682.752-.643 2.017-.643 1.654 0 2.386.97.457.615.444 1.327h-1.162a1.43 1.43 0 0 0-.294-.759q-.425-.485-1.47-.485-.697 0-1.06.266a.84.84 0 0 0-.355.705q0 .478.472.765.273.171.806.3l.814.2q1.326.32 1.777.621.718.473.718 1.484 0 .977-.745 1.688-.738.711-2.256.711-1.634 0-2.317-.738-.677-.745-.725-1.84z"/></svg>