<svg xmlns="http://www.w3.org/2000/svg" width="738" height="388" fill="none" viewBox="0 0 738 388"><path fill="#d6e2ed" d="M405.884 2.402h-7.188v7.182h7.188zm118.992 2.693H420.654v1.796h104.222zM405.884 22.099h-7.188v7.182h7.188zm118.992 2.693H420.654v1.796h104.222zM405.884 41.795h-7.188v7.183h7.188zm118.992 2.694H420.654v1.796h104.222zM405.884 61.475h-7.188v7.182h7.188zm118.992 2.693H420.654v1.795h104.222z"/><path fill="#e9f1f8" d="M51.57 320.99H.51v55.967c0 5.523 4.478 10 10 10h41.06z"/><path fill="#d6e2ed" d="M102.762 297.164h-51.06v89.732h51.06z"/><path fill="#e9f1f8" d="M154.018 252.451h-51.06v134.506h51.06zm102.252-32.892h-51.06v167.398h51.06z"/><path fill="#d6e2ed" d="M307.766 193.565h-51.209V387h51.209zm-102.557-17.37H154.15v210.762h51.059z"/><mask id="a" width="359" height="269" x="373" y="119" maskUnits="userSpaceOnUse" style="mask-type:alpha"><path fill="#d9d9d9" d="M373.584 119.964h357.547v267.932H373.584z"/></mask><g mask="url(#a)"><path fill="#fff" d="M433.853 356.585v-72.261h239.494v72.261z"/><path fill="#d6e2ed" d="M659.743 406.901h-128.28v-85.519h-21.38v85.519h-64.139v-85.519h-21.38v85.519a21.376 21.376 0 0 0 21.38 21.38h213.799a21.38 21.38 0 0 0 21.38-21.38v-85.519h-21.38zm61.895-178.843-43.615-87.23a21.38 21.38 0 0 0-19.135-11.865H446.799a21.38 21.38 0 0 0-19.135 11.865l-43.615 87.23a21.4 21.4 0 0 0-2.245 9.621v32.925a21.38 21.38 0 0 0 4.917 13.684 49.93 49.93 0 0 0 37.843 17.104 50.46 50.46 0 0 0 32.07-11.439 50.56 50.56 0 0 0 64.139 0 50.56 50.56 0 0 0 64.14 0 50.56 50.56 0 0 0 64.14 0 50.456 50.456 0 0 0 69.805-5.558 21.4 21.4 0 0 0 5.025-13.684v-33.032a21.4 21.4 0 0 0-2.245-9.621m-200.865 12.08v16.249l-8.765 11.545a28.97 28.97 0 0 1-46.715 0l-8.659-11.973v-15.821l27.687-89.795h47.142zm128.28 15.821-8.659 11.973a28.97 28.97 0 0 1-46.715 0l-8.766-11.973v-15.821l-10.69-89.795h47.571l27.259 89.795z"/></g><path fill="#2579c1" d="M330.141 82.138c0 41.525-33.673 75.172-75.231 75.172s-75.23-33.647-75.23-75.172 33.673-75.172 75.23-75.172v36.082c-21.576 0-39.12 17.53-39.12 39.09 0 21.559 17.544 39.089 39.12 39.089s39.12-17.53 39.12-39.09z"/><path fill="#e1effb" d="M336.16 76.124h-36.11c0-21.56-17.544-39.09-39.12-39.09V.951c41.557 0 75.23 33.648 75.23 75.173"/><path fill="#9dc3e8" d="M330.141 82.138h-36.11c0 21.559-17.544 39.089-39.12 39.089-11.044 0-21.005-4.6-28.137-11.997l-25.548 25.528c13.662 13.892 32.65 22.522 53.685 22.522 41.557 0 75.23-33.647 75.23-75.172z"/><path fill="#46bf40" d="M669.841 387.413c2.138-15.569-4.271-31.416-14.301-43.491s-23.392-20.869-37.023-28.62c-3.464 14.461-1.745 30.36 4.976 43.616-2.138-4.382-6.407-7.415-10.973-9.092s-9.469-2.155-14.31-2.621c-3.18 9.06-1.652 19.785 4.777 26.905-8.305-2.436-17.566-2.904-26.033-1.121-.778 4.764-.649 9.68.618 14.336l92.267.088z"/><path fill="#1d2238" d="M623.366 358.294c.442 1.526 1.053 3.001 1.704 4.451a47 47 0 0 0 2.206 4.236 50 50 0 0 0 2.604 4.011 57 57 0 0 0 2.976 3.751 57 57 0 0 0 3.335 3.436c.599.528 1.182 1.073 1.803 1.575.309.252.608.518.924.759l.951.724c.314.246.647.466.969.699.329.226.645.467.985.676.672.427 1.336.865 2.032 1.253a37 37 0 0 0 4.259 2.116c-2.733-1.599-5.346-3.36-7.772-5.354a60 60 0 0 1-3.509-3.13 62 62 0 0 1-3.238-3.407 62 62 0 0 1-2.965-3.652c-.956-1.246-1.839-2.545-2.703-3.86a68 68 0 0 1-2.43-4.05 54 54 0 0 1-2.136-4.234zm-20.505 15.19c.875 1.313 1.93 2.494 3.051 3.598a32 32 0 0 0 3.593 3.065l.475.351.487.334c.329.218.649.446.984.653.675.408 1.339.83 2.046 1.182a25 25 0 0 0 4.334 1.843c-1.322-.856-2.656-1.641-3.941-2.509-.649-.421-1.28-.869-1.919-1.3-.318-.22-.627-.449-.943-.673l-.472-.332-.465-.347a90 90 0 0 1-3.665-2.841 124 124 0 0 1-3.563-3.022z"/><path fill="#46bf40" d="M665.979 387.413c-1.638-11.93 3.273-24.073 10.959-33.325 7.685-9.253 17.924-15.992 28.369-21.931 2.654 11.081 1.337 23.264-3.813 33.421 1.638-3.357 4.91-5.681 8.408-6.966 3.499-1.285 7.256-1.652 10.966-2.009 2.436 6.942 1.266 15.161-3.66 20.616 6.363-1.866 13.459-2.224 19.948-.859.596 3.651.497 7.418-.474 10.986l-70.701.067z"/><path fill="#1d2238" d="M701.493 365.579c-.34 1.169-.807 2.299-1.306 3.41a38.6 38.6 0 0 1-3.686 6.319 43 43 0 0 1-2.281 2.874 43 43 0 0 1-2.555 2.633c-.459.405-.905.823-1.381 1.207-.237.194-.466.397-.708.582l-.73.555c-.24.188-.495.357-.742.535-.252.173-.494.358-.754.519-.516.327-1.024.662-1.558.959a29 29 0 0 1-3.263 1.622c2.094-1.225 4.096-2.575 5.955-4.103a46 46 0 0 0 2.689-2.398 48 48 0 0 0 2.481-2.611 47 47 0 0 0 2.272-2.798 52 52 0 0 0 3.933-6.062 41 41 0 0 0 1.637-3.243zm15.712 11.639c-.671 1.006-1.479 1.911-2.338 2.756a24 24 0 0 1-2.753 2.349l-.364.269-.374.256c-.252.167-.497.342-.754.501-.517.312-1.026.636-1.567.905a19 19 0 0 1-3.321 1.412c1.012-.656 2.035-1.257 3.019-1.923.498-.322.982-.665 1.471-.996.243-.168.48-.343.722-.515l.363-.254.355-.266a70 70 0 0 0 2.809-2.177c.92-.752 1.826-1.52 2.73-2.316z"/><path fill="#338eef" d="m342.139 226.293 61.752-109.445c1.105-2.07 3.316-3.312 5.526-3.312h74.876c1.934 0 3.869.828 4.974 2.484l13.815 17.528c2.348 3.036 6.907 3.312 9.67.552l78.33-83.774c1.934-1.932 4.974-2.484 7.46-1.242l5.112 2.484c3.868 1.932 4.697 7.039 1.657 10.213l-93.112 98.404c-2.763 2.898-7.46 2.484-9.808-.69l-19.341-26.913c-1.105-1.656-3.039-2.622-5.111-2.622l-59.957-1.38c-2.348 0-4.421 1.104-5.664 3.174l-59.266 101.164c-2.486 4.278-8.841 4.14-11.19-.276-.829-2.208-.829-4.417.277-6.349"/><path fill="#338eef" d="m613.344 26.96-30.393 12.146c-4.006 1.656-4.835 7.038-1.381 9.799l25.695 20.15c3.454 2.76 8.566.69 9.118-3.727l4.697-32.295c.691-4.278-3.73-7.728-7.736-6.072"/><path fill="#6f4bbb" d="M288.322 360.751h32.542v27.145h-31.948c-5.052-2.124-9.212-5.146-12.234-8.686 1.189-5.854 5.597-13.502 11.64-18.459"/><path fill="#7d5dc2" d="M290.202 363.017c-4.309 4.249-8.569 9.394-10.005 15.248 2.576 2.927 5.944 5.193 9.56 6.845h27.341v-22.093z"/><path fill="#9478cf" d="M282.678 372.27c-.842 1.133-2.427 5.712-2.526 5.995 2.575 2.927 5.944 5.193 9.559 6.846h14.563v-11.85a276 276 0 0 1-21.596-.991"/><path fill="#5f3ea7" d="M288.174 382.136c3.368 1.086 4.953 3.116 5.448 5.76h-11.739c.793-2.266 3.021-5.052 6.291-5.76"/><path fill="#6f4bbb" d="M288.122 383.364c-1.833.471-3.368 1.838-4.359 3.394h4.408v-3.394z"/><path fill="#5f3ea7" d="M299.764 381.475c4.508 1.181 6.687 4.06 7.232 6.421h-15.652c1.04-2.502 4.21-5.854 8.42-6.421"/><path fill="#6f4bbb" d="M299.665 382.656c-2.477.424-4.904 2.076-6.34 4.105h6.439v-4.105zm60.231-21.905h-32.542v27.145h31.948c5.052-2.124 9.212-5.146 12.234-8.686-1.139-5.854-5.548-13.502-11.64-18.459"/><path fill="#7d5dc2" d="M358.063 363.017c4.31 4.249 8.569 9.394 10.006 15.248-2.576 2.927-5.944 5.193-9.56 6.845h-27.341v-22.093z"/><path fill="#9478cf" d="M365.542 372.27c.842 1.133 2.427 5.712 2.526 5.995-2.576 2.927-5.944 5.193-9.56 6.846h-14.562v-11.85a275 275 0 0 0 21.596-.991"/><path fill="#5f3ea7" d="M360.091 382.136c-3.368 1.086-4.953 3.116-5.449 5.76h11.739c-.792-2.266-3.021-5.052-6.29-5.76"/><path fill="#6f4bbb" d="M360.146 383.364c1.833.471 3.369 1.838 4.359 3.394h-4.408v-3.394z"/><path fill="#5f3ea7" d="M348.503 381.475c-4.507 1.181-6.686 4.06-7.231 6.421h15.652c-1.04-2.502-4.21-5.854-8.421-6.421"/><path fill="#6f4bbb" d="M348.553 382.656c2.476.424 4.904 2.076 6.34 4.105h-6.439v-4.105z"/><path fill="#5f3ea7" d="M237.107 369.107c.198 4.957 1.387 8.828 3.666 11.236 3.566-.283 6.587-4.06 7.974-7.318-2.08-3.446-6.142-5.004-11.64-3.918"/><path fill="#6f4bbb" d="M238.94 370.476c.099 2.88.892 5.854 2.526 8.025l1.387-7.836c-1.238-.283-2.576-.283-3.913-.189"/><path fill="#5f3ea7" d="M246.122 371.751c.347 4.437.941 8.355 3.864 12.321 5.25-1.086 9.361-3.871 11.095-8.309-2.576-5.617-8.718-6.373-14.959-4.012"/><path fill="#6f4bbb" d="m250.728 382.184 3.517-9.867c-1.981-.377-4.21-.094-6.34.567.347 3.352.941 6.326 2.823 9.3"/><path fill="#5f3ea7" d="M263.358 375.386c.891 5.051 5.894 7.553 8.42 7.412 1.139-1.841 2.279-4.249 2.279-7.129l-2.18-1.746c-3.319-.614-6.835-.378-8.519 1.463"/><path fill="#6f4bbb" d="M270.888 381.098c.99-1.416 1.634-3.588 1.733-5.665l-3.566-.566z"/><path fill="#6f4bbb" d="M274.107 307.689v67.933c-12.333 1.463-26.697.991-37-6.562.198-6.326.842-12.51 2.031-18.411 2.229-10.669 6.439-20.394 13.72-28.372 6.439-7.034 12.878-10.386 21.249-14.588"/><path fill="#9478cf" d="M240.576 367.502c6.439 4.721 21.893 6.184 30.016 5.193v-59.53c-20.952 10.622-29.273 30.213-30.016 54.337"/><path fill="#a58dd4" d="M240.576 367.502c3.269 2.408 8.817 3.918 14.612 4.768.842-15.154.743-37.955-2.824-43.998-7.776 10.527-11.293 23.982-11.788 39.23"/><path fill="#9478cf" d="M255.184 357.4c2.724 0 4.904 2.077 4.904 4.673s-2.18 4.674-4.904 4.674-4.904-2.077-4.904-4.674c0-2.596 2.18-4.673 4.904-4.673"/><path fill="#6f4bbb" d="M266.875 254.723c-1.436-8.828.149-13.408 2.031-21.48 5.894 4.673 9.659 8.025 16.841 11.471 1.436-8.544 4.606-16.617 9.213-24.17l2.724-4.438c10.5 7.554 19.466 13.596 26.4 23.604 6.935-10.008 15.9-16.05 26.4-23.604l2.725 4.438c4.606 7.553 7.776 15.626 9.213 24.17 7.182-3.446 10.946-6.798 16.84-11.471 1.932 8.025 3.467 12.604 2.031 21.48l12.977 3.399c-2.575 32.29-5.2 59.812-8.519 92.103a1213 1213 0 0 1-1.437 13.36c-.148 1.274-1.783 3.588-8.717 3.635-33.88 2.171-69.344 2.171-103.174 0-6.935-.095-8.569-2.361-8.718-3.635-.495-4.532-.991-9.064-1.436-13.596-.198-1.841-.397-3.682-.595-5.571-2.823-28.797-5.597-57.499-7.925-86.344l12.978-3.399h.148z"/><path fill="#9478cf" d="M299.12 222.856c-5.597 9.064-8.717 18.647-9.312 28.561-5.745-2.077-12.283-5.476-17.93-9.867-1.139 4.815-.892 11.094.644 16.57a245 245 0 0 0-13.572 3.352c2.378 29.647 4.607 59.294 7.678 88.846.297 2.927.941 9.253 1.287 12.18 1.239.661 3.814.661 4.854.708a809 809 0 0 0 102.63 0c1.089-.094 3.616-.094 4.854-.708.347-2.88.991-9.347 1.288-12.18 3.021-29.6 5.3-59.246 7.677-88.846a245 245 0 0 0-13.572-3.352c1.536-5.476 1.784-11.755.644-16.57-5.597 4.438-12.184 7.79-17.93 9.867-.594-9.867-3.715-19.497-9.312-28.561-11.392 8.214-18.871 14.162-24.964 26.059-6.142-11.897-13.571-17.845-25.013-26.059z"/><path fill="#a58dd4" d="M299.12 222.856c.842 13.171 4.31 27.805 10.848 33.942-8.718-.897-13.374-1.888-20.11-5.381-5.795-2.078-12.333-5.477-17.98-9.867 3.021 8.686 5.944 14.871 11.937 20.913-5.102-.094-8.024-1.699-11.293-4.343a245 245 0 0 0-13.572 3.352c2.378 29.647 4.607 59.294 7.678 88.846.297 2.927.941 9.253 1.287 12.18 1.239.661 3.814.661 4.855.708 17.038 1.086 34.176 1.605 51.314 1.605v-17.656c-26.45 1.983-50.621-37.767-22.834-63.873l-5.547 2.927c-.694-4.201.693-9.441 2.526-13.69 3.616-8.262 13.225-14.399 25.855-15.862v-7.79c-6.142-11.896-13.522-17.844-24.964-26.011"/><path fill="#7d5dc2" d="M364.352 262.464c5.943-6.043 8.915-12.274 11.937-20.961 1.139 4.815.891 11.094-.644 16.57-3.269 2.691-6.192 4.296-11.293 4.391m-10.055-2.455c2.972 0 5.349 2.313 5.349 5.098 0 2.833-2.427 5.099-5.349 5.099-2.972 0-5.35-2.313-5.35-5.099s2.427-5.098 5.35-5.098m19.565 11.519c2.031 0 3.715 1.605 3.715 3.54s-1.684 3.541-3.715 3.541-3.715-1.605-3.715-3.541c0-1.982 1.634-3.54 3.715-3.54m-35.613-14.776c6.538-6.09 10.005-20.725 10.847-33.943 5.597 9.064 8.717 18.647 9.312 28.561-6.786 3.493-11.442 4.485-20.159 5.382"/><path fill="#9478cf" d="M275.544 267.42c4.854 0 8.816 3.777 8.816 8.403s-3.962 8.403-8.816 8.403-8.817-3.776-8.817-8.403c0-4.626 3.963-8.403 8.817-8.403m-5.696 25.776c1.931 0 3.516 1.511 3.516 3.352s-1.585 3.351-3.516 3.351-3.517-1.51-3.517-3.351 1.585-3.352 3.517-3.352"/><path fill="#d3e8ef" d="M324.682 272c20.952 0 37.941 16.192 37.941 36.161s-16.989 36.162-37.941 36.162-37.941-16.193-37.941-36.162S303.73 272 324.682 272"/><path fill="#fff" d="M287.729 299.947c3.319-13.596 14.711-24.265 29.075-27.145 15.652-1.133 28.332 9.3 28.332 23.51 0 14.304-12.878 27.003-28.679 28.325-15.85 1.322-28.678-9.159-28.678-23.51-.05-.378-.05-.803-.05-1.18"/><path fill="#ea4e64" d="M336.369 294.282c11.838 0 21.398 9.112 21.398 20.394 0 11.283-9.56 20.394-21.398 20.394s-21.398-9.111-21.398-20.394c0-11.235 9.56-20.394 21.398-20.394"/><path fill="#ec6277" d="M336.367 294.282c3.12 0 6.092.614 8.767 1.794v.236c0 13.927-12.185 26.342-27.54 28.231-1.684-2.927-2.674-6.279-2.674-9.867 0-11.282 9.559-20.394 21.447-20.394"/><path fill="#232323" d="M336.37 301.457c7.677 0 13.918 5.901 13.918 13.266 0 7.317-6.191 13.265-13.918 13.265-7.677 0-13.918-5.901-13.918-13.265 0-7.318 6.191-13.266 13.918-13.266"/><path fill="#323232" d="M336.367 301.457c2.823 0 5.449.803 7.628 2.172-2.675 8.45-9.708 15.626-18.723 19.025-1.734-2.219-2.774-5.004-2.774-7.931-.049-7.318 6.142-13.266 13.869-13.266"/><path fill="#fff" d="M321.211 299.428c4.854 0 8.767 3.729 8.767 8.355s-3.913 8.356-8.767 8.356-8.767-3.729-8.767-8.356 3.913-8.355 8.767-8.355"/><path fill="#6f4bbb" d="M280.051 324.731c10.798-5.665 27.045 4.249 25.856 20.3-10.303-3.022-21.447-12.274-25.856-20.3"/><path fill="#a58dd4" d="M280.051 324.731c9.808.189 20.655 5.477 25.856 20.3-12.334-1.322-23.825-10.291-25.856-20.3"/><path fill="#7d5dc2" d="M285.151 338.139c1.436-.473 8.173-.331 8.717.377.644.85-1.139 5.193-3.021 8.026-2.477-1.889-4.507-4.485-5.696-8.403"/><path fill="#fff" d="M283.17 336.581c1.437-.472 8.173-.331 8.718.377.644.85-1.139 5.193-3.021 8.026-2.477-1.889-4.508-4.485-5.697-8.403"/><path fill="#6f4bbb" d="M285.203 334.362c.446 9.111 12.928 17.891 24.766 14.634.644 2.644-1.239 4.202-3.17 4.579-10.749.897-21.101-5.57-24.519-13.832-.99-2.266.1-5.098 2.923-5.381m-2.032 17.089c2.972 5.335 7.628 7.837 12.73 8.639-7.282 3.116-13.721-1.038-12.73-8.639"/><path fill="#9478cf" d="M288.073 352.726c5.845 3.115 11.392 4.107 17.832 3.54-4.706 2.974-13.919 3.305-17.832-3.54"/><path fill="#5f3ea7" d="M337.805 261.756c-11.739-19.356-42.647-8.073-39.526 13.643 7.727-12.18 22.636-16.146 39.526-13.643"/><path fill="#6f4bbb" d="M337.805 261.755c-6.637-10.905-20.605-11.613-29.967-5.618-.049 2.549.743 4.391 2.18 5.854 7.578-3.493 17.484-4.91 27.787-.236m61.469 73.598c12.333 0 22.438 9.442 22.438 21.244s-10.105 21.243-22.438 21.243c-12.334 0-22.438-9.441-22.438-21.243s10.104-21.244 22.438-21.244"/><path fill="#9478cf" d="M399.271 338.469c10.599 0 19.168 8.12 19.168 18.081 0 10.008-8.569 18.081-19.168 18.081-10.6 0-19.169-8.12-19.169-18.081s8.618-18.081 19.169-18.081"/><path fill="#a58dd4" d="M399.273 338.469c7.529 0 14.018 4.107 17.188 10.055.693 9.442-11.392 16.382-19.466 13.124-5.944-3.068-10.055-9.064-10.055-15.909 0-1.133.099-2.219.347-3.304a20.15 20.15 0 0 1 11.986-3.966"/><path fill="#2b3039" d="M391.447 353.765c-.892-2.597 9.312-5.854 10.253-3.258l10.104 28.844c.892 2.597-9.312 5.854-10.253 3.258z"/><path fill="#5f3ea7" d="M406.109 350.837c-4.012 2.361-7.331 4.674-9.708 8.97 3.417 3.965 7.925 6.137 12.878 5.571 4.012-4.816 1.931-10.339-3.17-14.541"/><path fill="#6f4bbb" d="M409.229 357.446c-.595-1.652-1.684-3.21-3.071-4.72-3.071 1.888-5.597 3.918-7.529 6.845 2.13.189 5.449-.331 10.6-2.125"/><path fill="#5f3ea7" d="M409.973 362.403c-4.012 2.361-7.331 4.674-9.709 8.97 3.418 3.966 7.925 6.137 12.879 5.571 4.012-4.816 1.931-10.339-3.17-14.541"/><path fill="#6f4bbb" d="M413.093 368.541c-.595-1.653-1.684-3.21-3.071-4.721-3.071 1.888-5.597 3.918-7.529 6.845 2.13.236 5.448-.33 10.6-2.124"/><path fill="#5f3ea7" d="M389.068 363.537c3.814-.897 7.182-1.464 11.293-.331.496 4.249-.743 8.12-3.962 10.575-5.35-.425-7.628-4.863-7.331-10.244"/><path fill="#6f4bbb" d="M391.4 368.68c-.694-1.321-1.04-2.831-1.189-4.483 2.972-.66 5.696-.943 8.718-.33-1.09 1.368-3.368 2.925-7.529 4.813"/><path fill="#393f4c" d="M381.44 285.407c-20.258 1.085-35.761 17.656-34.622 36.964s18.525 34.084 38.783 32.998c20.258-1.085 35.762-17.656 34.622-36.964-1.139-19.308-18.475-34.084-38.783-32.998"/><path fill="#d3e8ef" d="M381.738 289.75c-17.732.944-31.353 15.484-30.363 32.432.991 16.901 16.247 29.883 34.029 28.891 17.732-.944 31.353-15.484 30.363-32.432-1.041-16.9-16.247-29.882-34.029-28.891"/><path fill="#fff" d="M408.039 335.589c3.269-4.815 5.052-10.622 4.706-16.806-.743-12.227-9.61-22.188-21.349-25.256a3751 3751 0 0 1-2.971 31.629c3.913 1.511 14.017 6.326 19.614 10.433m-26.795-42.44c-15.454.85-27.292 13.455-26.351 28.184.149 2.077.496 4.107 1.09 5.995a11 11 0 0 1-.099-1.322c-.991-17.089 12.68-31.724 30.61-32.715h.149c-1.734-.142-3.566-.236-5.399-.142"/><path fill="#999" d="M355.984 336.297a27 27 0 0 0 1.932 2.691l9.51-12.557 21.893 8.686 12.68-24.973 12.73 2.313c-.347-1.133-.694-2.266-1.14-3.352l-13.373-2.455-12.433 24.501-21.397-8.497z"/><path fill="#1ec185" d="M366.483 318.217c3.665-.189 6.786 2.454 6.984 5.948.198 3.493-2.576 6.467-6.241 6.656-3.666.189-6.786-2.455-6.984-5.948-.248-3.446 2.575-6.42 6.241-6.656"/><path fill="#ea4e64" d="M400.71 302.118c3.665-.189 6.786 2.455 6.984 5.948s-2.576 6.468-6.241 6.657c-3.666.189-6.786-2.455-6.984-5.948-.248-3.494 2.575-6.468 6.241-6.657"/><path fill="#ff893a" d="M388.13 326.856c3.665-.189 6.786 2.454 6.984 5.948.198 3.493-2.576 6.467-6.241 6.656-3.666.189-6.786-2.455-6.984-5.948-.248-3.493 2.576-6.467 6.241-6.656"/></svg>