<svg width="150" height="150" viewBox="0 0 150 150" fill="none" xmlns="http://www.w3.org/2000/svg">
<g clip-path="url(#clip0_1045_4)">
<rect x="46" y="27" width="69" height="75" fill="#0B2519"/>
<path d="M29.5 125V67L44.5 54.5V76L80 103.5L117 74V54.5L129.5 67V125L124.5 129.5H33L29.5 125Z" fill="#0B2519"/>
<path d="M131.082 63.8008L117.31 52.541V31.6543C117.31 27.4336 113.876 24 109.654 24H69.25C67.8691 24 66.75 25.1191 66.75 26.5C66.75 27.8809 67.8691 29 69.25 29H109.654C111.118 29 112.31 30.1914 112.31 31.6543V76.0273L79.5 100.973L46.6904 76.0273V53.7373C46.6904 53.7373 46.6904 53.7363 46.6904 53.7354V31.6543C46.6904 30.1914 47.8818 29 49.3457 29H69.5C70.8809 29 72 27.8809 72 26.5C72 25.1191 70.8809 24 69.5 24H49.3457C45.124 24 41.6904 27.4336 41.6904 31.6543V52.541L27.918 63.8008C27.3369 64.2754 27 64.9863 27 65.7363V93.4912H15.75C14.3691 93.4912 13.25 94.6104 13.25 95.9912C13.25 97.3711 14.3691 98.4912 15.75 98.4912H27V124.346C27 128.566 30.4336 132 34.6543 132H124.346C128.566 132 132 128.566 132 124.346V65.7363C132 64.9863 131.663 64.2754 131.082 63.8008ZM127 123.209L97.4199 93.6289L127 71.1397V123.209ZM117.31 58.999L125.692 65.8525L117.31 72.2256V58.999ZM79.5 106.613C80.0332 106.613 80.5664 106.443 81.0137 106.104L93.4033 96.6836L123.72 127H35.2803L65.5967 96.6836L77.9873 106.104C78.4336 106.443 78.9668 106.613 79.5 106.613ZM32 71.1397L61.5801 93.6289L32 123.209V71.1397ZM41.6904 72.2256L33.3076 65.8525L41.6904 58.999V72.2256Z" fill="#0B2519"/>
<path d="M68.5992 45.5364C67.6254 44.6097 66.651 43.687 65.6771 42.761C64.3953 41.5416 62.3679 41.5853 61.1396 42.8581C59.9084 44.1469 59.9618 46.1899 61.2588 47.4127C62.9752 49.0449 64.6739 50.6671 66.3903 52.2994C67.6337 53.4835 69.5893 53.4835 70.8328 52.2994L78.5537 44.9694C79.8507 43.7466 79.9042 41.7036 78.6729 40.4148C77.4514 39.1348 75.4238 39.0805 74.7792 39.6873L68.5992 45.5364Z" fill="#0B2519"/>
<path d="M68.6163 64.4547C67.6377 63.525 66.6472 62.6106 65.6686 61.6813C64.3794 60.4688 62.3505 60.5234 61.1283 61.8027C59.9122 63.0876 59.9655 65.1109 61.2476 66.3304C62.965 67.9615 64.6647 69.6064 66.3822 71.2375C67.6264 72.4208 69.5832 72.4208 70.8274 71.2375L78.5531 63.8888C79.8509 62.6668 79.9044 60.6252 78.6724 59.3374C77.4433 58.0652 75.4146 58.0217 74.7729 58.631L68.6163 64.4547Z" fill="#0B2519"/>
<path d="M89.1838 42.5C88.757 42.4983 88.3341 42.5823 87.9395 42.7472C87.5449 42.9121 87.1864 43.1547 86.8846 43.4608C86.5828 43.767 86.3437 44.1307 86.1812 44.5311C86.0186 44.9314 85.9358 45.3604 85.9375 45.7934C85.939 46.2243 86.0241 46.6507 86.1881 47.0483C86.352 47.4458 86.5916 47.8067 86.8931 48.1102C87.1945 48.4138 87.552 48.6542 87.9451 48.8176C88.3381 48.981 88.7591 49.0642 89.1838 49.0625H95.6526C96.5063 49.0595 97.3242 48.7141 97.9279 48.1017C98.5316 47.4893 98.872 46.6595 98.875 45.7934C98.8767 45.3625 98.7946 44.9354 98.6336 44.5367C98.4725 44.1379 98.2356 43.7753 97.9364 43.4694C97.6371 43.1636 97.2814 42.9205 96.8895 42.7542C96.4977 42.5879 96.0773 42.5015 95.6526 42.5H89.1838Z" fill="#0B2519"/>
<path d="M89.1838 61.8125C88.757 61.8108 88.3341 61.8948 87.9395 62.0597C87.5449 62.2246 87.1864 62.4672 86.8846 62.7733C86.5828 63.0795 86.3437 63.4432 86.1812 63.8436C86.0186 64.2439 85.9358 64.6729 85.9375 65.1059C85.939 65.5368 86.0241 65.9632 86.1881 66.3608C86.352 66.7583 86.5916 67.1192 86.8931 67.4227C87.1945 67.7263 87.552 67.9667 87.9451 68.1301C88.3381 68.2935 88.7591 68.3767 89.1838 68.375H95.6526C96.5063 68.372 97.3242 68.0266 97.9279 67.4142C98.5316 66.8018 98.872 65.972 98.875 65.1059C98.8767 64.675 98.7946 64.2479 98.6336 63.8492C98.4725 63.4504 98.2356 63.0878 97.9364 62.7819C97.6371 62.4761 97.2814 62.233 96.8895 62.0667C96.4977 61.9004 96.0773 61.814 95.6526 61.8125H89.1838Z" fill="#0B2519"/>
<path d="M20 109.491H6.5C5.11914 109.491 4 110.61 4 111.991C4 113.371 5.11914 114.491 6.5 114.491H20C21.3809 114.491 22.5 113.371 22.5 111.991C22.5 110.61 21.3809 109.491 20 109.491Z" fill="#0B2519"/>
<path d="M79.5 29C80.1572 29 80.8027 28.7324 81.2676 28.2676C81.7324 27.8027 82 27.1572 82 26.5C82 25.8428 81.7324 25.1973 81.2676 24.7324C80.8027 24.2676 80.1572 24 79.5 24C78.8428 24 78.1973 24.2676 77.7324 24.7324C77.2676 25.1973 77 25.8428 77 26.5C77 27.1572 77.2676 27.8027 77.7324 28.2676C78.1973 28.7324 78.8428 29 79.5 29Z" fill="#0B2519"/>
</g>
<g clip-path="url(#clip1_1045_4)">
<rect x="51" y="22" width="69" height="75" fill="white"/>
<path d="M34.5 120V62L49.5 49.5V71L85 98.5L122 69V49.5L134.5 62V120L129.5 124.5H38L34.5 120Z" fill="#D8E6FA"/>
<path d="M136.082 58.8008L122.31 47.541V26.6543C122.31 22.4336 118.876 19 114.654 19H74.25C72.8691 19 71.75 20.1191 71.75 21.5C71.75 22.8809 72.8691 24 74.25 24H114.654C116.118 24 117.31 25.1914 117.31 26.6543V71.0273L84.5 95.9727L51.6904 71.0273V48.7373C51.6904 48.7373 51.6904 48.7363 51.6904 48.7354V26.6543C51.6904 25.1914 52.8818 24 54.3457 24H74.5C75.8809 24 77 22.8809 77 21.5C77 20.1191 75.8809 19 74.5 19H54.3457C50.124 19 46.6904 22.4336 46.6904 26.6543V47.541L32.918 58.8008C32.3369 59.2754 32 59.9863 32 60.7363V88.4912H20.75C19.3691 88.4912 18.25 89.6104 18.25 90.9912C18.25 92.3711 19.3691 93.4912 20.75 93.4912H32V119.346C32 123.566 35.4336 127 39.6543 127H129.346C133.566 127 137 123.566 137 119.346V60.7363C137 59.9863 136.663 59.2754 136.082 58.8008ZM132 118.209L102.42 88.6289L132 66.1397V118.209ZM122.31 53.999L130.692 60.8525L122.31 67.2256V53.999ZM84.5 101.613C85.0332 101.613 85.5664 101.443 86.0137 101.104L98.4033 91.6836L128.72 122H40.2803L70.5967 91.6836L82.9873 101.104C83.4336 101.443 83.9668 101.613 84.5 101.613ZM37 66.1397L66.5801 88.6289L37 118.209V66.1397ZM46.6904 67.2256L38.3076 60.8525L46.6904 53.999V67.2256Z" fill="#4885E9"/>
<path d="M73.5992 40.5364C72.6254 39.6097 71.651 38.687 70.6771 37.761C69.3953 36.5416 67.3679 36.5853 66.1396 37.8581C64.9084 39.1469 64.9618 41.1899 66.2588 42.4127C67.9752 44.0449 69.6739 45.6671 71.3903 47.2994C72.6337 48.4835 74.5893 48.4835 75.8328 47.2994L83.5537 39.9694C84.8507 38.7466 84.9042 36.7036 83.6729 35.4148C82.4514 34.1348 80.4238 34.0805 79.7792 34.6873L73.5992 40.5364Z" fill="#4885E9"/>
<path d="M73.6163 59.4547C72.6377 58.525 71.6472 57.6106 70.6686 56.6813C69.3794 55.4688 67.3505 55.5234 66.1283 56.8027C64.9122 58.0876 64.9655 60.1109 66.2476 61.3304C67.965 62.9615 69.6647 64.6064 71.3822 66.2375C72.6264 67.4208 74.5832 67.4208 75.8274 66.2375L83.5531 58.8888C84.8509 57.6668 84.9044 55.6252 83.6724 54.3374C82.4433 53.0652 80.4146 53.0217 79.7729 53.631L73.6163 59.4547Z" fill="#4885E9"/>
<path d="M94.1838 37.5C93.757 37.4983 93.3341 37.5823 92.9395 37.7472C92.5449 37.9121 92.1864 38.1547 91.8846 38.4608C91.5828 38.767 91.3437 39.1307 91.1812 39.5311C91.0186 39.9314 90.9358 40.3604 90.9375 40.7934C90.939 41.2243 91.0241 41.6507 91.1881 42.0483C91.352 42.4458 91.5916 42.8067 91.8931 43.1102C92.1945 43.4138 92.552 43.6542 92.9451 43.8176C93.3381 43.981 93.7591 44.0642 94.1838 44.0625H100.653C101.506 44.0595 102.324 43.7141 102.928 43.1017C103.532 42.4893 103.872 41.6595 103.875 40.7934C103.877 40.3625 103.795 39.9354 103.634 39.5367C103.473 39.1379 103.236 38.7753 102.936 38.4694C102.637 38.1636 102.281 37.9205 101.89 37.7542C101.498 37.5879 101.077 37.5015 100.653 37.5H94.1838Z" fill="#4885E9"/>
<path d="M94.1838 56.8125C93.757 56.8108 93.3341 56.8948 92.9395 57.0597C92.5449 57.2246 92.1864 57.4672 91.8846 57.7733C91.5828 58.0795 91.3437 58.4432 91.1812 58.8436C91.0186 59.2439 90.9358 59.6729 90.9375 60.1059C90.939 60.5368 91.0241 60.9632 91.1881 61.3608C91.352 61.7583 91.5916 62.1192 91.8931 62.4227C92.1945 62.7263 92.552 62.9667 92.9451 63.1301C93.3381 63.2935 93.7591 63.3767 94.1838 63.375H100.653C101.506 63.372 102.324 63.0266 102.928 62.4142C103.532 61.8018 103.872 60.972 103.875 60.1059C103.877 59.675 103.795 59.2479 103.634 58.8492C103.473 58.4504 103.236 58.0878 102.936 57.7819C102.637 57.4761 102.281 57.233 101.89 57.0667C101.498 56.9004 101.077 56.814 100.653 56.8125H94.1838Z" fill="#4885E9"/>
<path d="M25 104.491H11.5C10.1191 104.491 9 105.61 9 106.991C9 108.371 10.1191 109.491 11.5 109.491H25C26.3809 109.491 27.5 108.371 27.5 106.991C27.5 105.61 26.3809 104.491 25 104.491Z" fill="#4885E9"/>
<path d="M84.5 24C85.1572 24 85.8027 23.7324 86.2676 23.2676C86.7324 22.8027 87 22.1572 87 21.5C87 20.8428 86.7324 20.1973 86.2676 19.7324C85.8027 19.2676 85.1572 19 84.5 19C83.8428 19 83.1973 19.2676 82.7324 19.7324C82.2676 20.1973 82 20.8428 82 21.5C82 22.1572 82.2676 22.8027 82.7324 23.2676C83.1973 23.7324 83.8428 24 84.5 24Z" fill="#4885E9"/>
</g>
<defs>
<clipPath id="clip0_1045_4">
<rect width="128" height="128" fill="white" transform="translate(4 14)"/>
</clipPath>
<clipPath id="clip1_1045_4">
<rect width="128" height="128" fill="white" transform="translate(9 9)"/>
</clipPath>
</defs>
</svg>
