<svg xmlns="http://www.w3.org/2000/svg" width="132" height="128" fill="none" viewBox="0 0 132 128"><rect width="128" height="128" x="4" fill="#f1f8fe" rx="8"/><ellipse cx="68" cy="102.5" fill="#d0dfec" rx="49" ry="6.5"/><g filter="url(#a)"><path fill="#6f4bbb" d="M89.045 91.703H72.69v13.644h16.058c2.54-1.068 4.63-2.587 6.149-4.366-.597-2.943-2.813-6.787-5.85-9.278"/><path fill="#7d5dc2" d="M88.1 92.842c2.166 2.135 4.307 4.722 5.03 7.664-1.295 1.471-2.988 2.61-4.806 3.44H74.582V92.842z"/><path fill="#9478cf" d="M91.883 97.492c.423.57 1.22 2.871 1.27 3.014-1.295 1.471-2.988 2.61-4.805 3.44h-7.32v-5.955c3.61-.024 7.22-.19 10.855-.499"/><path fill="#5f3ea7" d="M89.12 102.452c-1.693.545-2.49 1.566-2.739 2.894h5.9c-.398-1.139-1.518-2.539-3.161-2.894"/><path fill="#6f4bbb" d="M89.146 103.069c.921.237 1.693.924 2.19 1.705h-2.215v-1.705z"/><path fill="#5f3ea7" d="M83.294 102.119c-2.266.594-3.361 2.041-3.635 3.227h7.867c-.522-1.257-2.116-2.942-4.232-3.227"/><path fill="#6f4bbb" d="M83.344 102.713c1.245.213 2.465 1.043 3.187 2.063h-3.237v-2.063zM53.07 91.703h16.357v13.644H53.369c-2.54-1.068-4.63-2.587-6.15-4.366.573-2.943 2.789-6.787 5.851-9.278"/><path fill="#7d5dc2" d="M53.991 92.842c-2.166 2.135-4.307 4.722-5.029 7.664 1.295 1.471 2.988 2.61 4.805 3.44H67.51V92.842z"/><path fill="#9478cf" d="M50.233 97.492c-.423.57-1.22 2.871-1.27 3.014 1.295 1.471 2.987 2.61 4.805 3.44h7.32v-5.955c-3.61-.024-7.245-.19-10.855-.499"/><path fill="#5f3ea7" d="M52.972 102.452c1.693.545 2.49 1.566 2.739 2.894h-5.9c.398-1.139 1.518-2.539 3.161-2.894"/><path fill="#6f4bbb" d="M52.945 103.069c-.922.237-1.693.924-2.191 1.705h2.215v-1.705z"/><path fill="#5f3ea7" d="M58.797 102.119c2.265.594 3.36 2.041 3.634 3.227h-7.867c.523-1.257 2.116-2.942 4.233-3.227"/><path fill="#6f4bbb" d="M58.772 102.713c-1.245.213-2.465 1.043-3.187 2.063h3.237v-2.063z"/><path fill="#5f3ea7" d="M114.788 95.903c-.1 2.491-.697 4.437-1.843 5.647-1.792-.142-3.311-2.04-4.008-3.677 1.046-1.733 3.087-2.516 5.851-1.97"/><path fill="#6f4bbb" d="M113.866 96.59c-.05 1.448-.448 2.943-1.27 4.035l-.697-3.94c.623-.142 1.295-.142 1.967-.094"/><path fill="#5f3ea7" d="M110.256 97.231c-.174 2.23-.473 4.2-1.942 6.193-2.639-.545-4.705-1.945-5.576-4.176 1.294-2.823 4.381-3.203 7.518-2.017"/><path fill="#6f4bbb" d="m107.941 102.476-1.768-4.96c.996-.19 2.117-.047 3.187.285-.174 1.685-.473 3.18-1.419 4.675"/><path fill="#5f3ea7" d="M101.594 99.059c-.448 2.539-2.963 3.796-4.233 3.725-.572-.925-1.145-2.135-1.145-3.583l1.096-.878c1.668-.308 3.435-.19 4.282.736"/><path fill="#6f4bbb" d="M97.809 101.93c-.498-.712-.822-1.804-.872-2.848l1.793-.284z"/><path fill="#6f4bbb" d="M96.19 65.032v34.145c6.199.736 13.419.499 18.598-3.298-.1-3.18-.424-6.288-1.021-9.254-1.12-5.362-3.237-10.25-6.896-14.26-3.237-3.536-6.473-5.22-10.68-7.333"/><path fill="#9478cf" d="M113.044 95.096c-3.237 2.373-11.004 3.108-15.087 2.61V67.784c10.531 5.34 14.714 15.187 15.087 27.312"/><path fill="#a58dd4" d="M113.044 95.096c-1.643 1.21-4.432 1.97-7.344 2.397-.424-7.617-.374-19.078 1.419-22.115 3.908 5.291 5.676 12.054 5.925 19.718"/><path fill="#9478cf" d="M105.702 90.018c-1.37 0-2.465 1.044-2.465 2.349s1.095 2.349 2.465 2.349 2.464-1.044 2.464-2.35c0-1.304-1.095-2.348-2.464-2.348"/><path fill="#6f4bbb" d="M99.825 38.41c.722-4.437-.075-6.74-1.02-10.797-2.963 2.35-4.855 4.034-8.465 5.766-.722-4.294-2.315-8.352-4.63-12.148L84.34 19c-5.278 3.797-9.784 6.834-13.27 11.864-3.485-5.03-7.99-8.067-13.27-11.864l-1.368 2.23c-2.316 3.797-3.91 7.854-4.631 12.15-3.61-1.733-5.502-3.418-8.465-5.767-.97 4.034-1.743 6.336-1.02 10.797l-6.523 1.708c1.294 16.23 2.614 30.064 4.282 46.294.224 2.23.473 4.485.722 6.715.075.64.896 1.803 4.382 1.827a411 411 0 0 0 51.858 0c3.485-.047 4.307-1.186 4.382-1.827.248-2.278.497-4.556.721-6.834.1-.925.2-1.85.299-2.8 1.419-14.474 2.813-28.9 3.984-43.399L99.9 38.386h-.075z"/><path fill="#9478cf" d="M83.618 22.393c2.813 4.555 4.381 9.372 4.68 14.355 2.888-1.044 6.174-2.752 9.012-4.959.573 2.42.448 5.576-.323 8.329 2.39.522 4.605 1.067 6.821 1.684-1.195 14.902-2.315 29.803-3.859 44.657-.15 1.471-.473 4.65-.647 6.122-.623.332-1.917.332-2.44.356a407 407 0 0 1-51.584 0c-.548-.048-1.818-.048-2.44-.356-.174-1.448-.498-4.698-.647-6.122-1.52-14.878-2.664-29.779-3.86-44.657a123 123 0 0 1 6.822-1.684c-.772-2.753-.896-5.909-.323-8.329 2.813 2.23 6.124 3.915 9.012 4.96.299-4.96 1.867-9.8 4.68-14.356 5.726 4.128 9.486 7.118 12.548 13.098 3.087-5.98 6.821-8.97 12.572-13.098z"/><path fill="#a58dd4" d="M83.618 22.393c-.424 6.62-2.166 13.976-5.453 17.06 4.382-.45 6.722-.949 10.108-2.705 2.913-1.044 6.2-2.752 9.037-4.959-1.518 4.366-2.987 7.474-6 10.512 2.565-.048 4.034-.855 5.677-2.183 2.39.522 4.605 1.067 6.821 1.684-1.195 14.902-2.315 29.803-3.859 44.657-.15 1.471-.473 4.65-.647 6.122-.623.332-1.917.332-2.44.356-8.564.546-17.178.806-25.792.806V84.87c13.294.997 25.444-18.982 11.477-32.104l2.788 1.471c.349-2.112-.348-4.746-1.27-6.881-1.817-4.153-6.647-7.237-12.995-7.973v-3.915c3.087-5.98 6.797-8.97 12.548-13.074"/><path fill="#7d5dc2" d="M50.83 42.3c-2.987-3.036-4.48-6.169-6-10.535-.572 2.42-.448 5.577.324 8.329 1.643 1.352 3.112 2.16 5.676 2.207m5.054-1.233c-1.493 0-2.688 1.163-2.688 2.563 0 1.423 1.22 2.562 2.688 2.562 1.494 0 2.69-1.163 2.69-2.562 0-1.4-1.22-2.563-2.69-2.563m-9.834 5.79c-1.02 0-1.867.806-1.867 1.78 0 .972.847 1.779 1.867 1.779s1.868-.807 1.868-1.78c0-.996-.822-1.78-1.868-1.78m17.9-7.427c-3.286-3.061-5.028-10.417-5.452-17.061-2.813 4.556-4.381 9.373-4.68 14.356 3.41 1.755 5.751 2.254 10.133 2.705"/><path fill="#9478cf" d="M95.468 44.792c-2.44 0-4.431 1.898-4.431 4.224 0 2.325 1.992 4.223 4.431 4.223s4.432-1.898 4.432-4.223-1.992-4.224-4.432-4.224m2.864 12.956c-.971 0-1.768.76-1.768 1.685s.797 1.684 1.768 1.684c.97 0 1.767-.76 1.767-1.684 0-.926-.797-1.685-1.767-1.685"/><path fill="#d3e8ef" d="M70.77 47.094c-10.53 0-19.07 8.139-19.07 18.176s8.54 18.176 19.07 18.176c10.532 0 19.07-8.14 19.07-18.176 0-10.037-8.538-18.176-19.07-18.176"/><path fill="#fff" d="M89.344 61.14c-1.668-6.833-7.394-12.195-14.614-13.643-7.867-.57-14.24 4.675-14.24 11.817 0 7.19 6.472 13.572 14.414 14.237 7.967.664 14.415-4.603 14.415-11.817.025-.19.025-.403.025-.593"/><path fill="#ea4e64" d="M64.896 58.294c-5.95 0-10.755 4.579-10.755 10.25s4.805 10.25 10.755 10.25 10.755-4.579 10.755-10.25c0-5.647-4.805-10.25-10.755-10.25"/><path fill="#ec6277" d="M64.896 58.294c-1.568 0-3.062.308-4.406.901v.119c0 7 6.124 13.24 13.842 14.19a9.9 9.9 0 0 0 1.344-4.96c0-5.671-4.805-10.25-10.78-10.25"/><path fill="#232323" d="M64.895 61.9c-3.859 0-6.996 2.966-6.996 6.668 0 3.677 3.112 6.667 6.996 6.667 3.859 0 6.996-2.966 6.996-6.667 0-3.678-3.112-6.668-6.996-6.668"/><path fill="#323232" d="M64.897 61.9c-1.42 0-2.739.403-3.834 1.091 1.344 4.248 4.88 7.855 9.41 9.563a6.5 6.5 0 0 0 1.395-3.986c.025-3.678-3.087-6.668-6.971-6.668"/><path fill="#fff" d="M72.515 60.88c-2.44 0-4.407 1.874-4.407 4.2s1.967 4.2 4.407 4.2 4.406-1.875 4.406-4.2-1.966-4.2-4.406-4.2"/><path fill="#6f4bbb" d="M93.203 73.598c-5.427-2.847-13.593 2.136-12.996 10.203 5.179-1.518 10.78-6.17 12.996-10.203"/><path fill="#a58dd4" d="M93.203 73.598c-4.93.095-10.382 2.753-12.996 10.204 6.2-.665 11.975-5.173 12.996-10.204"/><path fill="#7d5dc2" d="M90.64 80.337c-.723-.237-4.109-.166-4.382.19-.324.427.572 2.61 1.518 4.034 1.245-.95 2.266-2.254 2.863-4.224"/><path fill="#fff" d="M91.635 79.554c-.722-.237-4.108-.166-4.382.19-.324.427.573 2.61 1.519 4.033 1.244-.949 2.265-2.254 2.863-4.223"/><path fill="#6f4bbb" d="M90.613 78.439c-.224 4.58-6.498 8.993-12.448 7.356-.323 1.328.623 2.111 1.594 2.301 5.402.451 10.605-2.8 12.323-6.952.498-1.14-.05-2.563-1.469-2.705m1.022 8.589c-1.494 2.682-3.835 3.94-6.399 4.343 3.66 1.566 6.896-.522 6.398-4.343"/><path fill="#9478cf" d="M89.17 87.669c-2.937 1.566-5.725 2.064-8.962 1.78 2.365 1.494 6.996 1.66 8.963-1.78"/><path fill="#5f3ea7" d="M64.174 41.945c5.9-9.729 21.435-4.058 19.866 6.857-3.883-6.121-11.377-8.115-19.867-6.857"/><path fill="#6f4bbb" d="M64.174 41.945c3.336-5.482 10.357-5.838 15.062-2.824.025 1.281-.374 2.207-1.096 2.942-3.809-1.756-8.788-2.468-13.966-.118M33.278 78.937c-6.2 0-11.278 4.746-11.278 10.678s5.079 10.677 11.278 10.677 11.278-4.745 11.278-10.677-5.079-10.678-11.278-10.678"/><path fill="#9478cf" d="M33.279 80.503c-5.328 0-9.635 4.082-9.635 9.088 0 5.03 4.307 9.088 9.635 9.088s9.635-4.081 9.635-9.088-4.332-9.088-9.635-9.088"/><path fill="#a58dd4" d="M33.278 80.503c-3.784 0-7.045 2.064-8.639 5.054-.348 4.746 5.726 8.234 9.784 6.597 2.988-1.543 5.054-4.556 5.054-7.997 0-.57-.05-1.115-.174-1.66a10.13 10.13 0 0 0-6.025-1.994"/><path fill="#2b3039" d="M37.212 88.191c.448-1.305-4.68-2.942-5.154-1.637l-5.079 14.498c-.448 1.305 4.68 2.942 5.154 1.637z"/><path fill="#5f3ea7" d="M29.843 86.72c2.016 1.186 3.684 2.35 4.88 4.508-1.719 1.994-3.984 3.085-6.474 2.8-2.016-2.42-.97-5.196 1.594-7.308"/><path fill="#6f4bbb" d="M28.274 90.042c.3-.831.847-1.614 1.544-2.373 1.543.949 2.813 1.97 3.784 3.44-1.07.095-2.738-.166-5.328-1.067"/><path fill="#5f3ea7" d="M27.9 92.533c2.017 1.186 3.685 2.35 4.88 4.508-1.718 1.994-3.984 3.085-6.473 2.8-2.017-2.42-.971-5.196 1.593-7.308"/><path fill="#6f4bbb" d="M26.332 95.618c.299-.83.846-1.614 1.543-2.373 1.544.95 2.814 1.97 3.785 3.44-1.07.12-2.739-.165-5.328-1.067"/><path fill="#5f3ea7" d="M38.408 93.103c-1.917-.45-3.61-.736-5.677-.166-.248 2.136.374 4.081 1.992 5.315 2.689-.213 3.834-2.444 3.685-5.149"/><path fill="#6f4bbb" d="M37.236 95.688c.348-.664.522-1.423.597-2.253-1.494-.332-2.863-.475-4.382-.166.548.688 1.693 1.47 3.785 2.419"/><path fill="#393f4c" d="M42.241 53.833c10.183.545 17.975 8.874 17.403 18.579S50.333 89.544 40.15 88.998s-17.975-8.874-17.402-18.58c.572-9.704 9.286-17.131 19.493-16.586"/><path fill="#d3e8ef" d="M42.092 56.016c8.912.474 15.759 7.782 15.26 16.301-.497 8.495-8.165 15.02-17.103 14.522-8.913-.475-15.759-7.783-15.261-16.302.523-8.494 8.166-15.02 17.104-14.521"/><path fill="#fff" d="M28.873 79.056c-1.643-2.42-2.54-5.34-2.366-8.448.374-6.145 4.83-11.152 10.73-12.694.474 5.315.972 10.535 1.494 15.898-1.966.759-7.045 3.18-9.858 5.243M42.34 57.724c7.768.427 13.718 6.763 13.245 14.166a13.2 13.2 0 0 1-.547 3.013c.024-.213.05-.427.05-.664.497-8.59-6.374-15.946-15.386-16.444h-.075c.871-.07 1.792-.118 2.713-.07"/><path fill="#999" d="M55.036 79.412q-.448.711-.97 1.352l-4.78-6.312-11.005 4.366-6.373-12.552-6.398 1.163c.174-.57.348-1.14.572-1.685l6.722-1.234 6.25 12.315 10.754-4.27z"/><path fill="#1ec185" d="M49.76 70.323c-1.843-.094-3.411 1.234-3.511 2.99s1.294 3.251 3.137 3.346 3.41-1.234 3.51-2.99c.125-1.732-1.294-3.227-3.137-3.346"/><path fill="#ea4e64" d="M32.556 62.232c-1.842-.095-3.41 1.234-3.51 2.99s1.294 3.25 3.136 3.345 3.411-1.233 3.51-2.99c.125-1.755-1.294-3.25-3.136-3.345"/><path fill="#ff893a" d="M38.88 74.666c-1.843-.095-3.411 1.234-3.51 2.99-.1 1.756 1.294 3.25 3.136 3.345s3.41-1.234 3.51-2.99c.125-1.755-1.294-3.25-3.137-3.345"/></g><defs><filter id="a" width="122.902" height="116.461" x=".339" y="4.471" color-interpolation-filters="sRGB" filterUnits="userSpaceOnUse"><feFlood flood-opacity="0" result="BackgroundImageFix"/><feColorMatrix in="SourceAlpha" result="hardAlpha" values="0 0 0 0 0 0 0 0 0 0 0 0 0 0 0 0 0 0 127 0"/><feOffset dx="-6.604" dy=".528"/><feGaussianBlur stdDeviation="7.529"/><feComposite in2="hardAlpha" operator="out"/><feColorMatrix values="0 0 0 0 0.312478 0 0 0 0 0.543573 0 0 0 0 0.921395 0 0 0 0.2 0"/><feBlend in2="BackgroundImageFix" result="effect1_dropShadow_1131_94"/><feBlend in="SourceGraphic" in2="effect1_dropShadow_1131_94" result="shape"/></filter></defs></svg>