<svg xmlns="http://www.w3.org/2000/svg" width="24" height="24" viewBox="0 0 24 24" fill="none">
    <path d="M11.9992 8.29999C12.7172 8.29999 13.2992 7.71797 13.2992 7C13.2992 6.28203 12.7172 5.70001 11.9992 5.70001C11.2812 5.70001 10.6992 6.28203 10.6992 7C10.6992 7.71797 11.2812 8.29999 11.9992 8.29999Z" fill="#393F4C"/>
    <path d="M11.9992 13.3C12.7172 13.3 13.2992 12.718 13.2992 12C13.2992 11.282 12.7172 10.7 11.9992 10.7C11.2812 10.7 10.6992 11.282 10.6992 12C10.6992 12.718 11.2812 13.3 11.9992 13.3Z" fill="#393F4C"/>
    <path d="M13.2992 17C13.2992 17.718 12.7172 18.3 11.9992 18.3C11.2812 18.3 10.6992 17.718 10.6992 17C10.6992 16.282 11.2812 15.7 11.9992 15.7C12.7172 15.7 13.2992 16.282 13.2992 17Z" fill="#393F4C"/>
</svg>
